<svg width="24" height="28" viewBox="0 0 24 28" fill="none" xmlns="http://www.w3.org/2000/svg">
<path d="M10.5059 1.46806C10.5512 1.24168 10.6734 1.03792 10.8517 0.891371C11.0301 0.744823 11.2537 0.66451 11.4846 0.664062H12.5113C12.7423 0.664202 12.9663 0.744375 13.1449 0.890949C13.3236 1.03752 13.446 1.24145 13.4913 1.46806L13.6819 2.4174C13.7394 2.70328 13.8587 2.97314 14.0314 3.20807C14.2041 3.443 14.4262 3.63731 14.6819 3.7774L15.0819 3.9974C16.2563 4.53167 17.2718 5.36187 18.0289 6.40666C18.786 7.45145 19.2586 8.67498 19.4006 9.9574L20.1206 16.4427C20.2553 17.6494 20.8726 18.7521 21.8313 19.4974L22.3033 19.8641C22.6092 20.1021 22.8393 20.4239 22.9658 20.7903C23.0922 21.1568 23.1094 21.552 23.0153 21.9281L22.9993 21.9974C22.9041 22.3783 22.6843 22.7165 22.3748 22.9581C22.0653 23.1997 21.6839 23.3308 21.2913 23.3307H15.9993C15.9993 24.3916 15.5778 25.409 14.8277 26.1592C14.0775 26.9093 13.0601 27.3307 11.9993 27.3307C10.9384 27.3307 9.92097 26.9093 9.17083 26.1592C8.42068 25.409 7.99925 24.3916 7.99925 23.3307H2.70592C2.31352 23.3305 1.93244 23.1992 1.62322 22.9577C1.314 22.7161 1.09438 22.3781 0.999254 21.9974L0.98192 21.9281C0.887674 21.5522 0.904666 21.157 1.03083 20.7906C1.157 20.4241 1.3869 20.1023 1.69259 19.8641L2.16459 19.4974C2.63911 19.1282 3.03486 18.6677 3.32844 18.1431C3.62203 17.6184 3.80751 17.0403 3.87392 16.4427L4.59392 9.95606C4.73648 8.67347 5.20985 7.44992 5.96762 6.40535C6.7254 5.36077 7.74159 4.53101 8.91659 3.9974L9.31659 3.77873C9.57249 3.63851 9.79461 3.44398 9.96736 3.20881C10.1401 2.97364 10.2593 2.70352 10.3166 2.4174L10.5059 1.46806Z" fill="#00134D"/>
</svg>
