<svg width="33" height="23" viewBox="0 0 33 23" fill="none" xmlns="http://www.w3.org/2000/svg">
<path d="M19.7062 13.621C19.144 14.1098 18.4447 14.7179 17.1706 14.7179H16.41C15.4894 14.7179 14.6521 14.3903 14.053 13.7951C13.4681 13.2135 13.145 12.4184 13.145 11.5548V10.5335C13.145 9.66987 13.4673 8.87395 14.053 8.29316C14.6524 7.69793 15.4894 7.37029 16.41 7.37029H17.1706C18.4443 7.37029 19.144 7.97844 19.7062 8.46725C20.2893 8.9743 20.7929 9.41217 22.1347 9.41217C22.3429 9.41217 22.5474 9.39582 22.7462 9.36428C22.7447 9.36009 22.7432 9.35667 22.7417 9.35287C22.6618 9.15902 22.568 8.96821 22.4596 8.78425L21.5626 7.26006C20.7397 5.8613 19.2182 5 17.5723 5H15.7779C14.1321 5 12.6106 5.86168 11.7876 7.26006L10.8906 8.78425C10.0677 10.183 10.0677 11.9056 10.8906 13.304L11.7876 14.8282C12.6106 16.2269 14.1321 17.0879 15.7779 17.0879H17.5723C19.2182 17.0879 20.7397 16.2262 21.5626 14.8282L22.4596 13.304C22.568 13.1196 22.6618 12.9296 22.7417 12.7357C22.7432 12.7316 22.7447 12.7281 22.7462 12.7243C22.5474 12.6928 22.3437 12.6764 22.1347 12.6764C20.7933 12.6761 20.2893 13.1139 19.7062 13.621Z" fill="white"/>
<path d="M17.1685 9H16.408C15.0069 9 14.0859 9.98179 14.0859 11.2384V12.2597C14.0859 13.5163 15.0065 14.4981 16.408 14.4981H17.1685C19.21 14.4981 19.0496 12.4562 22.1322 12.4562C22.4275 12.4562 22.7195 12.4828 23.0034 12.5345C23.0969 12.0153 23.0969 11.4839 23.0034 10.9643C22.7191 11.016 22.4275 11.0426 22.1322 11.0426C19.0496 11.0423 19.21 9 17.1685 9Z" fill="white"/>
<path d="M24.7775 13.2109C24.2511 12.8301 23.6471 12.5815 23.0067 12.4644C23.0055 12.4694 23.0052 12.4743 23.004 12.4792C22.9493 12.7784 22.8638 13.073 22.7467 13.3588C23.2872 13.4447 23.7851 13.6439 24.2108 13.9498C24.2093 13.9544 24.2082 13.959 24.2066 13.9639C23.9611 14.7458 23.5909 15.4828 23.107 16.1533C22.6289 16.8154 22.0507 17.3985 21.3882 17.8854C20.013 18.8972 18.3752 19.4316 16.6511 19.4316C15.5838 19.4316 14.5488 19.2267 13.5746 18.8227C12.6338 18.4323 11.7885 17.8732 11.0617 17.1605C10.3354 16.4478 9.76561 15.6188 9.36765 14.6956C8.956 13.74 8.74695 12.7248 8.74695 11.6776C8.74695 10.6305 8.956 9.61521 9.36765 8.65965C9.76561 7.73677 10.3354 6.9074 11.0617 6.19472C11.7881 5.48203 12.6334 4.92329 13.5746 4.53255C14.5484 4.12851 15.5834 3.92364 16.6511 3.92364C18.3752 3.92364 20.013 4.45805 21.3882 5.46987C22.0507 5.95716 22.6285 6.53984 23.107 7.20197C23.5909 7.87285 23.9611 8.60985 24.2066 9.39133C24.2082 9.39628 24.2097 9.40084 24.2108 9.4054C23.7855 9.711 23.2872 9.91093 22.7467 9.99645C22.8638 10.2827 22.9497 10.578 23.004 10.8771C23.0052 10.8821 23.0055 10.8866 23.0067 10.8916C23.6471 10.7745 24.2507 10.5259 24.7775 10.1451C25.2823 9.77865 25.1846 9.36473 25.1079 9.11918C23.9953 5.5763 20.6303 3 16.6514 3C11.7653 3 7.80469 6.88535 7.80469 11.6784C7.80469 16.4714 11.7657 20.3568 16.6514 20.3568C20.6303 20.3568 23.9953 17.7801 25.1079 14.2353C25.185 13.9913 25.2831 13.5777 24.7775 13.2109Z" fill="white"/>
<path d="M22.7419 9.99399C22.5431 10.0255 22.3394 10.0419 22.1303 10.0419C20.7889 10.0419 20.2849 9.60401 19.7019 9.09696C19.1397 8.60816 18.4403 8 17.1662 8H16.4057C15.4851 8 14.6477 8.32764 14.0487 8.92288C13.4637 9.50442 13.1406 10.2996 13.1406 11.1632V12.1845C13.1406 13.0481 13.4629 13.844 14.0487 14.4248C14.6481 15.02 15.4851 15.3477 16.4057 15.3477H17.1662C18.4399 15.3477 19.1397 14.7391 19.7019 14.2507C20.2849 13.7436 20.7886 13.3058 22.1303 13.3058C22.3386 13.3058 22.5431 13.3221 22.7419 13.3537C22.8589 13.0678 22.9441 12.7729 22.9992 12.4741C23.0003 12.4692 23.0007 12.4642 23.0019 12.4593C22.7176 12.4076 22.426 12.381 22.1307 12.381C19.0481 12.381 19.2085 14.4229 17.167 14.4229H16.4064C15.0054 14.4229 14.0844 13.4411 14.0844 12.1845V11.1632C14.0844 9.90657 15.005 8.92478 16.4064 8.92478H17.167C19.2085 8.92478 19.0485 10.9667 22.1307 10.9667C22.426 10.9667 22.7179 10.9401 23.0019 10.8884C23.0007 10.8834 23.0003 10.8789 22.9992 10.8739C22.9449 10.5755 22.8589 10.2806 22.7419 9.99399Z" fill="#00134D"/>
<path d="M22.7419 9.99399C22.5431 10.0255 22.3394 10.0419 22.1303 10.0419C20.7889 10.0419 20.2849 9.60401 19.7019 9.09696C19.1397 8.60816 18.4403 8 17.1662 8H16.4057C15.4851 8 14.6477 8.32764 14.0487 8.92288C13.4637 9.50442 13.1406 10.2996 13.1406 11.1632V12.1845C13.1406 13.0481 13.4629 13.844 14.0487 14.4248C14.6481 15.02 15.4851 15.3477 16.4057 15.3477H17.1662C18.4399 15.3477 19.1397 14.7391 19.7019 14.2507C20.2849 13.7436 20.7886 13.3058 22.1303 13.3058C22.3386 13.3058 22.5431 13.3221 22.7419 13.3537C22.8589 13.0678 22.9441 12.7729 22.9992 12.4741C23.0003 12.4692 23.0007 12.4642 23.0019 12.4593C22.7176 12.4076 22.426 12.381 22.1307 12.381C19.0481 12.381 19.2085 14.4229 17.167 14.4229H16.4064C15.0054 14.4229 14.0844 13.4411 14.0844 12.1845V11.1632C14.0844 9.90657 15.005 8.92478 16.4064 8.92478H17.167C19.2085 8.92478 19.0485 10.9667 22.1307 10.9667C22.426 10.9667 22.7179 10.9401 23.0019 10.8884C23.0007 10.8834 23.0003 10.8789 22.9992 10.8739C22.9449 10.5755 22.8589 10.2806 22.7419 9.99399Z" fill="#00134D"/>
</svg>
