<svg width="16" height="16" viewBox="0 0 16 16" fill="none" xmlns="http://www.w3.org/2000/svg">
<path d="M14.2312 11.5813C14.2312 11.8062 14.1812 12.0375 14.075 12.2625C13.9688 12.4875 13.8313 12.7 13.65 12.9C13.3438 13.2375 13.0062 13.4813 12.625 13.6375C12.25 13.7938 11.8438 13.875 11.4062 13.875C10.7688 13.875 10.0875 13.725 9.36875 13.4188C8.65 13.1125 7.93125 12.7 7.21875 12.1813C6.5 11.6563 5.81875 11.075 5.16875 10.4312C4.525 9.78125 3.94375 9.1 3.425 8.3875C2.9125 7.675 2.5 6.9625 2.2 6.25625C1.9 5.54375 1.75 4.8625 1.75 4.2125C1.75 3.7875 1.825 3.38125 1.975 3.00625C2.125 2.625 2.3625 2.275 2.69375 1.9625C3.09375 1.56875 3.53125 1.375 3.99375 1.375C4.16875 1.375 4.34375 1.4125 4.5 1.4875C4.6625 1.5625 4.80625 1.675 4.91875 1.8375L6.36875 3.88125C6.48125 4.0375 6.5625 4.18125 6.61875 4.31875C6.675 4.45 6.70625 4.58125 6.70625 4.7C6.70625 4.85 6.6625 5 6.575 5.14375C6.49375 5.2875 6.375 5.4375 6.225 5.5875L5.75 6.08125C5.68125 6.15 5.65 6.23125 5.65 6.33125C5.65 6.38125 5.65625 6.425 5.66875 6.475C5.6875 6.525 5.70625 6.5625 5.71875 6.6C5.83125 6.80625 6.025 7.075 6.3 7.4C6.58125 7.725 6.88125 8.05625 7.20625 8.3875C7.54375 8.71875 7.86875 9.025 8.2 9.30625C8.525 9.58125 8.79375 9.76875 9.00625 9.88125C9.0375 9.89375 9.075 9.9125 9.11875 9.93125C9.16875 9.95 9.21875 9.95625 9.275 9.95625C9.38125 9.95625 9.4625 9.91875 9.53125 9.85L10.0063 9.38125C10.1625 9.225 10.3125 9.10625 10.4563 9.03125C10.6 8.94375 10.7437 8.9 10.9 8.9C11.0187 8.9 11.1438 8.925 11.2812 8.98125C11.4187 9.0375 11.5625 9.11875 11.7188 9.225L13.7875 10.6938C13.95 10.8062 14.0625 10.9375 14.1312 11.0938C14.1937 11.25 14.2312 11.4062 14.2312 11.5813Z" fill="#415EFF" stroke="#415EFF" stroke-miterlimit="10"/>
</svg>
