<svg width="21" height="20" viewBox="0 0 21 20" fill="none" xmlns="http://www.w3.org/2000/svg">
<path d="M13.1776 2.35938H7.3276C5.2526 2.35938 4.79427 3.39271 4.5276 4.65938L3.58594 9.16771H16.9193L15.9776 4.65938C15.7109 3.39271 15.2526 2.35938 13.1776 2.35938Z" stroke="#0A0A0B" stroke-width="1.5" stroke-linecap="round" stroke-linejoin="round"/>
<path d="M18.5714 16.5141C18.663 17.4891 17.8797 18.3307 16.8797 18.3307H15.313C14.413 18.3307 14.288 17.9474 14.1297 17.4724L13.963 16.9724C13.7297 16.2891 13.5797 15.8307 12.3797 15.8307H8.11303C6.91303 15.8307 6.73803 16.3474 6.5297 16.9724L6.36303 17.4724C6.2047 17.9474 6.0797 18.3307 5.1797 18.3307H3.61303C2.61303 18.3307 1.8297 17.4891 1.92136 16.5141L2.38803 11.4391C2.5047 10.1891 2.74636 9.16406 4.9297 9.16406H15.563C17.7464 9.16406 17.988 10.1891 18.1047 11.4391L18.5714 16.5141Z" stroke="#0A0A0B" stroke-width="1.5" stroke-linecap="round" stroke-linejoin="round"/>
<path d="M3.58333 6.66406H2.75" stroke="#0A0A0B" stroke-width="1.5" stroke-linecap="round" stroke-linejoin="round"/>
<path d="M17.7474 6.66406H16.9141" stroke="#0A0A0B" stroke-width="1.5" stroke-linecap="round" stroke-linejoin="round"/>
<path d="M10.25 2.5V4.16667" stroke="#0A0A0B" stroke-width="1.5" stroke-linecap="round" stroke-linejoin="round"/>
<path d="M9 4.16406H11.5" stroke="#0A0A0B" stroke-width="1.5" stroke-linecap="round" stroke-linejoin="round"/>
<path d="M5.25 12.5H7.75" stroke="#0A0A0B" stroke-width="1.5" stroke-linecap="round" stroke-linejoin="round"/>
<path d="M12.75 12.5H15.25" stroke="#0A0A0B" stroke-width="1.5" stroke-linecap="round" stroke-linejoin="round"/>
</svg>
