<svg width="18" height="16" viewBox="0 0 18 16" fill="none" xmlns="http://www.w3.org/2000/svg">
<path d="M15.6641 3.83333H12.3307V2.16667L10.6641 0.5H7.33073L5.66406 2.16667V3.83333H2.33073C1.41406 3.83333 0.664062 4.58333 0.664062 5.5V9.66667C0.664062 10.2917 0.997396 10.8167 1.4974 11.1083V13.8333C1.4974 14.7583 2.23906 15.5 3.16406 15.5H14.8307C15.7557 15.5 16.4974 14.7583 16.4974 13.8333V11.1C16.9891 10.8083 17.3307 10.275 17.3307 9.66667V5.5C17.3307 4.58333 16.5807 3.83333 15.6641 3.83333ZM7.33073 2.16667H10.6641V3.83333H7.33073V2.16667ZM2.33073 5.5H15.6641V9.66667H11.4974V7.16667H6.4974V9.66667H2.33073V5.5ZM9.83073 10.5H8.16406V8.83333H9.83073V10.5ZM14.8307 13.8333H3.16406V11.3333H6.4974V12.1667H11.4974V11.3333H14.8307V13.8333Z" fill="#0A0A0B"/>
</svg>
