<svg width="32" height="31" viewBox="0 0 32 31" fill="none" xmlns="http://www.w3.org/2000/svg">
<path d="M28.9132 22.807C29.7849 22.807 30.5198 23.1111 31.1179 23.7193C31.7159 24.3275 32.0099 25.037 31.9997 25.8479L19.7904 30.4093L9.14713 27.3684V13.6842H12.112L23.1658 17.7743C23.9565 18.0885 24.3518 18.6561 24.3518 19.4772C24.3518 19.9536 24.1795 20.3692 23.8348 20.724C23.4902 21.0787 23.0543 21.2663 22.5272 21.2865H18.2699L15.6091 20.2678L15.1074 21.6971L18.2699 22.807H28.9132ZM22.8313 1.87017C23.9058 0.623391 25.2742 0 26.9366 0C28.3151 0 29.4808 0.506822 30.4337 1.52047C31.3865 2.53411 31.8933 3.6998 31.9541 5.01754C31.9541 6.06159 31.4473 7.30838 30.4337 8.75789C29.42 10.2074 28.4216 11.4187 27.4383 12.3918C26.4551 13.3649 24.9194 14.8093 22.8313 16.7251C20.7229 14.8093 19.1721 13.3649 18.1787 12.3918C17.1853 11.4187 16.1869 10.2074 15.1834 8.75789C14.1799 7.30838 13.6883 6.06159 13.7085 5.01754C13.7085 3.63898 14.2001 2.47329 15.1834 1.52047C16.1666 0.567641 17.3526 0.0608187 18.7413 0C20.3631 0 21.7265 0.623391 22.8313 1.87017ZM0 13.6842H6.10619V30.4093H0V13.6842Z" fill="#00134D"/>
</svg>
