<svg width="14" height="16" viewBox="0 0 14 16" fill="none" xmlns="http://www.w3.org/2000/svg">
<path fill-rule="evenodd" clip-rule="evenodd" d="M1.17969 6.79389C1.19049 3.61345 3.77751 1.04395 6.95795 1.05472C10.1384 1.06556 12.7079 3.65258 12.6971 6.83302V6.89823C12.6579 8.96562 11.5036 10.8765 10.0884 12.37C9.27902 13.2104 8.37519 13.9545 7.39491 14.5874C7.13278 14.8141 6.74398 14.8141 6.48186 14.5874C5.02049 13.6362 3.73789 12.4353 2.69273 11.0395C1.7612 9.82245 1.23231 8.34521 1.17969 6.81345V6.79389Z" stroke="#00134D" stroke-linecap="round" stroke-linejoin="round"/>
<path d="M6.9394 8.7538C7.95873 8.7538 8.78505 7.92748 8.78505 6.90815C8.78505 5.88883 7.95873 5.0625 6.9394 5.0625C5.92008 5.0625 5.09375 5.88883 5.09375 6.90815C5.09375 7.92748 5.92008 8.7538 6.9394 8.7538Z" stroke="#00134D" stroke-linecap="round" stroke-linejoin="round"/>
</svg>
