<svg width="16" height="16" viewBox="0 0 16 16" fill="none" xmlns="http://www.w3.org/2000/svg">
<path fill-rule="evenodd" clip-rule="evenodd" d="M2.5956 4.29144C2.5956 3.35469 3.35535 2.59494 4.29135 2.59494H5.0631C5.5101 2.59494 5.93985 2.41794 6.25785 2.10219L6.7971 1.56219C7.45785 0.898443 8.53185 0.895443 9.1956 1.55619L9.20235 1.56219L9.74235 2.10219C10.0596 2.41794 10.4894 2.59494 10.9371 2.59494H11.7081C12.6449 2.59494 13.4046 3.35469 13.4046 4.29144V5.06169C13.4046 5.51019 13.5816 5.93919 13.8974 6.25719L14.4374 6.79719C15.1011 7.45794 15.1049 8.53119 14.4441 9.19569L14.4374 9.20244L13.8974 9.74244C13.5816 10.0589 13.4046 10.4894 13.4046 10.9364V11.7082C13.4046 12.6449 12.6449 13.4039 11.7081 13.4039H10.9371C10.4894 13.4039 10.0596 13.5817 9.74235 13.8974L9.20235 14.4367C8.54235 15.1012 7.46835 15.1042 6.80385 14.4434C6.8016 14.4412 6.79935 14.4389 6.7971 14.4367L6.25785 13.8974C5.93985 13.5817 5.5101 13.4039 5.0631 13.4039H4.29135C3.35535 13.4039 2.5956 12.6449 2.5956 11.7082V10.9364C2.5956 10.4894 2.41785 10.0589 2.1021 9.74244L1.56285 9.20244C0.89835 8.54169 0.895351 7.46769 1.5561 6.80394L1.56285 6.79719L2.1021 6.25719C2.41785 5.93919 2.5956 5.51019 2.5956 5.06169V4.29144Z" stroke="#00134D" stroke-linecap="round" stroke-linejoin="round"/>
<path d="M6.07031 9.92531L9.92531 6.07031" stroke="#00134D" stroke-linecap="round" stroke-linejoin="round"/>
<path d="M9.92188 10.4925C9.77187 10.4925 9.62938 10.4325 9.52438 10.3275C9.47188 10.275 9.43438 10.2075 9.40438 10.14C9.37438 10.0725 9.35938 10.0057 9.35938 9.93C9.35938 9.855 9.37438 9.78 9.40438 9.7125C9.43438 9.645 9.47188 9.585 9.52438 9.5325C9.73438 9.3225 10.1094 9.3225 10.3194 9.5325C10.3719 9.585 10.4169 9.645 10.4469 9.7125C10.4694 9.78 10.4844 9.855 10.4844 9.93C10.4844 10.0057 10.4694 10.0725 10.4469 10.14C10.4169 10.2075 10.3719 10.275 10.3194 10.3275C10.2144 10.4325 10.0719 10.4925 9.92188 10.4925Z" fill="#00134D"/>
<path d="M6.07031 6.63369C5.99531 6.63369 5.92781 6.61794 5.86031 6.58794C5.79281 6.55794 5.72531 6.52119 5.67281 6.46869C5.62031 6.40869 5.58281 6.34869 5.55281 6.28119C5.52281 6.21294 5.50781 6.14619 5.50781 6.07119C5.50781 5.99544 5.52281 5.92119 5.55281 5.85369C5.58281 5.78619 5.62031 5.71869 5.67281 5.67369C5.89031 5.46294 6.25781 5.46294 6.46781 5.67369C6.57281 5.77794 6.63281 5.92119 6.63281 6.07119C6.63281 6.14619 6.62531 6.21294 6.59531 6.28119C6.56531 6.34869 6.52031 6.40869 6.46781 6.46869C6.41531 6.52119 6.35531 6.55794 6.28781 6.58794C6.22031 6.61794 6.14531 6.63369 6.07031 6.63369Z" fill="#00134D"/>
</svg>
