<svg width="21" height="20" viewBox="0 0 21 20" fill="none" xmlns="http://www.w3.org/2000/svg">
<path d="M2.41406 18.3359H19.0807" stroke="#0A0A0B" stroke-width="1.5" stroke-miterlimit="10" stroke-linecap="round" stroke-linejoin="round"/>
<path d="M3.21094 18.3344L3.2526 8.30934C3.2526 7.80101 3.49427 7.31772 3.89427 7.00105L9.7276 2.45938C10.3276 1.99271 11.1693 1.99271 11.7776 2.45938L17.6109 6.99271C18.0193 7.30938 18.2526 7.79267 18.2526 8.30934V18.3344" stroke="#0A0A0B" stroke-width="1.5" stroke-miterlimit="10" stroke-linejoin="round"/>
<path d="M11.5807 14.1641H9.91406C9.2224 14.1641 8.66406 14.7224 8.66406 15.4141V18.3307H12.8307V15.4141C12.8307 14.7224 12.2724 14.1641 11.5807 14.1641Z" stroke="#0A0A0B" stroke-width="1.5" stroke-miterlimit="10" stroke-linejoin="round"/>
<path d="M8.66406 11.4557H6.9974C6.53906 11.4557 6.16406 11.0807 6.16406 10.6224V9.3724C6.16406 8.91406 6.53906 8.53906 6.9974 8.53906H8.66406C9.1224 8.53906 9.4974 8.91406 9.4974 9.3724V10.6224C9.4974 11.0807 9.1224 11.4557 8.66406 11.4557Z" stroke="#0A0A0B" stroke-width="1.5" stroke-miterlimit="10" stroke-linejoin="round"/>
<path d="M14.5 11.4557H12.8333C12.375 11.4557 12 11.0807 12 10.6224V9.3724C12 8.91406 12.375 8.53906 12.8333 8.53906H14.5C14.9583 8.53906 15.3333 8.91406 15.3333 9.3724V10.6224C15.3333 11.0807 14.9583 11.4557 14.5 11.4557Z" stroke="#0A0A0B" stroke-width="1.5" stroke-miterlimit="10" stroke-linejoin="round"/>
<path d="M16.5823 5.83594L16.5573 3.33594H12.8906" stroke="#0A0A0B" stroke-width="1.5" stroke-miterlimit="10" stroke-linecap="round" stroke-linejoin="round"/>
</svg>
