<svg width="16" height="16" viewBox="0 0 16 16" fill="none" xmlns="http://www.w3.org/2000/svg">
<path d="M2.02513 5.52513L2.55546 6.05546L2.77513 5.83579L2.77513 5.52513L2.02513 5.52513ZM5.52513 2.02512L5.52513 2.77512L5.83579 2.77512L6.05546 2.55545L5.52513 2.02512ZM10.4749 2.02513L9.94454 2.55546L10.1642 2.77513H10.4749V2.02513ZM12.9498 3.05026L12.4194 3.58059L12.9498 3.05026ZM13.9749 5.52513L13.2249 5.52512L13.2249 5.83578L13.4445 6.05546L13.9749 5.52513ZM13.9749 10.4749L13.4445 9.94454L13.2249 10.1642V10.4749H13.9749ZM12.9497 12.9497L13.4801 13.4801L13.4801 13.4801L12.9497 12.9497ZM10.4749 13.9749L10.4749 13.2249L10.1642 13.2249L9.94454 13.4445L10.4749 13.9749ZM5.52513 13.9749L6.05546 13.4445L5.83579 13.2249H5.52513V13.9749ZM3.05024 12.9497L2.51991 13.4801H2.51991L3.05024 12.9497ZM2.02513 10.4749L2.77513 10.4749L2.77513 10.1642L2.55546 9.94454L2.02513 10.4749ZM11.6414 5.41922C11.9343 5.12633 11.9343 4.65145 11.6414 4.35856C11.3485 4.06567 10.8737 4.06567 10.5808 4.35856L11.6414 5.41922ZM4.35856 10.5808C4.06567 10.8737 4.06567 11.3485 4.35856 11.6414C4.65145 11.9343 5.12633 11.9343 5.41922 11.6414L4.35856 10.5808ZM2.77513 5.52513C2.77513 4.82018 3.04346 4.1177 3.58058 3.58058L2.51992 2.51992C1.6902 3.34964 1.27513 4.43862 1.27513 5.52513L2.77513 5.52513ZM1.75 8C1.75 7.2404 2.05698 6.55393 2.55546 6.05546L1.4948 4.9948C0.726518 5.76307 0.25 6.8266 0.25 8H1.75ZM3.58058 3.58058C4.1177 3.04346 4.82018 2.77512 5.52513 2.77512L5.52513 1.27512C4.43862 1.27512 3.34964 1.6902 2.51992 2.51992L3.58058 3.58058ZM6.05546 2.55545C6.55393 2.05698 7.2404 1.75 8 1.75V0.25C6.8266 0.25 5.76308 0.726517 4.9948 1.49479L6.05546 2.55545ZM10.4749 2.77513C11.1798 2.77513 11.8823 3.04347 12.4194 3.58059L13.4801 2.51992C12.6504 1.69021 11.5614 1.27513 10.4749 1.27513V2.77513ZM8 1.75C8.7596 1.75 9.44607 2.05698 9.94454 2.55546L11.0052 1.4948C10.2369 0.726519 9.1734 0.25 8 0.25V1.75ZM12.4194 3.58059C12.9565 4.1177 13.2249 4.82018 13.2249 5.52512L14.7249 5.52513C14.7249 4.43862 14.3098 3.34964 13.4801 2.51992L12.4194 3.58059ZM13.4445 6.05546C13.943 6.55393 14.25 7.2404 14.25 8H15.75C15.75 6.8266 15.2735 5.76307 14.5052 4.9948L13.4445 6.05546ZM13.2249 10.4749C13.2249 11.1798 12.9565 11.8823 12.4194 12.4194L13.4801 13.4801C14.3098 12.6504 14.7249 11.5614 14.7249 10.4749H13.2249ZM14.25 8C14.25 8.7596 13.943 9.44607 13.4445 9.94454L14.5052 11.0052C15.2735 10.2369 15.75 9.1734 15.75 8H14.25ZM12.4194 12.4194C11.8823 12.9565 11.1798 13.2249 10.4749 13.2249L10.4749 14.7249C11.5614 14.7249 12.6504 14.3098 13.4801 13.4801L12.4194 12.4194ZM9.94454 13.4445C9.44607 13.943 8.7596 14.25 8 14.25V15.75C9.1734 15.75 10.2369 15.2735 11.0052 14.5052L9.94454 13.4445ZM5.52513 13.2249C4.82017 13.2249 4.11769 12.9565 3.58057 12.4194L2.51991 13.4801C3.34963 14.3098 4.43862 14.7249 5.52513 14.7249V13.2249ZM8 14.25C7.2404 14.25 6.55393 13.943 6.05546 13.4445L4.9948 14.5052C5.76307 15.2735 6.8266 15.75 8 15.75V14.25ZM3.58057 12.4194C3.04346 11.8823 2.77512 11.1798 2.77513 10.4749L1.27513 10.4749C1.27512 11.5614 1.69019 12.6504 2.51991 13.4801L3.58057 12.4194ZM2.55546 9.94454C2.05698 9.44607 1.75 8.7596 1.75 8H0.25C0.25 9.1734 0.726519 10.2369 1.4948 11.0052L2.55546 9.94454ZM6.05556 6.47222C5.82544 6.47222 5.63889 6.28567 5.63889 6.05556H4.13889C4.13889 7.1141 4.99701 7.97222 6.05556 7.97222V6.47222ZM6.47222 6.05556C6.47222 6.28567 6.28567 6.47222 6.05556 6.47222V7.97222C7.1141 7.97222 7.97222 7.1141 7.97222 6.05556H6.47222ZM6.05556 5.63889C6.28567 5.63889 6.47222 5.82544 6.47222 6.05556H7.97222C7.97222 4.99701 7.1141 4.13889 6.05556 4.13889V5.63889ZM6.05556 4.13889C4.99701 4.13889 4.13889 4.99701 4.13889 6.05556H5.63889C5.63889 5.82544 5.82544 5.63889 6.05556 5.63889V4.13889ZM9.94444 10.3611C9.71433 10.3611 9.52778 10.1746 9.52778 9.94444H8.02778C8.02778 11.003 8.8859 11.8611 9.94444 11.8611V10.3611ZM10.3611 9.94444C10.3611 10.1746 10.1746 10.3611 9.94444 10.3611V11.8611C11.003 11.8611 11.8611 11.003 11.8611 9.94444H10.3611ZM9.94444 9.52778C10.1746 9.52778 10.3611 9.71433 10.3611 9.94444H11.8611C11.8611 8.8859 11.003 8.02778 9.94444 8.02778V9.52778ZM9.94444 8.02778C8.8859 8.02778 8.02778 8.8859 8.02778 9.94444H9.52778C9.52778 9.71433 9.71433 9.52778 9.94444 9.52778V8.02778ZM5.41922 11.6414L11.6414 5.41922L10.5808 4.35856L4.35856 10.5808L5.41922 11.6414Z" fill="#00134D"/>
</svg>
