<svg width="16" height="14" viewBox="0 0 16 14" fill="none" xmlns="http://www.w3.org/2000/svg">
<path d="M13 10C13 9.44772 13.4477 9 14 9C14.5523 9 15 9.44772 15 10V12C15 12.5523 14.5523 13 14 13C13.4477 13 13 12.5523 13 12V10Z" fill="#C4C4C4"/>
<path d="M3 10C3 9.44772 2.55228 9 2 9C1.44772 9 1 9.44772 1 10V12C1 12.5523 1.44772 13 2 13C2.55228 13 3 12.5523 3 12V10Z" fill="#C4C4C4"/>
<path d="M15 10V12C15 12.5523 14.5523 13 14 13C13.4477 13 13 12.5523 13 12V10C13 9.44772 13.4477 9 14 9C14.5523 9 15 9.44772 15 10ZM15 10V8C15 4.13401 11.866 1 8 1C4.13401 1 1 4.13401 1 8V10M1 10V12C1 12.5523 1.44772 13 2 13C2.55228 13 3 12.5523 3 12V10C3 9.44772 2.55228 9 2 9C1.44772 9 1 9.44772 1 10Z" stroke="#00134D" stroke-width="1.5"/>
</svg>
