<svg width="22" height="16" viewBox="0 0 22 16" fill="none" xmlns="http://www.w3.org/2000/svg">
<path d="M3.25 8C3.25 8.41421 3.58579 8.75 4 8.75C4.41421 8.75 4.75 8.41421 4.75 8H3.25ZM4.75 4C4.75 3.58579 4.41421 3.25 4 3.25C3.58579 3.25 3.25 3.58579 3.25 4H4.75ZM6.25 8C6.25 8.41421 6.58579 8.75 7 8.75C7.41421 8.75 7.75 8.41421 7.75 8H6.25ZM7.75 4C7.75 3.58579 7.41421 3.25 7 3.25C6.58579 3.25 6.25 3.58579 6.25 4H7.75ZM9.25 8C9.25 8.41421 9.58579 8.75 10 8.75C10.4142 8.75 10.75 8.41421 10.75 8H9.25ZM10.75 4C10.75 3.58579 10.4142 3.25 10 3.25C9.58579 3.25 9.25 3.58579 9.25 4H10.75ZM13.5309 3.05C13.1167 3.05 12.7809 3.38579 12.7809 3.8C12.7809 4.21421 13.1167 4.55 13.5309 4.55V3.05ZM12.7809 13.1333C12.7809 13.5475 13.1167 13.8833 13.5309 13.8833C13.9451 13.8833 14.2809 13.5475 14.2809 13.1333H12.7809ZM20.7804 7.27511L20.2051 7.75639L20.2091 7.76101L20.7804 7.27511ZM18.1662 4.15051L17.5402 4.5636L17.5636 4.59912L17.591 4.63177L18.1662 4.15051ZM4.75 8V4H3.25V8H4.75ZM7.75 8V4H6.25V8H7.75ZM10.75 8V4H9.25V8H10.75ZM18.7922 3.73741C18.5089 3.30815 18.0237 3.05 17.5043 3.05V4.55C17.5153 4.55 17.5242 4.5527 17.5307 4.55616C17.5375 4.55978 17.54 4.56325 17.5402 4.5636L18.7922 3.73741ZM2.50344 12.3833C2.18397 12.3833 1.75 12.0468 1.75 11.4H0.25C0.25 12.6678 1.16226 13.8833 2.50344 13.8833V12.3833ZM2.50344 0.25C1.16226 0.25 0.25 1.46558 0.25 2.73333H1.75C1.75 2.0865 2.18397 1.75 2.50344 1.75V0.25ZM12.0275 1.75C12.347 1.75 12.7809 2.0865 12.7809 2.73333H14.2809C14.2809 1.46558 13.3687 0.25 12.0275 0.25V1.75ZM5.34922 14.25C4.67098 14.25 4.16623 13.7256 4.16623 13.1333H2.66623C2.66623 14.6029 3.89235 15.75 5.34922 15.75V14.25ZM6.53221 13.1333C6.53221 13.7256 6.02746 14.25 5.34922 14.25V15.75C6.8061 15.75 8.03221 14.6029 8.03221 13.1333H6.53221ZM5.34922 12.0167C6.02746 12.0167 6.53221 12.5411 6.53221 13.1333H8.03221C8.03221 11.6637 6.8061 10.5167 5.34922 10.5167V12.0167ZM5.34922 10.5167C3.89235 10.5167 2.66623 11.6637 2.66623 13.1333H4.16623C4.16623 12.5411 4.67098 12.0167 5.34922 12.0167V10.5167ZM1.75 11.4V2.73333H0.25V11.4H1.75ZM2.50344 1.75H12.0275V0.25H2.50344V1.75ZM2.50344 13.8833H3.41623V12.3833H2.50344V13.8833ZM13.5309 4.55H17.5043V3.05H13.5309V4.55ZM21.75 12.2V7.86748H20.25V12.2H21.75ZM17.3969 14.25C16.7186 14.25 16.2139 13.7256 16.2139 13.1333H14.7139C14.7139 14.6029 15.94 15.75 17.3969 15.75V14.25ZM18.5799 13.1333C18.5799 13.7256 18.0751 14.25 17.3969 14.25V15.75C18.8538 15.75 20.0799 14.6029 20.0799 13.1333H18.5799ZM17.3969 12.0167C18.0751 12.0167 18.5799 12.5411 18.5799 13.1333H20.0799C20.0799 11.6637 18.8538 10.5167 17.3969 10.5167V12.0167ZM17.3969 10.5167C15.94 10.5167 14.7139 11.6637 14.7139 13.1333H16.2139C16.2139 12.5411 16.7186 12.0167 17.3969 12.0167V10.5167ZM19.3299 13.8833H20.0335V12.3833H19.3299V13.8833ZM21.75 7.86748C21.75 7.47059 21.6072 7.08964 21.3517 6.78921L20.2091 7.76101C20.2375 7.7945 20.25 7.83227 20.25 7.86748H21.75ZM20.25 12.2C20.25 12.2768 20.178 12.3833 20.0335 12.3833V13.8833C20.9566 13.8833 21.75 13.1541 21.75 12.2H20.25ZM7.28221 13.8833H15.4639V12.3833H7.28221V13.8833ZM14.2809 13.1333V7.86748H12.7809V13.1333H14.2809ZM14.2809 7.86748V2.73333H12.7809V7.86748H14.2809ZM21 7.11748H13.5309V8.61748H21V7.11748ZM17.591 4.63177L20.2052 7.75637L21.3556 6.79385L18.7414 3.66924L17.591 4.63177Z" fill="#00134D"/>
</svg>
