<svg width="20" height="21" viewBox="0 0 20 21" fill="none" xmlns="http://www.w3.org/2000/svg">
<path d="M5.7474 17.7891C6.9974 18.5391 8.4974 18.9557 9.9974 18.9557C14.5807 18.9557 18.3307 15.2057 18.3307 10.6224C18.3307 6.03906 14.5807 2.28906 9.9974 2.28906C5.41406 2.28906 1.66406 6.03906 1.66406 10.6224C1.66406 12.1224 2.08073 13.5391 2.7474 14.7891L2.10451 17.2617C1.90978 18.0107 2.60299 18.6875 3.34705 18.4749L5.7474 17.7891Z" stroke="#1DAD18" stroke-width="1.5" stroke-miterlimit="10" stroke-linecap="round" stroke-linejoin="round"/>
<path d="M13.75 12.9987C13.75 13.1337 13.72 13.2725 13.6561 13.4075C13.5923 13.5425 13.5096 13.67 13.4007 13.79C13.2167 13.9925 13.0139 14.1388 12.7848 14.2325C12.5595 14.3263 12.3153 14.375 12.0525 14.375C11.6694 14.375 11.26 14.285 10.8281 14.1012C10.3962 13.9175 9.96432 13.67 9.53618 13.3588C9.10428 13.0438 8.69492 12.695 8.30433 12.3087C7.9175 11.9187 7.56823 11.51 7.25651 11.0825C6.94855 10.655 6.70068 10.2275 6.52041 9.80375C6.34014 9.37625 6.25 8.9675 6.25 8.5775C6.25 8.3225 6.29507 8.07875 6.3852 7.85375C6.47534 7.625 6.61805 7.415 6.8171 7.2275C7.05746 6.99125 7.32036 6.875 7.59827 6.875C7.70343 6.875 7.80859 6.8975 7.90248 6.9425C8.00013 6.9875 8.0865 7.055 8.15411 7.1525L9.02541 8.37875C9.09301 8.4725 9.14184 8.55875 9.17564 8.64125C9.20944 8.72 9.22822 8.79875 9.22822 8.87C9.22822 8.96 9.20193 9.05 9.14935 9.13625C9.10053 9.2225 9.02917 9.3125 8.93903 9.4025L8.65361 9.69875C8.61229 9.74 8.59352 9.78875 8.59352 9.84875C8.59352 9.87875 8.59727 9.905 8.60478 9.935C8.61605 9.965 8.62732 9.9875 8.63483 10.01C8.70243 10.1337 8.81885 10.295 8.9841 10.49C9.1531 10.685 9.33337 10.8837 9.52867 11.0825C9.73147 11.2812 9.92677 11.465 10.1258 11.6337C10.3211 11.7987 10.4826 11.9112 10.6103 11.9787C10.6291 11.9862 10.6516 11.9975 10.6779 12.0087C10.7079 12.02 10.738 12.0237 10.7718 12.0237C10.8356 12.0237 10.8845 12.0013 10.9258 11.96L11.2112 11.6788C11.3051 11.585 11.3952 11.5137 11.4816 11.4687C11.568 11.4162 11.6544 11.39 11.7482 11.39C11.8196 11.39 11.8947 11.405 11.9773 11.4387C12.06 11.4725 12.1463 11.5212 12.2402 11.585L13.4834 12.4662C13.581 12.5337 13.6486 12.6125 13.6899 12.7062C13.7275 12.8 13.75 12.8937 13.75 12.9987Z" stroke="#1DAD18" stroke-width="1.5" stroke-miterlimit="10"/>
</svg>
