<svg width="474" height="191" viewBox="0 0 474 191" fill="none" xmlns="http://www.w3.org/2000/svg">
<g clip-path="url(#clip0_2301_31095)">
<path d="M149.471 27H143.159V9.456H149.303C154.487 9.456 158.063 13.032 158.063 18.264C158.063 23.424 154.559 27 149.471 27ZM149.015 12.288H146.231V24.168H149.183C152.687 24.168 154.823 21.912 154.823 18.264C154.823 14.544 152.639 12.288 149.015 12.288ZM165.82 27.312C162.292 27.312 159.82 24.744 159.82 21.072C159.82 17.352 162.244 14.784 165.724 14.784C169.276 14.784 171.532 17.16 171.532 20.856V21.744L162.604 21.768C162.82 23.856 163.924 24.912 165.868 24.912C167.476 24.912 168.532 24.288 168.868 23.16H171.58C171.076 25.752 168.916 27.312 165.82 27.312ZM165.748 17.184C164.02 17.184 162.964 18.12 162.676 19.896H168.628C168.628 18.264 167.5 17.184 165.748 17.184ZM172.988 23.4H175.772C175.796 24.432 176.564 25.08 177.908 25.08C179.276 25.08 180.02 24.528 180.02 23.664C180.02 23.064 179.708 22.632 178.652 22.392L176.516 21.888C174.38 21.408 173.348 20.4 173.348 18.504C173.348 16.176 175.316 14.784 178.052 14.784C180.716 14.784 182.516 16.32 182.54 18.624H179.756C179.732 17.616 179.06 16.968 177.932 16.968C176.78 16.968 176.108 17.496 176.108 18.384C176.108 19.056 176.636 19.488 177.644 19.728L179.78 20.232C181.772 20.688 182.78 21.6 182.78 23.424C182.78 25.824 180.74 27.312 177.812 27.312C174.86 27.312 172.988 25.728 172.988 23.4ZM184.337 21.048C184.337 17.376 186.761 14.784 190.265 14.784C193.505 14.784 195.713 16.584 196.025 19.44H193.097C192.761 18.096 191.777 17.4 190.385 17.4C188.513 17.4 187.265 18.816 187.265 21.048C187.265 23.28 188.417 24.672 190.289 24.672C191.753 24.672 192.785 23.952 193.097 22.656H196.049C195.689 25.416 193.385 27.312 190.289 27.312C186.689 27.312 184.337 24.816 184.337 21.048ZM205.692 15.096V17.808H204.612C202.5 17.808 201.18 18.936 201.18 21.24V27H198.252V15.168H201.012L201.18 16.896C201.684 15.72 202.812 14.928 204.396 14.928C204.804 14.928 205.212 14.976 205.692 15.096ZM209.162 12.768C208.154 12.768 207.362 11.976 207.362 10.992C207.362 10.008 208.154 9.24 209.162 9.24C210.122 9.24 210.914 10.008 210.914 10.992C210.914 11.976 210.122 12.768 209.162 12.768ZM207.698 27V15.144H210.626V27H207.698ZM216.387 27H213.675V9.144H216.603V16.872C217.371 15.552 218.955 14.76 220.755 14.76C224.139 14.76 226.203 17.4 226.203 21.144C226.203 24.792 223.971 27.312 220.563 27.312C218.787 27.312 217.275 26.52 216.579 25.152L216.387 27ZM216.627 21.024C216.627 23.16 217.947 24.624 219.963 24.624C222.027 24.624 223.251 23.136 223.251 21.024C223.251 18.912 222.027 17.4 219.963 17.4C217.947 17.4 216.627 18.888 216.627 21.024ZM233.863 27.312C230.335 27.312 227.863 24.744 227.863 21.072C227.863 17.352 230.287 14.784 233.767 14.784C237.319 14.784 239.575 17.16 239.575 20.856V21.744L230.647 21.768C230.863 23.856 231.967 24.912 233.911 24.912C235.519 24.912 236.575 24.288 236.911 23.16H239.623C239.119 25.752 236.959 27.312 233.863 27.312ZM233.791 17.184C232.063 17.184 231.007 18.12 230.719 19.896H236.671C236.671 18.264 235.543 17.184 233.791 17.184ZM247.403 32.496V30.048H249.155C250.307 30.048 251.027 29.784 251.531 28.392L251.867 27.504L247.091 15.144H250.187L253.235 23.784L256.451 15.144H259.475L253.667 29.64C252.779 31.848 251.531 32.76 249.587 32.76C248.771 32.76 248.051 32.664 247.403 32.496ZM259.927 21.048C259.927 17.352 262.591 14.808 266.263 14.808C269.935 14.808 272.599 17.352 272.599 21.048C272.599 24.744 269.935 27.288 266.263 27.288C262.591 27.288 259.927 24.744 259.927 21.048ZM262.855 21.048C262.855 23.208 264.247 24.672 266.263 24.672C268.279 24.672 269.671 23.208 269.671 21.048C269.671 18.888 268.279 17.424 266.263 17.424C264.247 17.424 262.855 18.888 262.855 21.048ZM282.702 15.144H285.63V27H282.918L282.702 25.416C281.982 26.544 280.446 27.312 278.862 27.312C276.126 27.312 274.518 25.464 274.518 22.56V15.144H277.446V21.528C277.446 23.784 278.334 24.696 279.966 24.696C281.814 24.696 282.702 23.616 282.702 21.36V15.144ZM296.119 15.096V17.808H295.039C292.927 17.808 291.607 18.936 291.607 21.24V27H288.679V15.168H291.439L291.607 16.896C292.111 15.72 293.239 14.928 294.823 14.928C295.231 14.928 295.639 14.976 296.119 15.096ZM306.561 27H303.369L309.705 9.456H312.849L319.185 27H315.945L314.529 22.944H307.977L306.561 27ZM310.881 14.688L308.889 20.352H313.641L311.625 14.688C311.481 14.232 311.313 13.704 311.265 13.344C311.193 13.68 311.049 14.208 310.881 14.688ZM325.31 27.312C321.878 27.312 319.742 24.792 319.742 21.12C319.742 17.424 321.902 14.784 325.478 14.784C327.134 14.784 328.598 15.48 329.342 16.656V9.144H332.246V27H329.558L329.366 25.152C328.646 26.52 327.11 27.312 325.31 27.312ZM325.958 24.624C327.998 24.624 329.318 23.16 329.318 21.024C329.318 18.888 327.998 17.4 325.958 17.4C323.918 17.4 322.67 18.912 322.67 21.024C322.67 23.136 323.918 24.624 325.958 24.624Z" fill="#101828"/>
</g>
<g clip-path="url(#clip1_2301_31095)">
<path d="M43.2214 64H41.6854V52.432H43.2214L47.2054 62.16L51.1894 52.432H52.7574V64H51.2214V59.424C51.2214 57.264 51.2374 56.48 51.3174 55.664L47.9414 64H46.4694L43.1094 55.696C43.1894 56.256 43.2214 57.44 43.2214 59.056V64ZM57.4991 64.192C55.8191 64.192 54.8271 63.248 54.8271 61.824C54.8271 60.384 55.8991 59.488 57.7391 59.344L60.2031 59.152V58.928C60.2031 57.616 59.4191 57.152 58.3631 57.152C57.0991 57.152 56.3791 57.712 56.3791 58.656H55.0671C55.0671 57.024 56.4111 55.952 58.4271 55.952C60.3631 55.952 61.6751 56.976 61.6751 59.088V64H60.3951L60.2351 62.736C59.8351 63.632 58.7631 64.192 57.4991 64.192ZM57.9311 63.024C59.3551 63.024 60.2191 62.096 60.2191 60.624V60.208L58.2191 60.368C56.8911 60.496 56.3471 61.008 56.3471 61.776C56.3471 62.608 56.9551 63.024 57.9311 63.024ZM65.3099 64H63.8059V52.224H65.3099V59.856L68.7819 56.176H70.6699L67.6779 59.296L70.6539 64H68.9259L66.6379 60.384L65.3099 61.776V64ZM74.9941 64.192C72.6901 64.192 71.1061 62.528 71.1061 60.096C71.1061 57.648 72.6581 55.952 74.9301 55.952C77.1541 55.952 78.6101 57.488 78.6101 59.808V60.368L72.5621 60.384C72.6741 62.032 73.5381 62.944 75.0261 62.944C76.1941 62.944 76.9621 62.464 77.2181 61.568H78.6261C78.2421 63.248 76.9301 64.192 74.9941 64.192ZM74.9301 57.216C73.6181 57.216 72.7861 58 72.5941 59.376H77.1061C77.1061 58.08 76.2581 57.216 74.9301 57.216ZM83.9449 67.504V66.272H84.9529C85.6729 66.272 86.2489 66.16 86.6169 65.168L86.8889 64.416L83.7369 56.176H85.3209L87.5929 62.48L89.9129 56.176H91.4649L87.7689 65.76C87.2409 67.104 86.4569 67.664 85.2569 67.664C84.7609 67.664 84.3449 67.6 83.9449 67.504ZM91.8728 60.08C91.8728 57.664 93.6008 55.968 95.9528 55.968C98.2888 55.968 100.017 57.664 100.017 60.08C100.017 62.496 98.2888 64.192 95.9528 64.192C93.6008 64.192 91.8728 62.496 91.8728 60.08ZM93.3928 60.08C93.3928 61.712 94.4328 62.848 95.9528 62.848C97.4568 62.848 98.5128 61.712 98.5128 60.08C98.5128 58.448 97.4568 57.312 95.9528 57.312C94.4328 57.312 93.3928 58.448 93.3928 60.08ZM106.918 56.176H108.406V64H107.062L106.902 62.816C106.454 63.632 105.414 64.192 104.262 64.192C102.438 64.192 101.414 62.96 101.414 61.04V56.176H102.918V60.544C102.918 62.224 103.638 62.864 104.79 62.864C106.166 62.864 106.918 61.984 106.918 60.304V56.176ZM115.084 56.112V57.488H114.412C112.988 57.488 112.108 58.352 112.108 59.856V64H110.604V56.192H112.012L112.108 57.376C112.428 56.56 113.212 56.016 114.284 56.016C114.556 56.016 114.78 56.048 115.084 56.112ZM124.038 64.192C121.766 64.192 120.39 62.496 120.39 60.112C120.39 57.712 121.782 55.952 124.102 55.952C125.302 55.952 126.31 56.48 126.838 57.44V52.224H128.326V64H126.982L126.854 62.576C126.342 63.648 125.286 64.192 124.038 64.192ZM124.342 62.832C125.878 62.832 126.822 61.696 126.822 60.064C126.822 58.464 125.878 57.312 124.342 57.312C122.806 57.312 121.91 58.464 121.91 60.064C121.91 61.68 122.806 62.832 124.342 62.832ZM133.888 64.192C131.584 64.192 130 62.528 130 60.096C130 57.648 131.552 55.952 133.824 55.952C136.048 55.952 137.504 57.488 137.504 59.808V60.368L131.456 60.384C131.568 62.032 132.432 62.944 133.92 62.944C135.088 62.944 135.856 62.464 136.112 61.568H137.52C137.136 63.248 135.824 64.192 133.888 64.192ZM133.824 57.216C132.512 57.216 131.68 58 131.488 59.376H136C136 58.08 135.152 57.216 133.824 57.216ZM138.56 61.728H140C140 62.528 140.608 63.008 141.6 63.008C142.656 63.008 143.264 62.576 143.264 61.856C143.264 61.328 143.008 61.008 142.192 60.8L140.816 60.48C139.424 60.144 138.768 59.456 138.768 58.304C138.768 56.864 139.984 55.952 141.712 55.952C143.424 55.952 144.544 56.912 144.576 58.4H143.136C143.104 57.616 142.576 57.12 141.664 57.12C140.72 57.12 140.192 57.536 140.192 58.256C140.192 58.784 140.576 59.136 141.344 59.328L142.72 59.664C144.048 59.984 144.704 60.592 144.704 61.76C144.704 63.248 143.424 64.192 141.568 64.192C139.728 64.192 138.56 63.216 138.56 61.728ZM145.875 60.096C145.875 57.648 147.427 55.952 149.715 55.952C151.683 55.952 153.059 57.072 153.331 58.816H151.827C151.571 57.824 150.771 57.296 149.763 57.296C148.339 57.296 147.363 58.384 147.363 60.08C147.363 61.76 148.275 62.848 149.699 62.848C150.771 62.848 151.571 62.288 151.843 61.36H153.347C153.043 63.056 151.587 64.192 149.699 64.192C147.395 64.192 145.875 62.56 145.875 60.096ZM159.43 56.112V57.488H158.758C157.334 57.488 156.454 58.352 156.454 59.856V64H154.95V56.192H156.358L156.454 57.376C156.774 56.56 157.558 56.016 158.63 56.016C158.902 56.016 159.126 56.048 159.43 56.112ZM161.593 54.32C161.049 54.32 160.601 53.872 160.601 53.328C160.601 52.768 161.049 52.336 161.593 52.336C162.137 52.336 162.585 52.768 162.585 53.328C162.585 53.872 162.137 54.32 161.593 54.32ZM160.857 64V56.176H162.361V64H160.857ZM164.56 67.504V56.176H165.92L166.032 57.584C166.56 56.512 167.616 55.952 168.864 55.952C171.104 55.952 172.496 57.632 172.496 60.032C172.496 62.416 171.184 64.208 168.864 64.208C167.616 64.208 166.576 63.68 166.064 62.72V67.504H164.56ZM166.08 60.096C166.08 61.696 167.008 62.848 168.544 62.848C170.08 62.848 170.992 61.696 170.992 60.096C170.992 58.48 170.08 57.328 168.544 57.328C167.008 57.328 166.08 58.464 166.08 60.096ZM176.3 64H174.796V57.44H173.26V56.176H174.796V53.728H176.3V56.176H177.836V57.44H176.3V64ZM179.938 54.32C179.394 54.32 178.946 53.872 178.946 53.328C178.946 52.768 179.394 52.336 179.938 52.336C180.482 52.336 180.93 52.768 180.93 53.328C180.93 53.872 180.482 54.32 179.938 54.32ZM179.202 64V56.176H180.706V64H179.202ZM182.393 60.08C182.393 57.664 184.121 55.968 186.473 55.968C188.809 55.968 190.537 57.664 190.537 60.08C190.537 62.496 188.809 64.192 186.473 64.192C184.121 64.192 182.393 62.496 182.393 60.08ZM183.913 60.08C183.913 61.712 184.953 62.848 186.473 62.848C187.977 62.848 189.033 61.712 189.033 60.08C189.033 58.448 187.977 57.312 186.473 57.312C184.953 57.312 183.913 58.448 183.913 60.08ZM193.722 64H192.218V56.176H193.578L193.738 57.376C194.234 56.48 195.226 55.952 196.33 55.952C198.394 55.952 199.338 57.216 199.338 59.216V64H197.834V59.552C197.834 57.968 197.098 57.328 195.946 57.328C194.538 57.328 193.722 58.336 193.722 59.856V64ZM205.188 61.728H206.628C206.628 62.528 207.236 63.008 208.228 63.008C209.284 63.008 209.892 62.576 209.892 61.856C209.892 61.328 209.636 61.008 208.82 60.8L207.444 60.48C206.052 60.144 205.396 59.456 205.396 58.304C205.396 56.864 206.612 55.952 208.34 55.952C210.052 55.952 211.172 56.912 211.204 58.4H209.764C209.732 57.616 209.204 57.12 208.292 57.12C207.348 57.12 206.82 57.536 206.82 58.256C206.82 58.784 207.204 59.136 207.972 59.328L209.348 59.664C210.676 59.984 211.332 60.592 211.332 61.76C211.332 63.248 210.052 64.192 208.196 64.192C206.356 64.192 205.188 63.216 205.188 61.728ZM214.52 63.984H213.016V52.224H214.52V57.376C215.016 56.528 215.96 55.952 217.176 55.952C219.176 55.952 220.136 57.216 220.136 59.216V64H218.632V59.552C218.632 57.968 217.88 57.328 216.76 57.328C215.304 57.328 214.52 58.384 214.52 59.728V63.984ZM221.723 60.08C221.723 57.664 223.451 55.968 225.803 55.968C228.139 55.968 229.867 57.664 229.867 60.08C229.867 62.496 228.139 64.192 225.803 64.192C223.451 64.192 221.723 62.496 221.723 60.08ZM223.243 60.08C223.243 61.712 224.283 62.848 225.803 62.848C227.307 62.848 228.363 61.712 228.363 60.08C228.363 58.448 227.307 57.312 225.803 57.312C224.283 57.312 223.243 58.448 223.243 60.08ZM236.028 56.112V57.488H235.356C233.932 57.488 233.052 58.352 233.052 59.856V64H231.548V56.192H232.956L233.052 57.376C233.372 56.56 234.156 56.016 235.228 56.016C235.5 56.016 235.724 56.048 236.028 56.112ZM239.975 64H238.471V57.44H236.935V56.176H238.471V53.728H239.975V56.176H241.511V57.44H239.975V64ZM244.649 63.376C244.649 64.528 243.785 65.488 242.649 65.632V64.96C243.305 64.848 243.769 64.416 243.769 63.92C243.657 63.984 243.529 64.016 243.337 64.016C242.809 64.016 242.361 63.632 242.361 63.04C242.361 62.4 242.793 61.936 243.433 61.936C244.105 61.936 244.649 62.496 244.649 63.376ZM251.958 54.32C251.414 54.32 250.966 53.872 250.966 53.328C250.966 52.768 251.414 52.336 251.958 52.336C252.502 52.336 252.95 52.768 252.95 53.328C252.95 53.872 252.502 54.32 251.958 54.32ZM251.222 64V56.176H252.726V64H251.222ZM256.429 64H254.925V56.176H256.285L256.445 57.376C256.941 56.48 257.933 55.952 259.037 55.952C261.101 55.952 262.045 57.216 262.045 59.216V64H260.541V59.552C260.541 57.968 259.805 57.328 258.653 57.328C257.245 57.328 256.429 58.336 256.429 59.856V64ZM263.312 56.176H264.464V54.928C264.464 53.008 265.52 52.224 266.944 52.224C267.232 52.224 267.568 52.24 267.872 52.288V53.584H267.2C266.224 53.584 265.968 54.08 265.968 54.928V56.176H267.824V57.44H265.968V64H264.464V57.44H263.312V56.176ZM268.492 60.08C268.492 57.664 270.22 55.968 272.572 55.968C274.908 55.968 276.636 57.664 276.636 60.08C276.636 62.496 274.908 64.192 272.572 64.192C270.22 64.192 268.492 62.496 268.492 60.08ZM270.012 60.08C270.012 61.712 271.052 62.848 272.572 62.848C274.076 62.848 275.132 61.712 275.132 60.08C275.132 58.448 274.076 57.312 272.572 57.312C271.052 57.312 270.012 58.448 270.012 60.08ZM282.797 56.112V57.488H282.125C280.701 57.488 279.821 58.352 279.821 59.856V64H278.317V56.192H279.725L279.821 57.376C280.141 56.56 280.925 56.016 281.997 56.016C282.269 56.016 282.493 56.048 282.797 56.112ZM285.727 64H284.223V56.176H285.567L285.711 57.2C286.111 56.464 286.943 55.952 288.047 55.952C289.263 55.952 290.127 56.56 290.527 57.536C290.895 56.56 291.839 55.952 293.055 55.952C294.847 55.952 295.935 57.072 295.935 58.88V64H294.463V59.248C294.463 58.016 293.775 57.312 292.719 57.312C291.583 57.312 290.831 58.112 290.831 59.36V64H289.343V59.232C289.343 58 288.671 57.328 287.615 57.328C286.479 57.328 285.727 58.112 285.727 59.36V64ZM300.324 64.192C298.644 64.192 297.652 63.248 297.652 61.824C297.652 60.384 298.724 59.488 300.564 59.344L303.028 59.152V58.928C303.028 57.616 302.244 57.152 301.188 57.152C299.924 57.152 299.204 57.712 299.204 58.656H297.892C297.892 57.024 299.236 55.952 301.252 55.952C303.188 55.952 304.5 56.976 304.5 59.088V64H303.22L303.06 62.736C302.66 63.632 301.588 64.192 300.324 64.192ZM300.756 63.024C302.18 63.024 303.044 62.096 303.044 60.624V60.208L301.044 60.368C299.716 60.496 299.172 61.008 299.172 61.776C299.172 62.608 299.78 63.024 300.756 63.024ZM308.682 64H307.178V57.44H305.642V56.176H307.178V53.728H308.682V56.176H310.218V57.44H308.682V64ZM312.32 54.32C311.776 54.32 311.328 53.872 311.328 53.328C311.328 52.768 311.776 52.336 312.32 52.336C312.864 52.336 313.312 52.768 313.312 53.328C313.312 53.872 312.864 54.32 312.32 54.32ZM311.584 64V56.176H313.088V64H311.584ZM317.479 64L314.327 56.176H315.927L317.639 60.544C317.911 61.28 318.135 61.936 318.263 62.416C318.391 61.904 318.647 61.232 318.919 60.544L320.663 56.176H322.231L318.967 64H317.479ZM326.461 64.192C324.157 64.192 322.573 62.528 322.573 60.096C322.573 57.648 324.125 55.952 326.397 55.952C328.621 55.952 330.077 57.488 330.077 59.808V60.368L324.029 60.384C324.141 62.032 325.005 62.944 326.493 62.944C327.661 62.944 328.429 62.464 328.685 61.568H330.093C329.709 63.248 328.397 64.192 326.461 64.192ZM326.397 57.216C325.085 57.216 324.253 58 324.061 59.376H328.573C328.573 58.08 327.725 57.216 326.397 57.216ZM338.452 64.192C336.772 64.192 335.78 63.248 335.78 61.824C335.78 60.384 336.852 59.488 338.692 59.344L341.156 59.152V58.928C341.156 57.616 340.372 57.152 339.316 57.152C338.052 57.152 337.332 57.712 337.332 58.656H336.02C336.02 57.024 337.364 55.952 339.38 55.952C341.316 55.952 342.628 56.976 342.628 59.088V64H341.348L341.188 62.736C340.788 63.632 339.716 64.192 338.452 64.192ZM338.884 63.024C340.308 63.024 341.172 62.096 341.172 60.624V60.208L339.172 60.368C337.844 60.496 337.3 61.008 337.3 61.776C337.3 62.608 337.908 63.024 338.884 63.024ZM346.23 64H344.726V56.176H346.086L346.246 57.376C346.742 56.48 347.734 55.952 348.838 55.952C350.902 55.952 351.846 57.216 351.846 59.216V64H350.342V59.552C350.342 57.968 349.606 57.328 348.454 57.328C347.046 57.328 346.23 58.336 346.23 59.856V64ZM357.082 64.192C354.81 64.192 353.434 62.496 353.434 60.112C353.434 57.712 354.826 55.952 357.146 55.952C358.346 55.952 359.354 56.48 359.882 57.44V52.224H361.37V64H360.026L359.898 62.576C359.386 63.648 358.33 64.192 357.082 64.192ZM357.386 62.832C358.922 62.832 359.866 61.696 359.866 60.064C359.866 58.464 358.922 57.312 357.386 57.312C355.85 57.312 354.954 58.464 354.954 60.064C354.954 61.68 355.85 62.832 357.386 62.832ZM370.234 64.192C368.554 64.192 367.562 63.248 367.562 61.824C367.562 60.384 368.634 59.488 370.474 59.344L372.938 59.152V58.928C372.938 57.616 372.154 57.152 371.098 57.152C369.834 57.152 369.114 57.712 369.114 58.656H367.802C367.802 57.024 369.146 55.952 371.162 55.952C373.098 55.952 374.41 56.976 374.41 59.088V64H373.13L372.97 62.736C372.57 63.632 371.498 64.192 370.234 64.192ZM370.666 63.024C372.09 63.024 372.954 62.096 372.954 60.624V60.208L370.954 60.368C369.626 60.496 369.082 61.008 369.082 61.776C369.082 62.608 369.69 63.024 370.666 63.024ZM378.592 64H377.088V57.44H375.552V56.176H377.088V53.728H378.592V56.176H380.128V57.44H378.592V64ZM383.843 64H382.339V57.44H380.803V56.176H382.339V53.728H383.843V56.176H385.379V57.44H383.843V64ZM391.224 56.112V57.488H390.552C389.128 57.488 388.248 58.352 388.248 59.856V64H386.744V56.192H388.152L388.248 57.376C388.568 56.56 389.352 56.016 390.424 56.016C390.696 56.016 390.92 56.048 391.224 56.112ZM394.626 64.192C392.946 64.192 391.954 63.248 391.954 61.824C391.954 60.384 393.026 59.488 394.866 59.344L397.33 59.152V58.928C397.33 57.616 396.546 57.152 395.49 57.152C394.226 57.152 393.506 57.712 393.506 58.656H392.194C392.194 57.024 393.538 55.952 395.554 55.952C397.49 55.952 398.802 56.976 398.802 59.088V64H397.522L397.362 62.736C396.962 63.632 395.89 64.192 394.626 64.192ZM395.058 63.024C396.482 63.024 397.346 62.096 397.346 60.624V60.208L395.346 60.368C394.018 60.496 393.474 61.008 393.474 61.776C393.474 62.608 394.082 63.024 395.058 63.024ZM400.389 60.096C400.389 57.648 401.941 55.952 404.229 55.952C406.197 55.952 407.573 57.072 407.845 58.816H406.341C406.085 57.824 405.285 57.296 404.277 57.296C402.853 57.296 401.877 58.384 401.877 60.08C401.877 61.76 402.789 62.848 404.213 62.848C405.285 62.848 406.085 62.288 406.357 61.36H407.861C407.557 63.056 406.101 64.192 404.213 64.192C401.909 64.192 400.389 62.56 400.389 60.096ZM411.672 64H410.168V57.44H408.632V56.176H410.168V53.728H411.672V56.176H413.208V57.44H411.672V64ZM415.31 54.32C414.766 54.32 414.318 53.872 414.318 53.328C414.318 52.768 414.766 52.336 415.31 52.336C415.854 52.336 416.302 52.768 416.302 53.328C416.302 53.872 415.854 54.32 415.31 54.32ZM414.574 64V56.176H416.078V64H414.574ZM420.469 64L417.317 56.176H418.917L420.629 60.544C420.901 61.28 421.125 61.936 421.253 62.416C421.381 61.904 421.637 61.232 421.909 60.544L423.653 56.176H425.221L421.957 64H420.469ZM429.451 64.192C427.147 64.192 425.563 62.528 425.563 60.096C425.563 57.648 427.115 55.952 429.387 55.952C431.611 55.952 433.067 57.488 433.067 59.808V60.368L427.019 60.384C427.131 62.032 427.995 62.944 429.483 62.944C430.651 62.944 431.419 62.464 431.675 61.568H433.083C432.699 63.248 431.387 64.192 429.451 64.192ZM429.387 57.216C428.075 57.216 427.243 58 427.051 59.376H431.563C431.563 58.08 430.715 57.216 429.387 57.216Z" fill="#667085"/>
</g>
<g filter="url(#filter0_d_2301_31095)">
<rect x="2.5" y="136.5" width="469" height="51" rx="4.5" stroke="#EAECF0"/>
<path d="M25.906 167.168C23.89 167.168 22.504 165.712 22.504 163.584C22.504 161.442 23.862 159.958 25.85 159.958C27.796 159.958 29.07 161.302 29.07 163.332V163.822L23.778 163.836C23.876 165.278 24.632 166.076 25.934 166.076C26.956 166.076 27.628 165.656 27.852 164.872H29.084C28.748 166.342 27.6 167.168 25.906 167.168ZM25.85 161.064C24.702 161.064 23.974 161.75 23.806 162.954H27.754C27.754 161.82 27.012 161.064 25.85 161.064ZM31.1101 167.168C30.5641 167.168 30.1021 166.72 30.1021 166.188C30.1021 165.642 30.5641 165.194 31.1101 165.194C31.6421 165.194 32.1041 165.642 32.1041 166.188C32.1041 166.72 31.6421 167.168 31.1101 167.168ZM33.3058 163.402C33.3058 161.47 34.5518 159.958 36.5398 159.958C37.6458 159.958 38.4998 160.462 38.9338 161.316L39.0318 160.154H40.2078V166.72C40.2078 168.876 38.8778 170.248 36.7778 170.248C34.9158 170.248 33.6418 169.198 33.3898 167.462H34.7058C34.8738 168.47 35.6298 169.058 36.7778 169.058C38.0658 169.058 38.9058 168.218 38.9058 166.916V165.544C38.4578 166.342 37.5618 166.818 36.4838 166.818C34.5378 166.818 33.3058 165.32 33.3058 163.402ZM34.6218 163.374C34.6218 164.662 35.4198 165.67 36.7078 165.67C38.0378 165.67 38.8498 164.718 38.8498 163.374C38.8498 162.058 38.0658 161.106 36.7218 161.106C35.4058 161.106 34.6218 162.114 34.6218 163.374ZM47.6291 158.11H45.5011V156.878H48.9451V167H47.6291V158.11ZM50.8107 161.946C50.8107 158.81 52.4347 156.682 54.9827 156.682C57.5167 156.682 59.1407 158.81 59.1407 161.946C59.1407 165.096 57.5867 167.182 54.9827 167.182C52.3647 167.182 50.8107 165.096 50.8107 161.946ZM52.1687 161.946C52.1687 164.438 53.2047 165.95 54.9827 165.95C56.7607 165.95 57.7827 164.438 57.7827 161.946C57.7827 159.426 56.7607 157.914 54.9827 157.914C53.2047 157.914 52.1687 159.426 52.1687 161.946ZM64.8638 167V156.878H68.7278C70.7018 156.878 71.9058 157.886 71.9058 159.552C71.9058 160.714 71.4018 161.498 70.3938 161.918C71.5138 162.282 72.0878 163.094 72.0878 164.298C72.0878 165.978 70.8698 167 68.8678 167H64.8638ZM68.6438 158.096H66.2358V161.344H68.7278C69.8618 161.344 70.5058 160.728 70.5058 159.678C70.5058 158.67 69.8338 158.096 68.6438 158.096ZM68.8398 162.534H66.2358V165.782H68.8398C70.0158 165.782 70.6738 165.18 70.6738 164.13C70.6738 163.122 70.0018 162.534 68.8398 162.534ZM76.5492 167.168C74.5332 167.168 73.1472 165.712 73.1472 163.584C73.1472 161.442 74.5052 159.958 76.4932 159.958C78.4392 159.958 79.7132 161.302 79.7132 163.332V163.822L74.4212 163.836C74.5192 165.278 75.2752 166.076 76.5772 166.076C77.5992 166.076 78.2712 165.656 78.4952 164.872H79.7273C79.3912 166.342 78.2432 167.168 76.5492 167.168ZM76.4932 161.064C75.3452 161.064 74.6172 161.75 74.4492 162.954H78.3972C78.3972 161.82 77.6552 161.064 76.4932 161.064ZM83.9411 167.168C81.9531 167.168 80.7491 165.684 80.7491 163.598C80.7491 161.498 81.9671 159.958 83.9971 159.958C85.0471 159.958 85.9291 160.42 86.3911 161.26V156.696H87.6931V167H86.5171L86.4051 165.754C85.9571 166.692 85.0331 167.168 83.9411 167.168ZM84.2071 165.978C85.5511 165.978 86.3771 164.984 86.3771 163.556C86.3771 162.156 85.5511 161.148 84.2071 161.148C82.8631 161.148 82.0791 162.156 82.0791 163.556C82.0791 164.97 82.8631 165.978 84.2071 165.978ZM93.5257 160.098V161.302H92.9377C91.6917 161.302 90.9217 162.058 90.9217 163.374V167H89.6057V160.168H90.8377L90.9217 161.204C91.2017 160.49 91.8877 160.014 92.8257 160.014C93.0637 160.014 93.2597 160.042 93.5257 160.098ZM94.0799 163.57C94.0799 161.456 95.5919 159.972 97.6499 159.972C99.6939 159.972 101.206 161.456 101.206 163.57C101.206 165.684 99.6939 167.168 97.6499 167.168C95.5919 167.168 94.0799 165.684 94.0799 163.57ZM95.4099 163.57C95.4099 164.998 96.3199 165.992 97.6499 165.992C98.9659 165.992 99.8899 164.998 99.8899 163.57C99.8899 162.142 98.9659 161.148 97.6499 161.148C96.3199 161.148 95.4099 162.142 95.4099 163.57ZM102.229 163.57C102.229 161.456 103.741 159.972 105.799 159.972C107.843 159.972 109.355 161.456 109.355 163.57C109.355 165.684 107.843 167.168 105.799 167.168C103.741 167.168 102.229 165.684 102.229 163.57ZM103.559 163.57C103.559 164.998 104.469 165.992 105.799 165.992C107.115 165.992 108.039 164.998 108.039 163.57C108.039 162.142 107.115 161.148 105.799 161.148C104.469 161.148 103.559 162.142 103.559 163.57ZM112.141 167H110.825V160.154H112.001L112.127 161.05C112.477 160.406 113.205 159.958 114.171 159.958C115.235 159.958 115.991 160.49 116.341 161.344C116.663 160.49 117.489 159.958 118.553 159.958C120.121 159.958 121.073 160.938 121.073 162.52V167H119.785V162.842C119.785 161.764 119.183 161.148 118.259 161.148C117.265 161.148 116.607 161.848 116.607 162.94V167H115.305V162.828C115.305 161.75 114.717 161.162 113.793 161.162C112.799 161.162 112.141 161.848 112.141 162.94V167ZM128.756 167.168C127.286 167.168 126.418 166.342 126.418 165.096C126.418 163.836 127.356 163.052 128.966 162.926L131.122 162.758V162.562C131.122 161.414 130.436 161.008 129.512 161.008C128.406 161.008 127.776 161.498 127.776 162.324H126.628C126.628 160.896 127.804 159.958 129.568 159.958C131.262 159.958 132.41 160.854 132.41 162.702V167H131.29L131.15 165.894C130.8 166.678 129.862 167.168 128.756 167.168ZM129.134 166.146C130.38 166.146 131.136 165.334 131.136 164.046V163.682L129.386 163.822C128.224 163.934 127.748 164.382 127.748 165.054C127.748 165.782 128.28 166.146 129.134 166.146ZM135.891 167L133.133 160.154H134.533L136.031 163.976C136.269 164.62 136.465 165.194 136.577 165.614C136.689 165.166 136.913 164.578 137.151 163.976L138.677 160.154H140.049L137.193 167H135.891ZM142.797 167.168C141.327 167.168 140.459 166.342 140.459 165.096C140.459 163.836 141.397 163.052 143.007 162.926L145.163 162.758V162.562C145.163 161.414 144.477 161.008 143.553 161.008C142.447 161.008 141.817 161.498 141.817 162.324H140.669C140.669 160.896 141.845 159.958 143.609 159.958C145.303 159.958 146.451 160.854 146.451 162.702V167H145.331L145.191 165.894C144.841 166.678 143.903 167.168 142.797 167.168ZM143.175 166.146C144.421 166.146 145.177 165.334 145.177 164.046V163.682L143.427 163.822C142.265 163.934 141.789 164.382 141.789 165.054C141.789 165.782 142.321 166.146 143.175 166.146ZM148.932 158.53C148.456 158.53 148.064 158.138 148.064 157.662C148.064 157.172 148.456 156.794 148.932 156.794C149.408 156.794 149.8 157.172 149.8 157.662C149.8 158.138 149.408 158.53 148.932 158.53ZM148.288 167V160.154H149.604V167H148.288ZM152.873 167H151.557V156.696H152.873V167ZM156.826 167.168C155.356 167.168 154.488 166.342 154.488 165.096C154.488 163.836 155.426 163.052 157.036 162.926L159.192 162.758V162.562C159.192 161.414 158.506 161.008 157.582 161.008C156.476 161.008 155.846 161.498 155.846 162.324H154.698C154.698 160.896 155.874 159.958 157.638 159.958C159.332 159.958 160.48 160.854 160.48 162.702V167H159.36L159.22 165.894C158.87 166.678 157.932 167.168 156.826 167.168ZM157.204 166.146C158.45 166.146 159.206 165.334 159.206 164.046V163.682L157.456 163.822C156.294 163.934 155.818 164.382 155.818 165.054C155.818 165.782 156.35 166.146 157.204 166.146ZM163.506 167H162.316V156.696H163.632V161.33C164.08 160.434 165.004 159.958 166.124 159.958C168.084 159.958 169.26 161.498 169.26 163.612C169.26 165.684 168.028 167.168 166.04 167.168C164.962 167.168 164.052 166.692 163.604 165.754L163.506 167ZM163.646 163.556C163.646 164.984 164.458 165.978 165.802 165.978C167.146 165.978 167.944 164.97 167.944 163.556C167.944 162.156 167.146 161.148 165.802 161.148C164.458 161.148 163.646 162.156 163.646 163.556ZM172.069 167H170.753V156.696H172.069V167ZM176.974 167.168C174.958 167.168 173.572 165.712 173.572 163.584C173.572 161.442 174.93 159.958 176.918 159.958C178.864 159.958 180.138 161.302 180.138 163.332V163.822L174.846 163.836C174.944 165.278 175.7 166.076 177.002 166.076C178.024 166.076 178.696 165.656 178.92 164.872H180.152C179.816 166.342 178.668 167.168 176.974 167.168ZM176.918 161.064C175.77 161.064 175.042 161.75 174.874 162.954H178.822C178.822 161.82 178.08 161.064 176.918 161.064ZM186.108 158.53C185.632 158.53 185.24 158.138 185.24 157.662C185.24 157.172 185.632 156.794 186.108 156.794C186.584 156.794 186.976 157.172 186.976 157.662C186.976 158.138 186.584 158.53 186.108 158.53ZM185.464 167V160.154H186.78V167H185.464ZM190.021 167H188.705V160.154H189.895L190.035 161.204C190.469 160.42 191.337 159.958 192.303 159.958C194.109 159.958 194.935 161.064 194.935 162.814V167H193.619V163.108C193.619 161.722 192.975 161.162 191.967 161.162C190.735 161.162 190.021 162.044 190.021 163.374V167ZM204.184 167H200.838V156.878H204.128C207.152 156.878 209.196 158.922 209.196 161.946C209.196 164.956 207.18 167 204.184 167ZM204.03 158.138H202.21V165.726H204.086C206.34 165.726 207.768 164.27 207.768 161.946C207.768 159.594 206.34 158.138 204.03 158.138ZM215.463 160.154H216.765V167H215.589L215.449 165.964C215.057 166.678 214.147 167.168 213.139 167.168C211.543 167.168 210.647 166.09 210.647 164.41V160.154H211.963V163.976C211.963 165.446 212.593 166.006 213.601 166.006C214.805 166.006 215.463 165.236 215.463 163.766V160.154ZM219.878 167H218.688V156.696H220.004V161.33C220.452 160.434 221.376 159.958 222.496 159.958C224.456 159.958 225.632 161.498 225.632 163.612C225.632 165.684 224.4 167.168 222.412 167.168C221.334 167.168 220.424 166.692 219.976 165.754L219.878 167ZM220.018 163.556C220.018 164.984 220.83 165.978 222.174 165.978C223.518 165.978 224.316 164.97 224.316 163.556C224.316 162.156 223.518 161.148 222.174 161.148C220.83 161.148 220.018 162.156 220.018 163.556ZM229.099 167.168C227.629 167.168 226.761 166.342 226.761 165.096C226.761 163.836 227.699 163.052 229.309 162.926L231.465 162.758V162.562C231.465 161.414 230.779 161.008 229.855 161.008C228.749 161.008 228.119 161.498 228.119 162.324H226.971C226.971 160.896 228.147 159.958 229.911 159.958C231.605 159.958 232.753 160.854 232.753 162.702V167H231.633L231.493 165.894C231.143 166.678 230.205 167.168 229.099 167.168ZM229.477 166.146C230.723 166.146 231.479 165.334 231.479 164.046V163.682L229.729 163.822C228.567 163.934 228.091 164.382 228.091 165.054C228.091 165.782 228.623 166.146 229.477 166.146ZM235.233 158.53C234.757 158.53 234.365 158.138 234.365 157.662C234.365 157.172 234.757 156.794 235.233 156.794C235.709 156.794 236.101 157.172 236.101 157.662C236.101 158.138 235.709 158.53 235.233 158.53ZM234.589 167V160.154H235.905V167H234.589Z" fill="#98A2B3"/>
</g>
<defs>
<filter id="filter0_d_2301_31095" x="0" y="135" width="474" height="56" filterUnits="userSpaceOnUse" color-interpolation-filters="sRGB">
<feFlood flood-opacity="0" result="BackgroundImageFix"/>
<feColorMatrix in="SourceAlpha" type="matrix" values="0 0 0 0 0 0 0 0 0 0 0 0 0 0 0 0 0 0 127 0" result="hardAlpha"/>
<feOffset dy="1"/>
<feGaussianBlur stdDeviation="1"/>
<feColorMatrix type="matrix" values="0 0 0 0 0.0627451 0 0 0 0 0.0941176 0 0 0 0 0.156863 0 0 0 0.05 0"/>
<feBlend mode="normal" in2="BackgroundImageFix" result="effect1_dropShadow_2301_31095"/>
<feBlend mode="normal" in="SourceGraphic" in2="effect1_dropShadow_2301_31095" result="shape"/>
</filter>
<clipPath id="clip0_2301_31095">
<rect x="141" width="193" height="36" rx="5" fill="white"/>
</clipPath>
<clipPath id="clip1_2301_31095">
<rect x="40" y="44" width="394" height="28" rx="5" fill="white"/>
</clipPath>
</defs>
</svg>
