<svg width="807" height="208" viewBox="0 0 807 208" fill="none" xmlns="http://www.w3.org/2000/svg">
<g clip-path="url(#clip0_2301_31094)">
<path d="M168.078 27H165.006V9.456H168.078V16.704H175.854V9.456H178.926V27H175.854V19.56H168.078V27ZM187.715 27.312C184.187 27.312 181.715 24.744 181.715 21.072C181.715 17.352 184.139 14.784 187.619 14.784C191.171 14.784 193.427 17.16 193.427 20.856V21.744L184.499 21.768C184.715 23.856 185.819 24.912 187.763 24.912C189.371 24.912 190.427 24.288 190.763 23.16H193.475C192.971 25.752 190.811 27.312 187.715 27.312ZM187.643 17.184C185.915 17.184 184.859 18.12 184.571 19.896H190.523C190.523 18.264 189.395 17.184 187.643 17.184ZM198.746 27H195.842V9.144H198.746V27ZM204.793 27H201.889V9.144H204.793V27ZM207.193 21.048C207.193 17.352 209.857 14.808 213.529 14.808C217.201 14.808 219.865 17.352 219.865 21.048C219.865 24.744 217.201 27.288 213.529 27.288C209.857 27.288 207.193 24.744 207.193 21.048ZM210.121 21.048C210.121 23.208 211.513 24.672 213.529 24.672C215.545 24.672 216.937 23.208 216.937 21.048C216.937 18.888 215.545 17.424 213.529 17.424C211.513 17.424 210.121 18.888 210.121 21.048ZM225.395 25.944C225.395 27.936 223.955 29.52 222.011 29.76V28.584C223.091 28.392 223.907 27.744 223.907 26.904C223.715 27 223.499 27.048 223.211 27.048C222.275 27.048 221.507 26.352 221.507 25.392C221.507 24.24 222.251 23.472 223.331 23.472C224.531 23.472 225.395 24.456 225.395 25.944ZM237.6 27L233.76 15.144H236.808L238.368 20.232C238.632 21.168 238.872 22.2 239.088 23.304C239.304 22.152 239.52 21.408 239.904 20.232L241.536 15.144H244.512L246.096 20.232C246.24 20.712 246.72 22.488 246.864 23.28C247.056 22.392 247.44 20.976 247.656 20.232L249.24 15.144H252.336L248.232 27H245.496L243.864 21.864C243.384 20.304 243.12 19.176 243.024 18.576C242.904 19.128 242.688 19.968 242.088 21.912L240.456 27H237.6ZM257.061 27H254.133V9.144H257.085V16.68C257.829 15.528 259.221 14.784 260.925 14.784C263.853 14.784 265.389 16.632 265.389 19.704V27H262.461V20.4C262.461 18.408 261.477 17.448 259.989 17.448C258.141 17.448 257.061 18.744 257.061 20.52V27ZM271.818 27.312C269.298 27.312 267.762 25.848 267.762 23.616C267.762 21.432 269.346 20.064 272.154 19.848L275.706 19.584V19.32C275.706 17.712 274.746 17.064 273.258 17.064C271.53 17.064 270.57 17.784 270.57 19.032H268.074C268.074 16.464 270.186 14.784 273.402 14.784C276.594 14.784 278.562 16.512 278.562 19.8V27H275.994L275.778 25.248C275.274 26.472 273.666 27.312 271.818 27.312ZM272.778 25.104C274.578 25.104 275.73 24.024 275.73 22.2V21.576L273.258 21.768C271.434 21.936 270.738 22.536 270.738 23.496C270.738 24.576 271.458 25.104 272.778 25.104ZM285.33 27H282.402V17.592H280.122V15.144H282.402V11.448H285.33V15.144H287.634V17.592H285.33V27ZM297.435 12.768C296.427 12.768 295.635 11.976 295.635 10.992C295.635 10.008 296.427 9.24 297.435 9.24C298.395 9.24 299.187 10.008 299.187 10.992C299.187 11.976 298.395 12.768 297.435 12.768ZM295.971 27V15.144H298.899V27H295.971ZM305.981 27H303.053V17.592H300.773V15.144H303.053V11.448H305.981V15.144H308.285V17.592H305.981V27ZM315.316 27.312C311.788 27.312 309.316 24.744 309.316 21.072C309.316 17.352 311.74 14.784 315.22 14.784C318.772 14.784 321.028 17.16 321.028 20.856V21.744L312.1 21.768C312.316 23.856 313.42 24.912 315.364 24.912C316.972 24.912 318.028 24.288 318.364 23.16H321.076C320.572 25.752 318.412 27.312 315.316 27.312ZM315.244 17.184C313.516 17.184 312.46 18.12 312.172 19.896H318.124C318.124 18.264 316.996 17.184 315.244 17.184ZM326.323 27H323.395V15.144H326.083L326.323 16.536C326.923 15.552 328.123 14.784 329.827 14.784C331.627 14.784 332.875 15.672 333.499 17.04C334.099 15.672 335.491 14.784 337.291 14.784C340.171 14.784 341.755 16.512 341.755 19.248V27H338.851V20.016C338.851 18.312 337.939 17.424 336.547 17.424C335.131 17.424 334.051 18.336 334.051 20.28V27H331.123V19.992C331.123 18.336 330.235 17.448 328.843 17.448C327.451 17.448 326.323 18.36 326.323 20.28V27ZM343.601 23.4H346.385C346.409 24.432 347.177 25.08 348.521 25.08C349.889 25.08 350.633 24.528 350.633 23.664C350.633 23.064 350.321 22.632 349.265 22.392L347.129 21.888C344.993 21.408 343.961 20.4 343.961 18.504C343.961 16.176 345.929 14.784 348.665 14.784C351.329 14.784 353.129 16.32 353.153 18.624H350.369C350.345 17.616 349.673 16.968 348.545 16.968C347.393 16.968 346.721 17.496 346.721 18.384C346.721 19.056 347.249 19.488 348.257 19.728L350.393 20.232C352.385 20.688 353.393 21.6 353.393 23.424C353.393 25.824 351.353 27.312 348.425 27.312C345.473 27.312 343.601 25.728 343.601 23.4ZM367.011 27.312C363.579 27.312 361.443 24.792 361.443 21.12C361.443 17.424 363.603 14.784 367.179 14.784C368.835 14.784 370.299 15.48 371.043 16.656V9.144H373.947V27H371.259L371.067 25.152C370.347 26.52 368.811 27.312 367.011 27.312ZM367.659 24.624C369.699 24.624 371.019 23.16 371.019 21.024C371.019 18.888 369.699 17.4 367.659 17.4C365.619 17.4 364.371 18.912 364.371 21.024C364.371 23.136 365.619 24.624 367.659 24.624ZM376.326 21.048C376.326 17.352 378.99 14.808 382.662 14.808C386.334 14.808 388.998 17.352 388.998 21.048C388.998 24.744 386.334 27.288 382.662 27.288C378.99 27.288 376.326 24.744 376.326 21.048ZM379.254 21.048C379.254 23.208 380.646 24.672 382.662 24.672C384.678 24.672 386.07 23.208 386.07 21.048C386.07 18.888 384.678 17.424 382.662 17.424C380.646 17.424 379.254 18.888 379.254 21.048ZM396.804 32.496V30.048H398.556C399.708 30.048 400.428 29.784 400.932 28.392L401.268 27.504L396.492 15.144H399.588L402.636 23.784L405.852 15.144H408.876L403.068 29.64C402.18 31.848 400.932 32.76 398.988 32.76C398.172 32.76 397.452 32.664 396.804 32.496ZM409.328 21.048C409.328 17.352 411.992 14.808 415.664 14.808C419.336 14.808 422 17.352 422 21.048C422 24.744 419.336 27.288 415.664 27.288C411.992 27.288 409.328 24.744 409.328 21.048ZM412.256 21.048C412.256 23.208 413.648 24.672 415.664 24.672C417.68 24.672 419.072 23.208 419.072 21.048C419.072 18.888 417.68 17.424 415.664 17.424C413.648 17.424 412.256 18.888 412.256 21.048ZM432.104 15.144H435.032V27H432.32L432.104 25.416C431.384 26.544 429.848 27.312 428.264 27.312C425.528 27.312 423.92 25.464 423.92 22.56V15.144H426.848V21.528C426.848 23.784 427.736 24.696 429.368 24.696C431.216 24.696 432.104 23.616 432.104 21.36V15.144ZM447.501 27H444.573V9.144H447.525V16.68C448.269 15.528 449.661 14.784 451.365 14.784C454.293 14.784 455.829 16.632 455.829 19.704V27H452.901V20.4C452.901 18.408 451.917 17.448 450.429 17.448C448.581 17.448 447.501 18.744 447.501 20.52V27ZM462.257 27.312C459.737 27.312 458.201 25.848 458.201 23.616C458.201 21.432 459.785 20.064 462.593 19.848L466.145 19.584V19.32C466.145 17.712 465.185 17.064 463.697 17.064C461.969 17.064 461.009 17.784 461.009 19.032H458.513C458.513 16.464 460.625 14.784 463.841 14.784C467.033 14.784 469.001 16.512 469.001 19.8V27H466.433L466.217 25.248C465.713 26.472 464.105 27.312 462.257 27.312ZM463.217 25.104C465.017 25.104 466.169 24.024 466.169 22.2V21.576L463.697 21.768C461.873 21.936 461.177 22.536 461.177 23.496C461.177 24.576 461.897 25.104 463.217 25.104ZM474.793 27L470.089 15.144H473.209L475.273 20.592C475.777 22.008 476.185 23.232 476.329 23.88C476.497 23.136 476.929 21.888 477.433 20.592L479.593 15.144H482.617L477.673 27H474.793ZM489.042 27.312C485.514 27.312 483.042 24.744 483.042 21.072C483.042 17.352 485.466 14.784 488.946 14.784C492.498 14.784 494.754 17.16 494.754 20.856V21.744L485.826 21.768C486.042 23.856 487.146 24.912 489.09 24.912C490.698 24.912 491.754 24.288 492.09 23.16H494.802C494.298 25.752 492.138 27.312 489.042 27.312ZM488.97 17.184C487.242 17.184 486.186 18.12 485.898 19.896H491.85C491.85 18.264 490.722 17.184 488.97 17.184ZM507.646 27H504.718V17.592H502.438V15.144H504.718V11.448H507.646V15.144H509.95V17.592H507.646V27ZM510.981 21.048C510.981 17.352 513.645 14.808 517.317 14.808C520.989 14.808 523.653 17.352 523.653 21.048C523.653 24.744 520.989 27.288 517.317 27.288C513.645 27.288 510.981 24.744 510.981 21.048ZM513.909 21.048C513.909 23.208 515.301 24.672 517.317 24.672C519.333 24.672 520.725 23.208 520.725 21.048C520.725 18.888 519.333 17.424 517.317 17.424C515.301 17.424 513.909 18.888 513.909 21.048ZM535.443 27H532.539V9.144H535.443V27ZM540.003 12.768C538.995 12.768 538.203 11.976 538.203 10.992C538.203 10.008 538.995 9.24 540.003 9.24C540.963 9.24 541.755 10.008 541.755 10.992C541.755 11.976 540.963 12.768 540.003 12.768ZM538.539 27V15.144H541.467V27H538.539ZM543.604 23.4H546.388C546.412 24.432 547.18 25.08 548.524 25.08C549.892 25.08 550.636 24.528 550.636 23.664C550.636 23.064 550.324 22.632 549.268 22.392L547.132 21.888C544.996 21.408 543.964 20.4 543.964 18.504C543.964 16.176 545.932 14.784 548.668 14.784C551.332 14.784 553.132 16.32 553.156 18.624H550.372C550.348 17.616 549.676 16.968 548.548 16.968C547.396 16.968 546.724 17.496 546.724 18.384C546.724 19.056 547.252 19.488 548.26 19.728L550.396 20.232C552.388 20.688 553.396 21.6 553.396 23.424C553.396 25.824 551.356 27.312 548.428 27.312C545.476 27.312 543.604 25.728 543.604 23.4ZM559.681 27H556.753V17.592H554.473V15.144H556.753V11.448H559.681V15.144H561.985V17.592H559.681V27ZM574.354 27H571.426V17.592H569.146V15.144H571.426V11.448H574.354V15.144H576.658V17.592H574.354V27ZM577.689 21.048C577.689 17.352 580.353 14.808 584.025 14.808C587.697 14.808 590.361 17.352 590.361 21.048C590.361 24.744 587.697 27.288 584.025 27.288C580.353 27.288 577.689 24.744 577.689 21.048ZM580.617 21.048C580.617 23.208 582.009 24.672 584.025 24.672C586.041 24.672 587.433 23.208 587.433 21.048C587.433 18.888 586.041 17.424 584.025 17.424C582.009 17.424 580.617 18.888 580.617 21.048ZM597.578 27.312C594.146 27.312 592.01 24.792 592.01 21.12C592.01 17.424 594.17 14.784 597.746 14.784C599.402 14.784 600.866 15.48 601.61 16.656V9.144H604.514V27H601.826L601.634 25.152C600.914 26.52 599.378 27.312 597.578 27.312ZM598.226 24.624C600.266 24.624 601.586 23.16 601.586 21.024C601.586 18.888 600.266 17.4 598.226 17.4C596.186 17.4 594.938 18.912 594.938 21.024C594.938 23.136 596.186 24.624 598.226 24.624ZM611.117 27.312C608.597 27.312 607.061 25.848 607.061 23.616C607.061 21.432 608.645 20.064 611.453 19.848L615.005 19.584V19.32C615.005 17.712 614.045 17.064 612.557 17.064C610.829 17.064 609.869 17.784 609.869 19.032H607.373C607.373 16.464 609.485 14.784 612.701 14.784C615.893 14.784 617.861 16.512 617.861 19.8V27H615.293L615.077 25.248C614.573 26.472 612.965 27.312 611.117 27.312ZM612.077 25.104C613.877 25.104 615.029 24.024 615.029 22.2V21.576L612.557 21.768C610.733 21.936 610.037 22.536 610.037 23.496C610.037 24.576 610.757 25.104 612.077 25.104ZM619.402 32.496V30.048H621.154C622.306 30.048 623.026 29.784 623.53 28.392L623.866 27.504L619.09 15.144H622.186L625.234 23.784L628.45 15.144H631.474L625.666 29.64C624.778 31.848 623.53 32.76 621.586 32.76C620.77 32.76 620.05 32.664 619.402 32.496ZM639.017 22.512H636.353V21.96C636.353 19.776 637.697 18.648 638.969 17.664C640.049 16.8 641.033 15.984 641.033 14.592C641.033 12.96 640.025 11.88 638.345 11.88C636.641 11.88 635.465 13.152 635.465 15H632.417C632.417 11.568 634.937 9.144 638.417 9.144C641.993 9.144 644.153 11.208 644.153 14.4C644.153 16.968 642.497 18.192 641.105 19.176C639.929 20.016 639.017 20.736 639.017 21.96V22.512ZM637.793 27.312C636.713 27.312 635.849 26.448 635.849 25.416C635.849 24.36 636.713 23.496 637.793 23.496C638.849 23.496 639.737 24.36 639.737 25.416C639.737 26.424 638.849 27.312 637.793 27.312Z" fill="#101828"/>
</g>
<g clip-path="url(#clip1_2301_31094)">
<path d="M253.261 64.176C249.965 64.176 247.773 61.808 247.773 58.224C247.773 54.656 250.029 52.24 253.341 52.24C255.949 52.24 257.949 53.792 258.381 56.16H256.701C256.269 54.656 254.973 53.744 253.293 53.744C250.957 53.744 249.421 55.504 249.421 58.208C249.421 60.912 250.957 62.672 253.293 62.672C254.989 62.672 256.333 61.76 256.765 60.336H258.429C257.933 62.64 255.869 64.176 253.261 64.176ZM261.538 63.984H260.034V52.224H261.538V57.376C262.034 56.528 262.978 55.952 264.194 55.952C266.194 55.952 267.154 57.216 267.154 59.216V64H265.65V59.552C265.65 57.968 264.898 57.328 263.778 57.328C262.322 57.328 261.538 58.384 261.538 59.728V63.984ZM268.741 60.08C268.741 57.664 270.469 55.968 272.821 55.968C275.157 55.968 276.885 57.664 276.885 60.08C276.885 62.496 275.157 64.192 272.821 64.192C270.469 64.192 268.741 62.496 268.741 60.08ZM270.261 60.08C270.261 61.712 271.301 62.848 272.821 62.848C274.325 62.848 275.381 61.712 275.381 60.08C275.381 58.448 274.325 57.312 272.821 57.312C271.301 57.312 270.261 58.448 270.261 60.08ZM278.054 60.08C278.054 57.664 279.782 55.968 282.134 55.968C284.47 55.968 286.198 57.664 286.198 60.08C286.198 62.496 284.47 64.192 282.134 64.192C279.782 64.192 278.054 62.496 278.054 60.08ZM279.574 60.08C279.574 61.712 280.614 62.848 282.134 62.848C283.638 62.848 284.694 61.712 284.694 60.08C284.694 58.448 283.638 57.312 282.134 57.312C280.614 57.312 279.574 58.448 279.574 60.08ZM287.239 61.728H288.679C288.679 62.528 289.287 63.008 290.279 63.008C291.335 63.008 291.943 62.576 291.943 61.856C291.943 61.328 291.687 61.008 290.871 60.8L289.495 60.48C288.103 60.144 287.447 59.456 287.447 58.304C287.447 56.864 288.663 55.952 290.391 55.952C292.103 55.952 293.223 56.912 293.255 58.4H291.815C291.783 57.616 291.255 57.12 290.343 57.12C289.399 57.12 288.871 57.536 288.871 58.256C288.871 58.784 289.255 59.136 290.023 59.328L291.399 59.664C292.727 59.984 293.383 60.592 293.383 61.76C293.383 63.248 292.103 64.192 290.247 64.192C288.407 64.192 287.239 63.216 287.239 61.728ZM298.442 64.192C296.138 64.192 294.554 62.528 294.554 60.096C294.554 57.648 296.106 55.952 298.378 55.952C300.602 55.952 302.058 57.488 302.058 59.808V60.368L296.01 60.384C296.122 62.032 296.986 62.944 298.474 62.944C299.642 62.944 300.41 62.464 300.666 61.568H302.074C301.69 63.248 300.378 64.192 298.442 64.192ZM298.378 57.216C297.066 57.216 296.234 58 296.042 59.376H300.554C300.554 58.08 299.706 57.216 298.378 57.216ZM310.353 64H308.849V57.44H307.313V56.176H308.849V53.728H310.353V56.176H311.889V57.44H310.353V64ZM314.759 63.984H313.255V52.224H314.759V57.376C315.255 56.528 316.199 55.952 317.415 55.952C319.415 55.952 320.375 57.216 320.375 59.216V64H318.871V59.552C318.871 57.968 318.119 57.328 316.999 57.328C315.543 57.328 314.759 58.384 314.759 59.728V63.984ZM325.85 64.192C323.546 64.192 321.962 62.528 321.962 60.096C321.962 57.648 323.514 55.952 325.786 55.952C328.01 55.952 329.466 57.488 329.466 59.808V60.368L323.418 60.384C323.53 62.032 324.394 62.944 325.882 62.944C327.05 62.944 327.818 62.464 328.074 61.568H329.482C329.098 63.248 327.786 64.192 325.85 64.192ZM325.786 57.216C324.474 57.216 323.642 58 323.45 59.376H327.962C327.962 58.08 327.114 57.216 325.786 57.216ZM335.041 60.096C335.041 57.648 336.593 55.952 338.881 55.952C340.849 55.952 342.225 57.072 342.497 58.816H340.993C340.737 57.824 339.937 57.296 338.929 57.296C337.505 57.296 336.529 58.384 336.529 60.08C336.529 61.76 337.441 62.848 338.865 62.848C339.937 62.848 340.737 62.288 341.009 61.36H342.513C342.209 63.056 340.753 64.192 338.865 64.192C336.561 64.192 335.041 62.56 335.041 60.096ZM346.404 64.192C344.724 64.192 343.732 63.248 343.732 61.824C343.732 60.384 344.804 59.488 346.644 59.344L349.108 59.152V58.928C349.108 57.616 348.324 57.152 347.268 57.152C346.004 57.152 345.284 57.712 345.284 58.656H343.972C343.972 57.024 345.316 55.952 347.332 55.952C349.268 55.952 350.58 56.976 350.58 59.088V64H349.3L349.14 62.736C348.74 63.632 347.668 64.192 346.404 64.192ZM346.836 63.024C348.26 63.024 349.124 62.096 349.124 60.624V60.208L347.124 60.368C345.796 60.496 345.252 61.008 345.252 61.776C345.252 62.608 345.86 63.024 346.836 63.024ZM354.762 64H353.258V57.44H351.722V56.176H353.258V53.728H354.762V56.176H356.298V57.44H354.762V64ZM360.961 64.192C358.657 64.192 357.073 62.528 357.073 60.096C357.073 57.648 358.625 55.952 360.897 55.952C363.121 55.952 364.577 57.488 364.577 59.808V60.368L358.529 60.384C358.641 62.032 359.505 62.944 360.993 62.944C362.161 62.944 362.929 62.464 363.185 61.568H364.593C364.209 63.248 362.897 64.192 360.961 64.192ZM360.897 57.216C359.585 57.216 358.753 58 358.561 59.376H363.073C363.073 58.08 362.225 57.216 360.897 57.216ZM365.777 59.888C365.777 57.68 367.201 55.952 369.473 55.952C370.737 55.952 371.713 56.528 372.209 57.504L372.321 56.176H373.665V63.68C373.665 66.144 372.145 67.712 369.745 67.712C367.617 67.712 366.161 66.512 365.873 64.528H367.377C367.569 65.68 368.433 66.352 369.745 66.352C371.217 66.352 372.177 65.392 372.177 63.904V62.336C371.665 63.248 370.641 63.792 369.409 63.792C367.185 63.792 365.777 62.08 365.777 59.888ZM367.281 59.856C367.281 61.328 368.193 62.48 369.665 62.48C371.185 62.48 372.113 61.392 372.113 59.856C372.113 58.352 371.217 57.264 369.681 57.264C368.177 57.264 367.281 58.416 367.281 59.856ZM375.34 60.08C375.34 57.664 377.068 55.968 379.42 55.968C381.756 55.968 383.484 57.664 383.484 60.08C383.484 62.496 381.756 64.192 379.42 64.192C377.068 64.192 375.34 62.496 375.34 60.08ZM376.86 60.08C376.86 61.712 377.9 62.848 379.42 62.848C380.924 62.848 381.98 61.712 381.98 60.08C381.98 58.448 380.924 57.312 379.42 57.312C377.9 57.312 376.86 58.448 376.86 60.08ZM389.645 56.112V57.488H388.973C387.549 57.488 386.669 58.352 386.669 59.856V64H385.165V56.192H386.573L386.669 57.376C386.989 56.56 387.773 56.016 388.845 56.016C389.117 56.016 389.341 56.048 389.645 56.112ZM390.554 67.504V66.272H391.562C392.282 66.272 392.858 66.16 393.226 65.168L393.498 64.416L390.346 56.176H391.93L394.202 62.48L396.522 56.176H398.074L394.378 65.76C393.85 67.104 393.066 67.664 391.866 67.664C391.37 67.664 390.954 67.6 390.554 67.504ZM405.889 64H404.385V57.44H402.849V56.176H404.385V53.728H405.889V56.176H407.425V57.44H405.889V64ZM410.295 63.984H408.791V52.224H410.295V57.376C410.791 56.528 411.735 55.952 412.951 55.952C414.951 55.952 415.911 57.216 415.911 59.216V64H414.407V59.552C414.407 57.968 413.655 57.328 412.535 57.328C411.079 57.328 410.295 58.384 410.295 59.728V63.984ZM420.298 64.192C418.618 64.192 417.626 63.248 417.626 61.824C417.626 60.384 418.698 59.488 420.538 59.344L423.002 59.152V58.928C423.002 57.616 422.218 57.152 421.162 57.152C419.898 57.152 419.178 57.712 419.178 58.656H417.866C417.866 57.024 419.21 55.952 421.226 55.952C423.162 55.952 424.474 56.976 424.474 59.088V64H423.194L423.034 62.736C422.634 63.632 421.562 64.192 420.298 64.192ZM420.73 63.024C422.154 63.024 423.018 62.096 423.018 60.624V60.208L421.018 60.368C419.69 60.496 419.146 61.008 419.146 61.776C419.146 62.608 419.754 63.024 420.73 63.024ZM428.656 64H427.152V57.44H425.616V56.176H427.152V53.728H428.656V56.176H430.192V57.44H428.656V64ZM437.309 64H435.949V52.224H437.453V57.52C437.965 56.496 439.021 55.952 440.301 55.952C442.541 55.952 443.885 57.712 443.885 60.128C443.885 62.496 442.477 64.192 440.205 64.192C438.973 64.192 437.933 63.648 437.421 62.576L437.309 64ZM437.469 60.064C437.469 61.696 438.397 62.832 439.933 62.832C441.469 62.832 442.381 61.68 442.381 60.064C442.381 58.464 441.469 57.312 439.933 57.312C438.397 57.312 437.469 58.464 437.469 60.064ZM448.935 64.192C446.631 64.192 445.047 62.528 445.047 60.096C445.047 57.648 446.599 55.952 448.871 55.952C451.095 55.952 452.551 57.488 452.551 59.808V60.368L446.503 60.384C446.615 62.032 447.479 62.944 448.967 62.944C450.135 62.944 450.903 62.464 451.159 61.568H452.567C452.183 63.248 450.871 64.192 448.935 64.192ZM448.871 57.216C447.559 57.216 446.727 58 446.535 59.376H451.047C451.047 58.08 450.199 57.216 448.871 57.216ZM453.607 61.728H455.047C455.047 62.528 455.655 63.008 456.647 63.008C457.703 63.008 458.311 62.576 458.311 61.856C458.311 61.328 458.055 61.008 457.239 60.8L455.863 60.48C454.471 60.144 453.815 59.456 453.815 58.304C453.815 56.864 455.031 55.952 456.759 55.952C458.471 55.952 459.591 56.912 459.623 58.4H458.183C458.151 57.616 457.623 57.12 456.711 57.12C455.767 57.12 455.239 57.536 455.239 58.256C455.239 58.784 455.623 59.136 456.391 59.328L457.767 59.664C459.095 59.984 459.751 60.592 459.751 61.76C459.751 63.248 458.471 64.192 456.615 64.192C454.775 64.192 453.607 63.216 453.607 61.728ZM463.642 64H462.138V57.44H460.602V56.176H462.138V53.728H463.642V56.176H465.178V57.44H463.642V64ZM470.295 61.728H471.735C471.735 62.528 472.343 63.008 473.335 63.008C474.391 63.008 474.999 62.576 474.999 61.856C474.999 61.328 474.743 61.008 473.927 60.8L472.551 60.48C471.159 60.144 470.503 59.456 470.503 58.304C470.503 56.864 471.719 55.952 473.447 55.952C475.159 55.952 476.279 56.912 476.311 58.4H474.871C474.839 57.616 474.311 57.12 473.399 57.12C472.455 57.12 471.927 57.536 471.927 58.256C471.927 58.784 472.311 59.136 473.079 59.328L474.455 59.664C475.783 59.984 476.439 60.592 476.439 61.76C476.439 63.248 475.159 64.192 473.303 64.192C471.463 64.192 470.295 63.216 470.295 61.728ZM483.531 56.176H485.019V64H483.675L483.515 62.816C483.067 63.632 482.027 64.192 480.875 64.192C479.051 64.192 478.027 62.96 478.027 61.04V56.176H479.531V60.544C479.531 62.224 480.251 62.864 481.403 62.864C482.779 62.864 483.531 61.984 483.531 60.304V56.176ZM487.953 54.32C487.409 54.32 486.961 53.872 486.961 53.328C486.961 52.768 487.409 52.336 487.953 52.336C488.497 52.336 488.945 52.768 488.945 53.328C488.945 53.872 488.497 54.32 487.953 54.32ZM487.217 64V56.176H488.721V64H487.217ZM493.129 64H491.625V57.44H490.089V56.176H491.625V53.728H493.129V56.176H494.665V57.44H493.129V64ZM495.39 61.728H496.83C496.83 62.528 497.438 63.008 498.43 63.008C499.486 63.008 500.094 62.576 500.094 61.856C500.094 61.328 499.838 61.008 499.022 60.8L497.646 60.48C496.254 60.144 495.598 59.456 495.598 58.304C495.598 56.864 496.814 55.952 498.542 55.952C500.254 55.952 501.374 56.912 501.406 58.4H499.966C499.934 57.616 499.406 57.12 498.494 57.12C497.55 57.12 497.022 57.536 497.022 58.256C497.022 58.784 497.406 59.136 498.174 59.328L499.55 59.664C500.878 59.984 501.534 60.592 501.534 61.76C501.534 63.248 500.254 64.192 498.398 64.192C496.558 64.192 495.39 63.216 495.39 61.728ZM506.857 67.504V66.272H507.865C508.585 66.272 509.161 66.16 509.529 65.168L509.801 64.416L506.649 56.176H508.233L510.505 62.48L512.825 56.176H514.377L510.681 65.76C510.153 67.104 509.369 67.664 508.169 67.664C507.673 67.664 507.257 67.6 506.857 67.504ZM514.785 60.08C514.785 57.664 516.513 55.968 518.865 55.968C521.201 55.968 522.929 57.664 522.929 60.08C522.929 62.496 521.201 64.192 518.865 64.192C516.513 64.192 514.785 62.496 514.785 60.08ZM516.305 60.08C516.305 61.712 517.345 62.848 518.865 62.848C520.369 62.848 521.425 61.712 521.425 60.08C521.425 58.448 520.369 57.312 518.865 57.312C517.345 57.312 516.305 58.448 516.305 60.08ZM529.831 56.176H531.319V64H529.975L529.815 62.816C529.367 63.632 528.327 64.192 527.175 64.192C525.351 64.192 524.327 62.96 524.327 61.04V56.176H525.831V60.544C525.831 62.224 526.551 62.864 527.703 62.864C529.079 62.864 529.831 61.984 529.831 60.304V56.176ZM537.997 56.112V57.488H537.325C535.901 57.488 535.021 58.352 535.021 59.856V64H533.517V56.192H534.925L535.021 57.376C535.341 56.56 536.125 56.016 537.197 56.016C537.469 56.016 537.693 56.048 537.997 56.112ZM546.102 64.192C544.422 64.192 543.43 63.248 543.43 61.824C543.43 60.384 544.502 59.488 546.342 59.344L548.806 59.152V58.928C548.806 57.616 548.022 57.152 546.966 57.152C545.702 57.152 544.982 57.712 544.982 58.656H543.67C543.67 57.024 545.014 55.952 547.03 55.952C548.966 55.952 550.278 56.976 550.278 59.088V64H548.998L548.838 62.736C548.438 63.632 547.366 64.192 546.102 64.192ZM546.534 63.024C547.958 63.024 548.822 62.096 548.822 60.624V60.208L546.822 60.368C545.494 60.496 544.95 61.008 544.95 61.776C544.95 62.608 545.558 63.024 546.534 63.024ZM555.513 64.192C553.241 64.192 551.865 62.496 551.865 60.112C551.865 57.712 553.257 55.952 555.577 55.952C556.777 55.952 557.785 56.48 558.313 57.44V52.224H559.801V64H558.457L558.329 62.576C557.817 63.648 556.761 64.192 555.513 64.192ZM555.817 62.832C557.353 62.832 558.297 61.696 558.297 60.064C558.297 58.464 557.353 57.312 555.817 57.312C554.281 57.312 553.385 58.464 553.385 60.064C553.385 61.68 554.281 62.832 555.817 62.832Z" fill="#667085"/>
</g>
<g filter="url(#filter0_dd_2301_31094)">
<rect x="12" y="136" width="188" height="48" rx="10" fill="white"/>
<rect x="12.5" y="136.5" width="187" height="47" rx="9.5" stroke="#EAECF0"/>
<path d="M31.666 168.333H48.3327" stroke="#475467" stroke-width="1.5" stroke-miterlimit="10" stroke-linecap="round" stroke-linejoin="round"/>
<path d="M32.459 168.333L32.5007 158.308C32.5007 157.8 32.7423 157.317 33.1423 157L38.9757 152.458C39.5757 151.992 40.4173 151.992 41.0257 152.458L46.859 156.992C47.2673 157.308 47.5007 157.792 47.5007 158.308V168.333" stroke="#475467" stroke-width="1.5" stroke-miterlimit="10" stroke-linejoin="round"/>
<path d="M42.9173 159.167H37.084C36.3923 159.167 35.834 159.725 35.834 160.417V168.334H44.1673V160.417C44.1673 159.725 43.609 159.167 42.9173 159.167Z" stroke="#475467" stroke-width="1.5" stroke-miterlimit="10" stroke-linecap="round" stroke-linejoin="round"/>
<path d="M38.334 163.542V164.792" stroke="#101828" stroke-width="1.5" stroke-miterlimit="10" stroke-linecap="round" stroke-linejoin="round"/>
<path d="M38.75 156.25H41.25" stroke="#101828" stroke-width="1.5" stroke-miterlimit="10" stroke-linecap="round" stroke-linejoin="round"/>
<path d="M65.84 161.872H62.912V166H61.344V154.432H65.84C68.112 154.432 69.568 155.92 69.568 158.144C69.568 160.304 68.096 161.872 65.84 161.872ZM65.568 155.84H62.912V160.464H65.504C67.056 160.464 67.92 159.552 67.92 158.128C67.92 156.672 67.04 155.84 65.568 155.84ZM75.584 158.112V159.488H74.912C73.488 159.488 72.608 160.352 72.608 161.856V166H71.104V158.192H72.512L72.608 159.376C72.928 158.56 73.712 158.016 74.784 158.016C75.056 158.016 75.28 158.048 75.584 158.112ZM76.2174 162.08C76.2174 159.664 77.9454 157.968 80.2974 157.968C82.6334 157.968 84.3614 159.664 84.3614 162.08C84.3614 164.496 82.6334 166.192 80.2974 166.192C77.9454 166.192 76.2174 164.496 76.2174 162.08ZM77.7374 162.08C77.7374 163.712 78.7774 164.848 80.2974 164.848C81.8014 164.848 82.8574 163.712 82.8574 162.08C82.8574 160.448 81.8014 159.312 80.2974 159.312C78.7774 159.312 77.7374 160.448 77.7374 162.08ZM86.0423 169.504V158.176H87.4023L87.5143 159.584C88.0423 158.512 89.0983 157.952 90.3463 157.952C92.5863 157.952 93.9783 159.632 93.9783 162.032C93.9783 164.416 92.6663 166.208 90.3463 166.208C89.0983 166.208 88.0583 165.68 87.5463 164.72V169.504H86.0423ZM87.5623 162.096C87.5623 163.696 88.4903 164.848 90.0263 164.848C91.5623 164.848 92.4743 163.696 92.4743 162.096C92.4743 160.48 91.5623 159.328 90.0263 159.328C88.4903 159.328 87.5623 160.464 87.5623 162.096ZM99.028 166.192C96.724 166.192 95.14 164.528 95.14 162.096C95.14 159.648 96.692 157.952 98.964 157.952C101.188 157.952 102.644 159.488 102.644 161.808V162.368L96.596 162.384C96.708 164.032 97.572 164.944 99.06 164.944C100.228 164.944 100.996 164.464 101.252 163.568H102.66C102.276 165.248 100.964 166.192 99.028 166.192ZM98.964 159.216C97.652 159.216 96.82 160 96.628 161.376H101.14C101.14 160.08 100.292 159.216 98.964 159.216ZM108.82 158.112V159.488H108.148C106.724 159.488 105.844 160.352 105.844 161.856V166H104.34V158.192H105.748L105.844 159.376C106.164 158.56 106.948 158.016 108.02 158.016C108.292 158.016 108.516 158.048 108.82 158.112ZM112.767 166H111.263V159.44H109.727V158.176H111.263V155.728H112.767V158.176H114.303V159.44H112.767V166ZM114.917 169.504V168.272H115.925C116.645 168.272 117.221 168.16 117.589 167.168L117.861 166.416L114.709 158.176H116.293L118.565 164.48L120.885 158.176H122.437L118.741 167.76C118.213 169.104 117.429 169.664 116.229 169.664C115.733 169.664 115.317 169.6 114.917 169.504ZM127.212 158.176H128.364V156.928C128.364 155.008 129.42 154.224 130.844 154.224C131.132 154.224 131.468 154.24 131.772 154.288V155.584H131.1C130.124 155.584 129.868 156.08 129.868 156.928V158.176H131.724V159.44H129.868V166H128.364V159.44H127.212V158.176ZM132.392 162.08C132.392 159.664 134.12 157.968 136.472 157.968C138.808 157.968 140.536 159.664 140.536 162.08C140.536 164.496 138.808 166.192 136.472 166.192C134.12 166.192 132.392 164.496 132.392 162.08ZM133.912 162.08C133.912 163.712 134.952 164.848 136.472 164.848C137.976 164.848 139.032 163.712 139.032 162.08C139.032 160.448 137.976 159.312 136.472 159.312C134.952 159.312 133.912 160.448 133.912 162.08ZM146.697 158.112V159.488H146.025C144.601 159.488 143.721 160.352 143.721 161.856V166H142.217V158.192H143.625L143.721 159.376C144.041 158.56 144.825 158.016 145.897 158.016C146.169 158.016 146.393 158.048 146.697 158.112ZM152.099 157.552C152.099 155.568 153.699 154.224 156.083 154.224C158.291 154.224 159.715 155.456 159.843 157.456H158.259C158.179 156.304 157.363 155.632 156.067 155.632C154.611 155.632 153.667 156.368 153.667 157.504C153.667 158.432 154.195 158.992 155.283 159.248L157.187 159.696C159.075 160.128 160.035 161.152 160.035 162.784C160.035 164.864 158.419 166.192 155.955 166.192C153.603 166.192 152.035 164.96 151.939 162.976H153.539C153.571 164.08 154.499 164.784 155.955 164.784C157.491 164.784 158.467 164.064 158.467 162.912C158.467 162 157.971 161.424 156.867 161.168L154.963 160.736C153.075 160.304 152.099 159.216 152.099 157.552ZM164.053 166.192C162.373 166.192 161.381 165.248 161.381 163.824C161.381 162.384 162.453 161.488 164.293 161.344L166.757 161.152V160.928C166.757 159.616 165.973 159.152 164.917 159.152C163.653 159.152 162.933 159.712 162.933 160.656H161.621C161.621 159.024 162.965 157.952 164.981 157.952C166.917 157.952 168.229 158.976 168.229 161.088V166H166.949L166.789 164.736C166.389 165.632 165.317 166.192 164.053 166.192ZM164.485 165.024C165.909 165.024 166.773 164.096 166.773 162.624V162.208L164.773 162.368C163.445 162.496 162.901 163.008 162.901 163.776C162.901 164.608 163.509 165.024 164.485 165.024ZM171.864 166H170.36V154.224H171.864V166ZM177.47 166.192C175.166 166.192 173.582 164.528 173.582 162.096C173.582 159.648 175.134 157.952 177.406 157.952C179.63 157.952 181.086 159.488 181.086 161.808V162.368L175.038 162.384C175.15 164.032 176.014 164.944 177.502 164.944C178.67 164.944 179.438 164.464 179.694 163.568H181.102C180.718 165.248 179.406 166.192 177.47 166.192ZM177.406 159.216C176.094 159.216 175.262 160 175.07 161.376H179.582C179.582 160.08 178.734 159.216 177.406 159.216Z" fill="#475467"/>
</g>
<g filter="url(#filter1_dd_2301_31094)">
<rect x="256" y="136" width="152" height="48" rx="10" fill="white"/>
<rect x="256.5" y="136.5" width="151" height="47" rx="9.5" stroke="#EAECF0"/>
<path d="M286.926 152.358H281.076C279.001 152.358 278.542 153.392 278.276 154.658L277.334 159.167H290.667L289.726 154.658C289.459 153.392 289.001 152.358 286.926 152.358Z" stroke="#475467" stroke-width="1.5" stroke-linecap="round" stroke-linejoin="round"/>
<path d="M292.325 166.517C292.417 167.492 291.634 168.334 290.634 168.334H289.067C288.167 168.334 288.042 167.95 287.884 167.475L287.717 166.975C287.484 166.292 287.334 165.834 286.134 165.834H281.867C280.667 165.834 280.492 166.35 280.284 166.975L280.117 167.475C279.959 167.95 279.834 168.334 278.934 168.334H277.367C276.367 168.334 275.584 167.492 275.675 166.517L276.142 161.442C276.259 160.192 276.5 159.167 278.684 159.167H289.317C291.5 159.167 291.742 160.192 291.859 161.442L292.325 166.517Z" stroke="#475467" stroke-width="1.5" stroke-linecap="round" stroke-linejoin="round"/>
<path d="M277.333 156.667H276.5" stroke="#475467" stroke-width="1.5" stroke-linecap="round" stroke-linejoin="round"/>
<path d="M291.499 156.667H290.666" stroke="#101828" stroke-width="1.5" stroke-linecap="round" stroke-linejoin="round"/>
<path d="M284 152.5V154.167" stroke="#101828" stroke-width="1.5" stroke-linecap="round" stroke-linejoin="round"/>
<path d="M282.75 154.167H285.25" stroke="#101828" stroke-width="1.5" stroke-linecap="round" stroke-linejoin="round"/>
<path d="M279 162.5H281.5" stroke="#101828" stroke-width="1.5" stroke-linecap="round" stroke-linejoin="round"/>
<path d="M286.5 162.5H289" stroke="#101828" stroke-width="1.5" stroke-linecap="round" stroke-linejoin="round"/>
<path d="M310.144 166.176C306.848 166.176 304.656 163.808 304.656 160.224C304.656 156.656 306.912 154.24 310.224 154.24C312.832 154.24 314.832 155.792 315.264 158.16H313.584C313.152 156.656 311.856 155.744 310.176 155.744C307.84 155.744 306.304 157.504 306.304 160.208C306.304 162.912 307.84 164.672 310.176 164.672C311.872 164.672 313.216 163.76 313.648 162.336H315.312C314.816 164.64 312.752 166.176 310.144 166.176ZM319.126 166.192C317.446 166.192 316.454 165.248 316.454 163.824C316.454 162.384 317.526 161.488 319.366 161.344L321.83 161.152V160.928C321.83 159.616 321.046 159.152 319.99 159.152C318.726 159.152 318.006 159.712 318.006 160.656H316.694C316.694 159.024 318.038 157.952 320.054 157.952C321.99 157.952 323.302 158.976 323.302 161.088V166H322.022L321.862 164.736C321.462 165.632 320.39 166.192 319.126 166.192ZM319.558 165.024C320.982 165.024 321.846 164.096 321.846 162.624V162.208L319.846 162.368C318.518 162.496 317.974 163.008 317.974 163.776C317.974 164.608 318.582 165.024 319.558 165.024ZM329.881 158.112V159.488H329.209C327.785 159.488 326.905 160.352 326.905 161.856V166H325.401V158.192H326.809L326.905 159.376C327.225 158.56 328.009 158.016 329.081 158.016C329.353 158.016 329.577 158.048 329.881 158.112ZM334.867 158.176H336.019V156.928C336.019 155.008 337.075 154.224 338.499 154.224C338.787 154.224 339.123 154.24 339.427 154.288V155.584H338.755C337.779 155.584 337.523 156.08 337.523 156.928V158.176H339.379V159.44H337.523V166H336.019V159.44H334.867V158.176ZM340.047 162.08C340.047 159.664 341.775 157.968 344.127 157.968C346.463 157.968 348.191 159.664 348.191 162.08C348.191 164.496 346.463 166.192 344.127 166.192C341.775 166.192 340.047 164.496 340.047 162.08ZM341.567 162.08C341.567 163.712 342.607 164.848 344.127 164.848C345.631 164.848 346.687 163.712 346.687 162.08C346.687 160.448 345.631 159.312 344.127 159.312C342.607 159.312 341.567 160.448 341.567 162.08ZM354.352 158.112V159.488H353.68C352.256 159.488 351.376 160.352 351.376 161.856V166H349.872V158.192H351.28L351.376 159.376C351.696 158.56 352.48 158.016 353.552 158.016C353.824 158.016 354.048 158.048 354.352 158.112ZM359.753 157.552C359.753 155.568 361.353 154.224 363.737 154.224C365.945 154.224 367.369 155.456 367.497 157.456H365.913C365.833 156.304 365.017 155.632 363.721 155.632C362.265 155.632 361.321 156.368 361.321 157.504C361.321 158.432 361.849 158.992 362.937 159.248L364.841 159.696C366.729 160.128 367.689 161.152 367.689 162.784C367.689 164.864 366.073 166.192 363.609 166.192C361.257 166.192 359.689 164.96 359.593 162.976H361.193C361.225 164.08 362.153 164.784 363.609 164.784C365.145 164.784 366.121 164.064 366.121 162.912C366.121 162 365.625 161.424 364.521 161.168L362.617 160.736C360.729 160.304 359.753 159.216 359.753 157.552ZM371.707 166.192C370.027 166.192 369.035 165.248 369.035 163.824C369.035 162.384 370.107 161.488 371.947 161.344L374.411 161.152V160.928C374.411 159.616 373.627 159.152 372.571 159.152C371.307 159.152 370.587 159.712 370.587 160.656H369.275C369.275 159.024 370.619 157.952 372.635 157.952C374.571 157.952 375.883 158.976 375.883 161.088V166H374.603L374.443 164.736C374.043 165.632 372.971 166.192 371.707 166.192ZM372.139 165.024C373.563 165.024 374.427 164.096 374.427 162.624V162.208L372.427 162.368C371.099 162.496 370.555 163.008 370.555 163.776C370.555 164.608 371.163 165.024 372.139 165.024ZM379.518 166H378.014V154.224H379.518V166ZM385.124 166.192C382.82 166.192 381.236 164.528 381.236 162.096C381.236 159.648 382.788 157.952 385.06 157.952C387.284 157.952 388.74 159.488 388.74 161.808V162.368L382.692 162.384C382.804 164.032 383.668 164.944 385.156 164.944C386.324 164.944 387.092 164.464 387.348 163.568H388.756C388.372 165.248 387.06 166.192 385.124 166.192ZM385.06 159.216C383.748 159.216 382.916 160 382.724 161.376H387.236C387.236 160.08 386.388 159.216 385.06 159.216Z" fill="#475467"/>
</g>
<g filter="url(#filter2_dd_2301_31094)">
<rect x="464" y="136" width="121" height="48" rx="10" fill="white"/>
<rect x="464.5" y="136.5" width="120" height="47" rx="9.5" stroke="#EAECF0"/>
<path d="M497.833 158.333H489.5V161.667H497.833V158.333ZM495.333 152.5H489.5V155.833H495.333V152.5ZM500.333 164.167H489.5V167.5H500.333V164.167Z" stroke="#475467" stroke-linejoin="round"/>
<path d="M489.084 154.167H484.084M489.084 160H484.084M489.084 165.834H484.084M484.084 168.334V151.667" stroke="#475467" stroke-linecap="round" stroke-linejoin="round"/>
<path d="M514.912 154.432V164.544H520V166H513.344V154.432H514.912ZM522.199 156.32C521.655 156.32 521.207 155.872 521.207 155.328C521.207 154.768 521.655 154.336 522.199 154.336C522.743 154.336 523.191 154.768 523.191 155.328C523.191 155.872 522.743 156.32 522.199 156.32ZM521.463 166V158.176H522.967V166H521.463ZM524.527 163.728H525.967C525.967 164.528 526.575 165.008 527.567 165.008C528.623 165.008 529.231 164.576 529.231 163.856C529.231 163.328 528.975 163.008 528.159 162.8L526.783 162.48C525.391 162.144 524.735 161.456 524.735 160.304C524.735 158.864 525.951 157.952 527.679 157.952C529.391 157.952 530.511 158.912 530.543 160.4H529.103C529.071 159.616 528.543 159.12 527.631 159.12C526.687 159.12 526.159 159.536 526.159 160.256C526.159 160.784 526.543 161.136 527.311 161.328L528.687 161.664C530.015 161.984 530.671 162.592 530.671 163.76C530.671 165.248 529.391 166.192 527.535 166.192C525.695 166.192 524.527 165.216 524.527 163.728ZM534.563 166H533.059V159.44H531.523V158.176H533.059V155.728H534.563V158.176H536.099V159.44H534.563V166ZM538.2 156.32C537.656 156.32 537.208 155.872 537.208 155.328C537.208 154.768 537.656 154.336 538.2 154.336C538.744 154.336 539.192 154.768 539.192 155.328C539.192 155.872 538.744 156.32 538.2 156.32ZM537.464 166V158.176H538.968V166H537.464ZM542.672 166H541.168V158.176H542.528L542.688 159.376C543.184 158.48 544.176 157.952 545.28 157.952C547.344 157.952 548.288 159.216 548.288 161.216V166H546.784V161.552C546.784 159.968 546.048 159.328 544.896 159.328C543.488 159.328 542.672 160.336 542.672 161.856V166ZM549.891 161.888C549.891 159.68 551.315 157.952 553.587 157.952C554.851 157.952 555.827 158.528 556.323 159.504L556.435 158.176H557.779V165.68C557.779 168.144 556.259 169.712 553.859 169.712C551.731 169.712 550.275 168.512 549.987 166.528H551.491C551.683 167.68 552.547 168.352 553.859 168.352C555.331 168.352 556.291 167.392 556.291 165.904V164.336C555.779 165.248 554.755 165.792 553.523 165.792C551.299 165.792 549.891 164.08 549.891 161.888ZM551.395 161.856C551.395 163.328 552.307 164.48 553.779 164.48C555.299 164.48 556.227 163.392 556.227 161.856C556.227 160.352 555.331 159.264 553.795 159.264C552.291 159.264 551.395 160.416 551.395 161.856ZM559.326 163.728H560.766C560.766 164.528 561.374 165.008 562.366 165.008C563.422 165.008 564.03 164.576 564.03 163.856C564.03 163.328 563.774 163.008 562.958 162.8L561.582 162.48C560.19 162.144 559.534 161.456 559.534 160.304C559.534 158.864 560.75 157.952 562.478 157.952C564.19 157.952 565.31 158.912 565.342 160.4H563.902C563.87 159.616 563.342 159.12 562.43 159.12C561.486 159.12 560.958 159.536 560.958 160.256C560.958 160.784 561.342 161.136 562.11 161.328L563.486 161.664C564.814 161.984 565.47 162.592 565.47 163.76C565.47 165.248 564.19 166.192 562.334 166.192C560.494 166.192 559.326 165.216 559.326 163.728Z" fill="#475467"/>
</g>
<g filter="url(#filter3_dd_2301_31094)">
<rect x="641" y="136" width="154" height="48" rx="10" fill="white"/>
<rect x="641.5" y="136.5" width="153" height="47" rx="9.5" stroke="#EAECF0"/>
<path d="M671.917 155.833V156.25H672.334H675.667C676.354 156.25 676.917 156.813 676.917 157.5V161.667C676.917 162.115 676.665 162.518 676.288 162.742L676.084 162.863V163.1V165.833C676.084 166.528 675.529 167.083 674.834 167.083H663.167C662.472 167.083 661.917 166.528 661.917 165.833V163.108V162.869L661.71 162.748C661.33 162.527 661.084 162.135 661.084 161.667V157.5C661.084 156.813 661.647 156.25 662.334 156.25H665.667H666.084V155.833V154.339L667.506 152.917H670.494L671.917 154.339V155.833ZM667.334 153.75H666.917V154.167V155.833V156.25H667.334H670.667H671.084V155.833V154.167V153.75H670.667H667.334ZM662.334 157.083H661.917V157.5V161.667V162.083H662.334H666.5H666.917V161.667V159.583H671.084V161.667V162.083H671.5H675.667H676.084V161.667V157.5V157.083H675.667H662.334ZM669.834 162.917H670.25V162.5V160.833V160.417H669.834H668.167H667.75V160.833V162.5V162.917H668.167H669.834ZM674.834 166.25H675.25V165.833V163.333V162.917H674.834H671.5H671.084V163.333V163.75H666.917V163.333V162.917H666.5H663.167H662.75V163.333V165.833V166.25H663.167H674.834Z" fill="#101828" stroke="#475467" stroke-width="0.833333"/>
<path d="M695.144 166.176C691.848 166.176 689.656 163.808 689.656 160.224C689.656 156.656 691.912 154.24 695.224 154.24C697.832 154.24 699.832 155.792 700.264 158.16H698.584C698.152 156.656 696.856 155.744 695.176 155.744C692.84 155.744 691.304 157.504 691.304 160.208C691.304 162.912 692.84 164.672 695.176 164.672C696.872 164.672 698.216 163.76 698.648 162.336H700.312C699.816 164.64 697.752 166.176 695.144 166.176ZM701.483 162.08C701.483 159.664 703.211 157.968 705.563 157.968C707.899 157.968 709.627 159.664 709.627 162.08C709.627 164.496 707.899 166.192 705.563 166.192C703.211 166.192 701.483 164.496 701.483 162.08ZM703.003 162.08C703.003 163.712 704.043 164.848 705.563 164.848C707.067 164.848 708.123 163.712 708.123 162.08C708.123 160.448 707.067 159.312 705.563 159.312C704.043 159.312 703.003 160.448 703.003 162.08ZM712.811 166H711.307V158.176H712.651L712.795 159.2C713.195 158.464 714.027 157.952 715.131 157.952C716.347 157.952 717.211 158.56 717.611 159.536C717.979 158.56 718.924 157.952 720.139 157.952C721.932 157.952 723.019 159.072 723.019 160.88V166H721.547V161.248C721.547 160.016 720.859 159.312 719.804 159.312C718.667 159.312 717.916 160.112 717.916 161.36V166H716.427V161.232C716.427 160 715.755 159.328 714.699 159.328C713.563 159.328 712.811 160.112 712.811 161.36V166ZM726.624 166H725.12V158.176H726.464L726.608 159.2C727.008 158.464 727.84 157.952 728.944 157.952C730.16 157.952 731.024 158.56 731.424 159.536C731.792 158.56 732.736 157.952 733.952 157.952C735.744 157.952 736.832 159.072 736.832 160.88V166H735.36V161.248C735.36 160.016 734.672 159.312 733.616 159.312C732.48 159.312 731.728 160.112 731.728 161.36V166H730.24V161.232C730.24 160 729.568 159.328 728.512 159.328C727.376 159.328 726.624 160.112 726.624 161.36V166ZM742.309 166.192C740.005 166.192 738.421 164.528 738.421 162.096C738.421 159.648 739.973 157.952 742.245 157.952C744.469 157.952 745.925 159.488 745.925 161.808V162.368L739.877 162.384C739.989 164.032 740.853 164.944 742.341 164.944C743.509 164.944 744.277 164.464 744.533 163.568H745.941C745.557 165.248 744.245 166.192 742.309 166.192ZM742.245 159.216C740.933 159.216 740.101 160 739.909 161.376H744.421C744.421 160.08 743.573 159.216 742.245 159.216ZM752.101 158.112V159.488H751.429C750.005 159.488 749.125 160.352 749.125 161.856V166H747.621V158.192H749.029L749.125 159.376C749.445 158.56 750.229 158.016 751.301 158.016C751.573 158.016 751.797 158.048 752.101 158.112ZM752.735 162.096C752.735 159.648 754.287 157.952 756.575 157.952C758.543 157.952 759.919 159.072 760.191 160.816H758.687C758.431 159.824 757.631 159.296 756.623 159.296C755.199 159.296 754.223 160.384 754.223 162.08C754.223 163.76 755.135 164.848 756.559 164.848C757.631 164.848 758.431 164.288 758.703 163.36H760.207C759.903 165.056 758.447 166.192 756.559 166.192C754.255 166.192 752.735 164.56 752.735 162.096ZM762.545 156.32C762.001 156.32 761.553 155.872 761.553 155.328C761.553 154.768 762.001 154.336 762.545 154.336C763.089 154.336 763.537 154.768 763.537 155.328C763.537 155.872 763.089 156.32 762.545 156.32ZM761.809 166V158.176H763.313V166H761.809ZM767.801 166.192C766.121 166.192 765.129 165.248 765.129 163.824C765.129 162.384 766.201 161.488 768.041 161.344L770.505 161.152V160.928C770.505 159.616 769.721 159.152 768.665 159.152C767.401 159.152 766.681 159.712 766.681 160.656H765.369C765.369 159.024 766.713 157.952 768.729 157.952C770.665 157.952 771.977 158.976 771.977 161.088V166H770.697L770.537 164.736C770.137 165.632 769.065 166.192 767.801 166.192ZM768.233 165.024C769.657 165.024 770.521 164.096 770.521 162.624V162.208L768.521 162.368C767.193 162.496 766.649 163.008 766.649 163.776C766.649 164.608 767.257 165.024 768.233 165.024ZM775.612 166H774.108V154.224H775.612V166Z" fill="#475467"/>
</g>
<defs>
<filter id="filter0_dd_2301_31094" x="0" y="136" width="212" height="72" filterUnits="userSpaceOnUse" color-interpolation-filters="sRGB">
<feFlood flood-opacity="0" result="BackgroundImageFix"/>
<feColorMatrix in="SourceAlpha" type="matrix" values="0 0 0 0 0 0 0 0 0 0 0 0 0 0 0 0 0 0 127 0" result="hardAlpha"/>
<feMorphology radius="2" operator="erode" in="SourceAlpha" result="effect1_dropShadow_2301_31094"/>
<feOffset dy="4"/>
<feGaussianBlur stdDeviation="3"/>
<feColorMatrix type="matrix" values="0 0 0 0 0.0627451 0 0 0 0 0.0941176 0 0 0 0 0.156863 0 0 0 0.03 0"/>
<feBlend mode="normal" in2="BackgroundImageFix" result="effect1_dropShadow_2301_31094"/>
<feColorMatrix in="SourceAlpha" type="matrix" values="0 0 0 0 0 0 0 0 0 0 0 0 0 0 0 0 0 0 127 0" result="hardAlpha"/>
<feMorphology radius="4" operator="erode" in="SourceAlpha" result="effect2_dropShadow_2301_31094"/>
<feOffset dy="12"/>
<feGaussianBlur stdDeviation="8"/>
<feColorMatrix type="matrix" values="0 0 0 0 0.0627451 0 0 0 0 0.0941176 0 0 0 0 0.156863 0 0 0 0.08 0"/>
<feBlend mode="normal" in2="effect1_dropShadow_2301_31094" result="effect2_dropShadow_2301_31094"/>
<feBlend mode="normal" in="SourceGraphic" in2="effect2_dropShadow_2301_31094" result="shape"/>
</filter>
<filter id="filter1_dd_2301_31094" x="244" y="136" width="176" height="72" filterUnits="userSpaceOnUse" color-interpolation-filters="sRGB">
<feFlood flood-opacity="0" result="BackgroundImageFix"/>
<feColorMatrix in="SourceAlpha" type="matrix" values="0 0 0 0 0 0 0 0 0 0 0 0 0 0 0 0 0 0 127 0" result="hardAlpha"/>
<feMorphology radius="2" operator="erode" in="SourceAlpha" result="effect1_dropShadow_2301_31094"/>
<feOffset dy="4"/>
<feGaussianBlur stdDeviation="3"/>
<feColorMatrix type="matrix" values="0 0 0 0 0.0627451 0 0 0 0 0.0941176 0 0 0 0 0.156863 0 0 0 0.03 0"/>
<feBlend mode="normal" in2="BackgroundImageFix" result="effect1_dropShadow_2301_31094"/>
<feColorMatrix in="SourceAlpha" type="matrix" values="0 0 0 0 0 0 0 0 0 0 0 0 0 0 0 0 0 0 127 0" result="hardAlpha"/>
<feMorphology radius="4" operator="erode" in="SourceAlpha" result="effect2_dropShadow_2301_31094"/>
<feOffset dy="12"/>
<feGaussianBlur stdDeviation="8"/>
<feColorMatrix type="matrix" values="0 0 0 0 0.0627451 0 0 0 0 0.0941176 0 0 0 0 0.156863 0 0 0 0.08 0"/>
<feBlend mode="normal" in2="effect1_dropShadow_2301_31094" result="effect2_dropShadow_2301_31094"/>
<feBlend mode="normal" in="SourceGraphic" in2="effect2_dropShadow_2301_31094" result="shape"/>
</filter>
<filter id="filter2_dd_2301_31094" x="452" y="136" width="145" height="72" filterUnits="userSpaceOnUse" color-interpolation-filters="sRGB">
<feFlood flood-opacity="0" result="BackgroundImageFix"/>
<feColorMatrix in="SourceAlpha" type="matrix" values="0 0 0 0 0 0 0 0 0 0 0 0 0 0 0 0 0 0 127 0" result="hardAlpha"/>
<feMorphology radius="2" operator="erode" in="SourceAlpha" result="effect1_dropShadow_2301_31094"/>
<feOffset dy="4"/>
<feGaussianBlur stdDeviation="3"/>
<feColorMatrix type="matrix" values="0 0 0 0 0.0627451 0 0 0 0 0.0941176 0 0 0 0 0.156863 0 0 0 0.03 0"/>
<feBlend mode="normal" in2="BackgroundImageFix" result="effect1_dropShadow_2301_31094"/>
<feColorMatrix in="SourceAlpha" type="matrix" values="0 0 0 0 0 0 0 0 0 0 0 0 0 0 0 0 0 0 127 0" result="hardAlpha"/>
<feMorphology radius="4" operator="erode" in="SourceAlpha" result="effect2_dropShadow_2301_31094"/>
<feOffset dy="12"/>
<feGaussianBlur stdDeviation="8"/>
<feColorMatrix type="matrix" values="0 0 0 0 0.0627451 0 0 0 0 0.0941176 0 0 0 0 0.156863 0 0 0 0.08 0"/>
<feBlend mode="normal" in2="effect1_dropShadow_2301_31094" result="effect2_dropShadow_2301_31094"/>
<feBlend mode="normal" in="SourceGraphic" in2="effect2_dropShadow_2301_31094" result="shape"/>
</filter>
<filter id="filter3_dd_2301_31094" x="629" y="136" width="178" height="72" filterUnits="userSpaceOnUse" color-interpolation-filters="sRGB">
<feFlood flood-opacity="0" result="BackgroundImageFix"/>
<feColorMatrix in="SourceAlpha" type="matrix" values="0 0 0 0 0 0 0 0 0 0 0 0 0 0 0 0 0 0 127 0" result="hardAlpha"/>
<feMorphology radius="2" operator="erode" in="SourceAlpha" result="effect1_dropShadow_2301_31094"/>
<feOffset dy="4"/>
<feGaussianBlur stdDeviation="3"/>
<feColorMatrix type="matrix" values="0 0 0 0 0.0627451 0 0 0 0 0.0941176 0 0 0 0 0.156863 0 0 0 0.03 0"/>
<feBlend mode="normal" in2="BackgroundImageFix" result="effect1_dropShadow_2301_31094"/>
<feColorMatrix in="SourceAlpha" type="matrix" values="0 0 0 0 0 0 0 0 0 0 0 0 0 0 0 0 0 0 127 0" result="hardAlpha"/>
<feMorphology radius="4" operator="erode" in="SourceAlpha" result="effect2_dropShadow_2301_31094"/>
<feOffset dy="12"/>
<feGaussianBlur stdDeviation="8"/>
<feColorMatrix type="matrix" values="0 0 0 0 0.0627451 0 0 0 0 0.0941176 0 0 0 0 0.156863 0 0 0 0.08 0"/>
<feBlend mode="normal" in2="effect1_dropShadow_2301_31094" result="effect2_dropShadow_2301_31094"/>
<feBlend mode="normal" in="SourceGraphic" in2="effect2_dropShadow_2301_31094" result="shape"/>
</filter>
<clipPath id="clip0_2301_31094">
<rect x="163" width="482" height="36" rx="5" fill="white"/>
</clipPath>
<clipPath id="clip1_2301_31094">
<rect x="247" y="44" width="314" height="28" rx="5" fill="white"/>
</clipPath>
</defs>
</svg>
