<svg width="16" height="16" viewBox="0 0 16 16" fill="none" xmlns="http://www.w3.org/2000/svg">
<g id="tabler:360-view" clip-path="url(#clip0_787_2687)">
<path id="Vector" d="M9.48148 1.60026C9.48148 1.42345 9.40344 1.25388 9.26452 1.12886C9.12561 1.00383 8.9372 0.933594 8.74074 0.933594H7.25926C7.0628 0.933594 6.87439 1.00383 6.73548 1.12886C6.59656 1.25388 6.51852 1.42345 6.51852 1.60026V5.60026C6.51852 5.77707 6.59656 5.94664 6.73548 6.07167C6.87439 6.19669 7.0628 6.26693 7.25926 6.26693H8.74074C8.9372 6.26693 9.12561 6.19669 9.26452 6.07167C9.40344 5.94664 9.48148 5.77707 9.48148 5.60026V4.26693C9.48148 4.09012 9.40344 3.92055 9.26452 3.79552C9.12561 3.6705 8.9372 3.60026 8.74074 3.60026H6.51852M1.33333 0.933594H3.18519C3.47987 0.933594 3.76249 1.03895 3.97086 1.22649C4.17923 1.41402 4.2963 1.66838 4.2963 1.93359V2.60026C4.2963 2.86548 4.17923 3.11983 3.97086 3.30737C3.76249 3.4949 3.47987 3.60026 3.18519 3.60026M3.18519 3.60026H2.07407M3.18519 3.60026C3.47987 3.60026 3.76249 3.70562 3.97086 3.89315C4.17923 4.08069 4.2963 4.33504 4.2963 4.60026V5.26693C4.2963 5.53214 4.17923 5.7865 3.97086 5.97403C3.76249 6.16157 3.47987 6.26693 3.18519 6.26693H1.33333M11.7037 2.26693V4.93359C11.7037 5.28722 11.8598 5.62635 12.1376 5.8764C12.4155 6.12645 12.7923 6.26693 13.1852 6.26693C13.5781 6.26693 13.9549 6.12645 14.2328 5.8764C14.5106 5.62635 14.6667 5.28722 14.6667 4.93359V2.26693C14.6667 1.91331 14.5106 1.57417 14.2328 1.32412C13.9549 1.07407 13.5781 0.933594 13.1852 0.933594C12.7923 0.933594 12.4155 1.07407 12.1376 1.32412C11.8598 1.57417 11.7037 1.91331 11.7037 2.26693Z" stroke="white" stroke-linecap="round" stroke-linejoin="round"/>
<path id="Vector_2" d="M12.1481 12.8853C13.9363 12.4067 15.1111 11.592 15.1111 10.6667C15.1111 9.19333 12.1259 8 8.44445 8C4.76296 8 1.77778 9.19333 1.77778 10.6667C1.77778 12.14 4.76296 13.3333 8.44445 13.3333" stroke="white" stroke-linecap="round" stroke-linejoin="round"/>
<path id="Vector_3" d="M6.22222 11.333L8.44444 13.333L6.22222 15.333" stroke="white" stroke-width="0.65" stroke-linecap="round" stroke-linejoin="round"/>
</g>
<defs>
<clipPath id="clip0_787_2687">
<rect width="16" height="16" fill="white"/>
</clipPath>
</defs>
</svg>
