<svg width="15" height="16" viewBox="0 0 15 16" fill="none" xmlns="http://www.w3.org/2000/svg">
<g id="ion:bed-outline">
<path id="Vector" d="M1.40625 12.6875V9.40625C1.40772 8.90942 1.60573 8.43336 1.95705 8.08205C2.30836 7.73073 2.78442 7.53272 3.28125 7.53125H11.7188C12.2156 7.53272 12.6916 7.73073 13.043 8.08205C13.3943 8.43336 13.5923 8.90942 13.5938 9.40625V12.6875M11.25 7.53125H2.8125V4.48438C2.81343 4.17386 2.93719 3.87633 3.15676 3.65676C3.37633 3.43719 3.67386 3.31343 3.98438 3.3125H11.0156C11.3261 3.31343 11.6237 3.43719 11.8432 3.65676C12.0628 3.87633 12.1866 4.17386 12.1875 4.48438V7.53125H11.25Z" stroke="#101828" stroke-linecap="round" stroke-linejoin="round"/>
<path id="Vector_2" d="M1.40625 12.6875V12.4531C1.40679 12.2668 1.48104 12.0883 1.61279 11.9565C1.74453 11.8248 1.92306 11.7505 2.10938 11.75H12.8906C13.0769 11.7505 13.2555 11.8248 13.3872 11.9565C13.519 12.0883 13.5932 12.2668 13.5938 12.4531V12.6875M3.28125 7.53125V7.0625C3.28195 6.81407 3.38094 6.57602 3.55661 6.40036C3.73227 6.22469 3.97032 6.1257 4.21875 6.125H6.5625C6.81093 6.1257 7.04898 6.22469 7.22464 6.40036C7.40031 6.57602 7.4993 6.81407 7.5 7.0625M7.5 7.0625V7.53125M7.5 7.0625C7.5007 6.81407 7.59969 6.57602 7.77536 6.40036C7.95102 6.22469 8.18907 6.1257 8.4375 6.125H10.7812C11.0297 6.1257 11.2677 6.22469 11.4434 6.40036C11.6191 6.57602 11.7181 6.81407 11.7188 7.0625V7.53125" stroke="#101828" stroke-linecap="round" stroke-linejoin="round"/>
</g>
</svg>
