<svg width="15" height="16" viewBox="0 0 15 16" fill="none" xmlns="http://www.w3.org/2000/svg">
<g id="vuesax/linear/book-saved">
<g id="book-saved">
<path id="Vector" d="M13.75 3.41875V10.9625C13.75 11.5625 13.2625 12.125 12.6625 12.2L12.4562 12.225C11.0937 12.4063 8.99373 13.1 7.79373 13.7625C7.63123 13.8562 7.36251 13.8562 7.19376 13.7625L7.16873 13.75C5.96873 13.0938 3.87502 12.4063 2.51877 12.225L2.33749 12.2C1.73749 12.125 1.25 11.5625 1.25 10.9625V3.41249C1.25 2.66874 1.85623 2.10625 2.59998 2.16875C3.91248 2.275 5.89998 2.93751 7.01248 3.63126L7.16873 3.72499C7.34998 3.83749 7.65002 3.83749 7.83127 3.72499L7.93751 3.65625C8.33126 3.4125 8.83125 3.16875 9.375 2.95V5.50001L10.625 4.66875L11.875 5.50001V2.23753C12.0438 2.20628 12.2063 2.1875 12.3563 2.175H12.3938C13.1375 2.1125 13.75 2.66875 13.75 3.41875Z" stroke="#475467" stroke-linecap="round" stroke-linejoin="round"/>
<path id="Vector_2" d="M7.5 3.93127V13.3063" stroke="#475467" stroke-linecap="round" stroke-linejoin="round"/>
<path id="Vector_3" d="M11.875 2.23755V5.50003L10.625 4.66877L9.375 5.50003V2.95002C10.1937 2.62502 11.1062 2.36255 11.875 2.23755Z" stroke="#475467" stroke-linecap="round" stroke-linejoin="round"/>
</g>
</g>
</svg>
