<svg width="16" height="16" viewBox="0 0 16 16" fill="none" xmlns="http://www.w3.org/2000/svg">
<g id="vuesax/linear/call">
<g id="call">
<g id="call_2">
<path id="Vector" d="M14.0643 11.9563C14.0643 12.1812 14.0143 12.4125 13.908 12.6375C13.8018 12.8625 13.6643 13.075 13.483 13.275C13.1768 13.6125 12.8393 13.8563 12.458 14.0125C12.083 14.1688 11.6768 14.25 11.2393 14.25C10.6018 14.25 9.92051 14.1 9.20176 13.7938C8.48301 13.4875 7.76426 13.075 7.05176 12.5563C6.33301 12.0313 5.65176 11.45 5.00176 10.8062C4.35801 10.1562 3.77676 9.475 3.25801 8.7625C2.74551 8.05 2.33301 7.3375 2.03301 6.63125C1.73301 5.91875 1.58301 5.2375 1.58301 4.5875C1.58301 4.1625 1.65801 3.75625 1.80801 3.38125C1.95801 3 2.19551 2.65 2.52676 2.3375C2.92676 1.94375 3.36426 1.75 3.82676 1.75C4.00176 1.75 4.17676 1.7875 4.33301 1.8625C4.49551 1.9375 4.63926 2.05 4.75176 2.2125L6.20176 4.25625C6.31426 4.4125 6.39551 4.55625 6.45176 4.69375C6.50801 4.825 6.53926 4.95625 6.53926 5.075C6.53926 5.225 6.49551 5.375 6.40801 5.51875C6.32676 5.6625 6.20801 5.8125 6.05801 5.9625L5.58301 6.45625C5.51426 6.525 5.48301 6.60625 5.48301 6.70625C5.48301 6.75625 5.48926 6.8 5.50176 6.85C5.52051 6.9 5.53926 6.9375 5.55176 6.975C5.66426 7.18125 5.85801 7.45 6.13301 7.775C6.41426 8.1 6.71426 8.43125 7.03926 8.7625C7.37676 9.09375 7.70176 9.4 8.03301 9.68125C8.35801 9.95625 8.62676 10.1438 8.83926 10.2562C8.87051 10.2688 8.90801 10.2875 8.95176 10.3062C9.00176 10.325 9.05176 10.3312 9.10801 10.3312C9.21426 10.3312 9.29551 10.2937 9.36426 10.225L9.83926 9.75625C9.99551 9.6 10.1455 9.48125 10.2893 9.40625C10.433 9.31875 10.5768 9.275 10.733 9.275C10.8518 9.275 10.9768 9.3 11.1143 9.35625C11.2518 9.4125 11.3955 9.49375 11.5518 9.6L13.6205 11.0688C13.783 11.1812 13.8955 11.3125 13.9643 11.4688C14.0268 11.625 14.0643 11.7812 14.0643 11.9563Z" fill="#415EFF" stroke="#415EFF" stroke-miterlimit="10"/>
</g>
</g>
</g>
</svg>
