<svg width="20" height="20" viewBox="0 0 20 20" fill="none" xmlns="http://www.w3.org/2000/svg">
<g id="vuesax/linear/car">
<g id="car">
<path id="Vector" d="M12.925 2.35834H7.07499C4.99999 2.35834 4.54166 3.39167 4.27499 4.65834L3.33333 9.16667H16.6667L15.725 4.65834C15.4583 3.39167 15 2.35834 12.925 2.35834Z" stroke="#475467" stroke-width="1.5" stroke-linecap="round" stroke-linejoin="round"/>
<path id="Vector_2" d="M18.325 16.5167C18.4167 17.4917 17.6333 18.3334 16.6333 18.3334H15.0667C14.1667 18.3334 14.0417 17.95 13.8833 17.475L13.7167 16.975C13.4833 16.2917 13.3333 15.8334 12.1333 15.8334H7.86666C6.66666 15.8334 6.49166 16.35 6.28333 16.975L6.11666 17.475C5.95833 17.95 5.83333 18.3334 4.93333 18.3334H3.36666C2.36666 18.3334 1.58333 17.4917 1.67499 16.5167L2.14166 11.4417C2.25833 10.1917 2.49999 9.16669 4.68333 9.16669H15.3167C17.5 9.16669 17.7417 10.1917 17.8583 11.4417L18.325 16.5167Z" stroke="#475467" stroke-width="1.5" stroke-linecap="round" stroke-linejoin="round"/>
<path id="Vector_3" d="M3.33333 6.66669H2.5" stroke="#475467" stroke-width="1.5" stroke-linecap="round" stroke-linejoin="round"/>
<path id="Vector_4" d="M17.5 6.66669H16.6667" stroke="#475467" stroke-width="1.5" stroke-linecap="round" stroke-linejoin="round"/>
<path id="Vector_5" d="M10 2.5V4.16667" stroke="#475467" stroke-width="1.5" stroke-linecap="round" stroke-linejoin="round"/>
<path id="Vector_6" d="M8.75 4.16669H11.25" stroke="#475467" stroke-width="1.5" stroke-linecap="round" stroke-linejoin="round"/>
<path id="Vector_7" d="M5 12.5H7.5" stroke="#475467" stroke-width="1.5" stroke-linecap="round" stroke-linejoin="round"/>
<path id="Vector_8" d="M12.5 12.5H15" stroke="#475467" stroke-width="1.5" stroke-linecap="round" stroke-linejoin="round"/>
</g>
</g>
</svg>
