<svg width="40" height="40" viewBox="0 0 40 40" fill="none" xmlns="http://www.w3.org/2000/svg">
<mask id="path-1-inside-1_1494_36872" fill="white">
<path d="M36.25 12.5H30V15H36.25V22.5H27.5V25H31.25V27.6775C30.0717 27.9817 29.0448 28.7053 28.3617 29.7125C27.6787 30.7197 27.3865 31.9415 27.5399 33.1488C27.6932 34.356 28.2816 35.4659 29.1947 36.2704C30.1078 37.0749 31.283 37.5187 32.5 37.5187C33.717 37.5187 34.8922 37.0749 35.8053 36.2704C36.7184 35.4659 37.3068 34.356 37.4601 33.1488C37.6135 31.9415 37.3213 30.7197 36.6383 29.7125C35.9552 28.7053 34.9283 27.9817 33.75 27.6775V25H36.25C36.9127 24.999 37.548 24.7353 38.0167 24.2667C38.4853 23.798 38.749 23.1627 38.75 22.5V15C38.7493 14.3372 38.4857 13.7017 38.017 13.233C37.5483 12.7643 36.9128 12.5007 36.25 12.5ZM35 32.5C35 32.9945 34.8534 33.4778 34.5787 33.8889C34.304 34.3 33.9135 34.6205 33.4567 34.8097C32.9999 34.9989 32.4972 35.0484 32.0123 34.952C31.5273 34.8555 31.0819 34.6174 30.7322 34.2678C30.3826 33.9181 30.1445 33.4727 30.048 32.9877C29.9516 32.5028 30.0011 32.0001 30.1903 31.5433C30.3795 31.0865 30.7 30.696 31.1111 30.4213C31.5222 30.1466 32.0055 30 32.5 30C33.1627 30.001 33.798 30.2647 34.2667 30.7333C34.7353 31.202 34.999 31.8373 35 32.5ZM23.75 7.5H17.5V10H23.75V17.5H15V20H18.75V27.6775C17.5717 27.9817 16.5448 28.7053 15.8617 29.7125C15.1787 30.7197 14.8865 31.9415 15.0399 33.1488C15.1932 34.356 15.7816 35.4659 16.6947 36.2704C17.6078 37.0749 18.783 37.5187 20 37.5187C21.217 37.5187 22.3922 37.0749 23.3053 36.2704C24.2184 35.4659 24.8068 34.356 24.9601 33.1488C25.1135 31.9415 24.8213 30.7197 24.1383 29.7125C23.4552 28.7053 22.4283 27.9817 21.25 27.6775V20H23.75C24.4128 19.9993 25.0483 19.7357 25.517 19.267C25.9857 18.7983 26.2493 18.1628 26.25 17.5V10C26.2493 9.33716 25.9857 8.70166 25.517 8.23296C25.0483 7.76427 24.4128 7.50066 23.75 7.5ZM22.5 32.5C22.5 32.9945 22.3534 33.4778 22.0787 33.8889C21.804 34.3 21.4135 34.6205 20.9567 34.8097C20.4999 34.9989 19.9972 35.0484 19.5123 34.952C19.0273 34.8555 18.5819 34.6174 18.2322 34.2678C17.8826 33.9181 17.6445 33.4727 17.548 32.9877C17.4516 32.5028 17.5011 32.0001 17.6903 31.5433C17.8795 31.0865 18.2 30.696 18.6111 30.4213C19.0222 30.1466 19.5055 30 20 30C20.6627 30.001 21.298 30.2647 21.7667 30.7333C22.2353 31.202 22.499 31.8373 22.5 32.5ZM11.25 2.5H3.75C3.08716 2.50066 2.45166 2.76427 1.98296 3.23296C1.51427 3.70166 1.25066 4.33716 1.25 5L1.25 12.5C1.25066 13.1628 1.51427 13.7983 1.98296 14.267C2.45166 14.7357 3.08716 14.9993 3.75 15H6.25V27.6775C5.07168 27.9817 4.04476 28.7053 3.36175 29.7125C2.67873 30.7197 2.38651 31.9415 2.53985 33.1488C2.69319 34.356 3.28158 35.4659 4.19471 36.2704C5.10784 37.0749 6.28303 37.5187 7.5 37.5187C8.71697 37.5187 9.89216 37.0749 10.8053 36.2704C11.7184 35.4659 12.3068 34.356 12.4601 33.1488C12.6135 31.9415 12.3213 30.7197 11.6383 29.7125C10.9552 28.7053 9.92832 27.9817 8.75 27.6775V15H11.25C11.9128 14.9993 12.5483 14.7357 13.017 14.267C13.4857 13.7983 13.7493 13.1628 13.75 12.5V5C13.7493 4.33716 13.4857 3.70166 13.017 3.23296C12.5483 2.76427 11.9128 2.50066 11.25 2.5ZM10 32.5C10 32.9945 9.85338 33.4778 9.57867 33.8889C9.30397 34.3 8.91352 34.6205 8.45671 34.8097C7.99989 34.9989 7.49723 35.0484 7.01227 34.952C6.52732 34.8555 6.08186 34.6174 5.73223 34.2678C5.3826 33.9181 5.1445 33.4727 5.04804 32.9877C4.95157 32.5028 5.00108 32.0001 5.1903 31.5433C5.37952 31.0865 5.69995 30.696 6.11107 30.4213C6.5222 30.1466 7.00555 30 7.5 30C8.16284 30.0007 8.79834 30.2643 9.26704 30.733C9.73573 31.2017 9.99934 31.8372 10 32.5ZM3.75 12.5V5H11.25L11.2525 12.5H3.75Z"/>
</mask>
<path d="M36.25 12.5H30V15H36.25V22.5H27.5V25H31.25V27.6775C30.0717 27.9817 29.0448 28.7053 28.3617 29.7125C27.6787 30.7197 27.3865 31.9415 27.5399 33.1488C27.6932 34.356 28.2816 35.4659 29.1947 36.2704C30.1078 37.0749 31.283 37.5187 32.5 37.5187C33.717 37.5187 34.8922 37.0749 35.8053 36.2704C36.7184 35.4659 37.3068 34.356 37.4601 33.1488C37.6135 31.9415 37.3213 30.7197 36.6383 29.7125C35.9552 28.7053 34.9283 27.9817 33.75 27.6775V25H36.25C36.9127 24.999 37.548 24.7353 38.0167 24.2667C38.4853 23.798 38.749 23.1627 38.75 22.5V15C38.7493 14.3372 38.4857 13.7017 38.017 13.233C37.5483 12.7643 36.9128 12.5007 36.25 12.5ZM35 32.5C35 32.9945 34.8534 33.4778 34.5787 33.8889C34.304 34.3 33.9135 34.6205 33.4567 34.8097C32.9999 34.9989 32.4972 35.0484 32.0123 34.952C31.5273 34.8555 31.0819 34.6174 30.7322 34.2678C30.3826 33.9181 30.1445 33.4727 30.048 32.9877C29.9516 32.5028 30.0011 32.0001 30.1903 31.5433C30.3795 31.0865 30.7 30.696 31.1111 30.4213C31.5222 30.1466 32.0055 30 32.5 30C33.1627 30.001 33.798 30.2647 34.2667 30.7333C34.7353 31.202 34.999 31.8373 35 32.5ZM23.75 7.5H17.5V10H23.75V17.5H15V20H18.75V27.6775C17.5717 27.9817 16.5448 28.7053 15.8617 29.7125C15.1787 30.7197 14.8865 31.9415 15.0399 33.1488C15.1932 34.356 15.7816 35.4659 16.6947 36.2704C17.6078 37.0749 18.783 37.5187 20 37.5187C21.217 37.5187 22.3922 37.0749 23.3053 36.2704C24.2184 35.4659 24.8068 34.356 24.9601 33.1488C25.1135 31.9415 24.8213 30.7197 24.1383 29.7125C23.4552 28.7053 22.4283 27.9817 21.25 27.6775V20H23.75C24.4128 19.9993 25.0483 19.7357 25.517 19.267C25.9857 18.7983 26.2493 18.1628 26.25 17.5V10C26.2493 9.33716 25.9857 8.70166 25.517 8.23296C25.0483 7.76427 24.4128 7.50066 23.75 7.5ZM22.5 32.5C22.5 32.9945 22.3534 33.4778 22.0787 33.8889C21.804 34.3 21.4135 34.6205 20.9567 34.8097C20.4999 34.9989 19.9972 35.0484 19.5123 34.952C19.0273 34.8555 18.5819 34.6174 18.2322 34.2678C17.8826 33.9181 17.6445 33.4727 17.548 32.9877C17.4516 32.5028 17.5011 32.0001 17.6903 31.5433C17.8795 31.0865 18.2 30.696 18.6111 30.4213C19.0222 30.1466 19.5055 30 20 30C20.6627 30.001 21.298 30.2647 21.7667 30.7333C22.2353 31.202 22.499 31.8373 22.5 32.5ZM11.25 2.5H3.75C3.08716 2.50066 2.45166 2.76427 1.98296 3.23296C1.51427 3.70166 1.25066 4.33716 1.25 5L1.25 12.5C1.25066 13.1628 1.51427 13.7983 1.98296 14.267C2.45166 14.7357 3.08716 14.9993 3.75 15H6.25V27.6775C5.07168 27.9817 4.04476 28.7053 3.36175 29.7125C2.67873 30.7197 2.38651 31.9415 2.53985 33.1488C2.69319 34.356 3.28158 35.4659 4.19471 36.2704C5.10784 37.0749 6.28303 37.5187 7.5 37.5187C8.71697 37.5187 9.89216 37.0749 10.8053 36.2704C11.7184 35.4659 12.3068 34.356 12.4601 33.1488C12.6135 31.9415 12.3213 30.7197 11.6383 29.7125C10.9552 28.7053 9.92832 27.9817 8.75 27.6775V15H11.25C11.9128 14.9993 12.5483 14.7357 13.017 14.267C13.4857 13.7983 13.7493 13.1628 13.75 12.5V5C13.7493 4.33716 13.4857 3.70166 13.017 3.23296C12.5483 2.76427 11.9128 2.50066 11.25 2.5ZM10 32.5C10 32.9945 9.85338 33.4778 9.57867 33.8889C9.30397 34.3 8.91352 34.6205 8.45671 34.8097C7.99989 34.9989 7.49723 35.0484 7.01227 34.952C6.52732 34.8555 6.08186 34.6174 5.73223 34.2678C5.3826 33.9181 5.1445 33.4727 5.04804 32.9877C4.95157 32.5028 5.00108 32.0001 5.1903 31.5433C5.37952 31.0865 5.69995 30.696 6.11107 30.4213C6.5222 30.1466 7.00555 30 7.5 30C8.16284 30.0007 8.79834 30.2643 9.26704 30.733C9.73573 31.2017 9.99934 31.8372 10 32.5ZM3.75 12.5V5H11.25L11.2525 12.5H3.75Z" stroke="url(#paint0_linear_1494_36872)" stroke-width="4" mask="url(#path-1-inside-1_1494_36872)"/>
<defs>
<linearGradient id="paint0_linear_1494_36872" x1="20.206" y1="-1.6689" x2="20.206" y2="41.6876" gradientUnits="userSpaceOnUse">
<stop stop-color="#6F85FF"/>
<stop offset="0.95498" stop-color="#415EFF"/>
</linearGradient>
</defs>
</svg>
