<svg width="20" height="20" viewBox="0 0 20 20" fill="none" xmlns="http://www.w3.org/2000/svg">
<g id="ic:outline-business-center">
<path id="Vector" d="M16.6667 5.83333H13.3334V4.16667L11.6667 2.5H8.33335L6.66669 4.16667V5.83333H3.33335C2.41669 5.83333 1.66669 6.58333 1.66669 7.5V11.6667C1.66669 12.2917 2.00002 12.8167 2.50002 13.1083V15.8333C2.50002 16.7583 3.24169 17.5 4.16669 17.5H15.8334C16.7584 17.5 17.5 16.7583 17.5 15.8333V13.1C17.9917 12.8083 18.3334 12.275 18.3334 11.6667V7.5C18.3334 6.58333 17.5834 5.83333 16.6667 5.83333ZM8.33335 4.16667H11.6667V5.83333H8.33335V4.16667ZM3.33335 7.5H16.6667V11.6667H12.5V9.16667H7.50002V11.6667H3.33335V7.5ZM10.8334 12.5H9.16669V10.8333H10.8334V12.5ZM15.8334 15.8333H4.16669V13.3333H7.50002V14.1667H12.5V13.3333H15.8334V15.8333Z" fill="#475467"/>
</g>
</svg>
