<svg xmlns="http://www.w3.org/2000/svg" width="11" height="10" viewBox="0 0 11 10" fill="none">
  <path d="M8.83398 2.91667H7.16732V2.08333L6.33398 1.25H4.66732L3.83398 2.08333V2.91667H2.16732C1.70898 2.91667 1.33398 3.29167 1.33398 3.75V5.83333C1.33398 6.14583 1.50065 6.40833 1.75065 6.55417V7.91667C1.75065 8.37917 2.12148 8.75 2.58398 8.75H8.41732C8.87982 8.75 9.25065 8.37917 9.25065 7.91667V6.55C9.49648 6.40417 9.66732 6.1375 9.66732 5.83333V3.75C9.66732 3.29167 9.29232 2.91667 8.83398 2.91667ZM4.66732 2.08333H6.33398V2.91667H4.66732V2.08333ZM2.16732 3.75H8.83398V5.83333H6.75065V4.58333H4.25065V5.83333H2.16732V3.75ZM5.91732 6.25H5.08398V5.41667H5.91732V6.25ZM8.41732 7.91667H2.58398V6.66667H4.25065V7.08333H6.75065V6.66667H8.41732V7.91667Z" fill="#415EFF"/>
</svg>