<svg width="149" height="22" viewBox="0 0 149 22" fill="none" xmlns="http://www.w3.org/2000/svg">
<path d="M7.288 21H0.187V1.263H7.099C12.931 1.263 16.954 5.286 16.954 11.172C16.954 16.977 13.012 21 7.288 21ZM6.775 4.449H3.643V17.814H6.964C10.906 17.814 13.309 15.276 13.309 11.172C13.309 6.987 10.852 4.449 6.775 4.449ZM21.3613 4.989C20.2273 4.989 19.3363 4.098 19.3363 2.991C19.3363 1.884 20.2273 1.02 21.3613 1.02C22.4413 1.02 23.3323 1.884 23.3323 2.991C23.3323 4.098 22.4413 4.989 21.3613 4.989ZM19.7143 21V7.662H23.0083V21H19.7143ZM25.4126 16.95H28.5446C28.5716 18.111 29.4356 18.84 30.9476 18.84C32.4866 18.84 33.3236 18.219 33.3236 17.247C33.3236 16.572 32.9726 16.086 31.7846 15.816L29.3816 15.249C26.9786 14.709 25.8176 13.575 25.8176 11.442C25.8176 8.823 28.0316 7.257 31.1096 7.257C34.1066 7.257 36.1316 8.985 36.1586 11.577H33.0266C32.9996 10.443 32.2436 9.714 30.9746 9.714C29.6786 9.714 28.9226 10.308 28.9226 11.307C28.9226 12.063 29.5166 12.549 30.6506 12.819L33.0536 13.386C35.2946 13.899 36.4286 14.925 36.4286 16.977C36.4286 19.677 34.1336 21.351 30.8396 21.351C27.5186 21.351 25.4126 19.569 25.4126 16.95ZM43.4996 21H40.2056V10.416H37.6406V7.662H40.2056V3.504H43.4996V7.662H46.0916V10.416H43.4996V21ZM56.5364 7.608V10.659H55.3214C52.9454 10.659 51.4604 11.928 51.4604 14.52V21H48.1664V7.689H51.2714L51.4604 9.633C52.0274 8.31 53.2964 7.419 55.0784 7.419C55.5374 7.419 55.9964 7.473 56.5364 7.608ZM64.3118 21.351C60.3428 21.351 57.5618 18.462 57.5618 14.331C57.5618 10.146 60.2888 7.257 64.2038 7.257C68.1998 7.257 70.7378 9.93 70.7378 14.088V15.087L60.6938 15.114C60.9368 17.463 62.1788 18.651 64.3658 18.651C66.1748 18.651 67.3628 17.949 67.7408 16.68H70.7918C70.2248 19.596 67.7948 21.351 64.3118 21.351ZM64.2308 9.957C62.2868 9.957 61.0988 11.01 60.7748 13.008H67.4708C67.4708 11.172 66.2018 9.957 64.2308 9.957ZM72.3751 16.95H75.5071C75.5341 18.111 76.3981 18.84 77.9101 18.84C79.4491 18.84 80.2861 18.219 80.2861 17.247C80.2861 16.572 79.9351 16.086 78.7471 15.816L76.3441 15.249C73.9411 14.709 72.7801 13.575 72.7801 11.442C72.7801 8.823 74.9941 7.257 78.0721 7.257C81.0691 7.257 83.0941 8.985 83.1211 11.577H79.9891C79.9621 10.443 79.2061 9.714 77.9371 9.714C76.6411 9.714 75.8851 10.308 75.8851 11.307C75.8851 12.063 76.4791 12.549 77.6131 12.819L80.0161 13.386C82.2571 13.899 83.3911 14.925 83.3911 16.977C83.3911 19.677 81.0961 21.351 77.8021 21.351C74.4811 21.351 72.3751 19.569 72.3751 16.95ZM84.9001 16.95H88.0321C88.0591 18.111 88.9231 18.84 90.4351 18.84C91.9741 18.84 92.8111 18.219 92.8111 17.247C92.8111 16.572 92.4601 16.086 91.2721 15.816L88.8691 15.249C86.4661 14.709 85.3051 13.575 85.3051 11.442C85.3051 8.823 87.5191 7.257 90.5971 7.257C93.5941 7.257 95.6191 8.985 95.6461 11.577H92.5141C92.4871 10.443 91.7311 9.714 90.4621 9.714C89.1661 9.714 88.4101 10.308 88.4101 11.307C88.4101 12.063 89.0041 12.549 90.1381 12.819L92.5411 13.386C94.7821 13.899 95.9161 14.925 95.9161 16.977C95.9161 19.677 93.6211 21.351 90.3271 21.351C87.0061 21.351 84.9001 19.569 84.9001 16.95ZM97.8032 6.771C97.8032 3.315 100.665 0.912 104.823 0.912C108.819 0.912 111.357 3.126 111.465 6.69H108.009C107.928 4.989 106.713 3.99 104.769 3.99C102.636 3.99 101.259 5.016 101.259 6.663C101.259 8.067 102.015 8.85 103.662 9.228L106.767 9.903C110.142 10.632 111.789 12.36 111.789 15.303C111.789 18.975 108.927 21.351 104.58 21.351C100.368 21.351 97.6142 19.11 97.5332 15.573H100.989C101.016 17.247 102.366 18.246 104.58 18.246C106.875 18.246 108.333 17.247 108.333 15.6C108.333 14.277 107.658 13.494 106.038 13.143L102.906 12.441C99.5582 11.712 97.8032 9.795 97.8032 6.771ZM118.426 21.351C115.591 21.351 113.863 19.704 113.863 17.193C113.863 14.736 115.645 13.197 118.804 12.954L122.8 12.657V12.36C122.8 10.551 121.72 9.822 120.046 9.822C118.102 9.822 117.022 10.632 117.022 12.036H114.214C114.214 9.147 116.59 7.257 120.208 7.257C123.799 7.257 126.013 9.201 126.013 12.9V21H123.124L122.881 19.029C122.314 20.406 120.505 21.351 118.426 21.351ZM119.506 18.867C121.531 18.867 122.827 17.652 122.827 15.6V14.898L120.046 15.114C117.994 15.303 117.211 15.978 117.211 17.058C117.211 18.273 118.021 18.867 119.506 18.867ZM132.597 21H129.33V0.912H132.597V21ZM142.046 21.351C138.077 21.351 135.296 18.462 135.296 14.331C135.296 10.146 138.023 7.257 141.938 7.257C145.934 7.257 148.472 9.93 148.472 14.088V15.087L138.428 15.114C138.671 17.463 139.913 18.651 142.1 18.651C143.909 18.651 145.097 17.949 145.475 16.68H148.526C147.959 19.596 145.529 21.351 142.046 21.351ZM141.965 9.957C140.021 9.957 138.833 11.01 138.509 13.008H145.205C145.205 11.172 143.936 9.957 141.965 9.957Z" fill="url(#paint0_linear_580_11338)"/>
<defs>
<linearGradient id="paint0_linear_580_11338" x1="74.8352" y1="-11.2857" x2="74.8352" y2="33.2857" gradientUnits="userSpaceOnUse">
<stop stop-color="#6F85FF"/>
<stop offset="0.95498" stop-color="#415EFF"/>
</linearGradient>
</defs>
</svg>
