<svg width="11" height="7" viewBox="0 0 11 7" fill="none" xmlns="http://www.w3.org/2000/svg">
<path id="Vector" fill-rule="evenodd" clip-rule="evenodd" d="M1.33333 0.893407C1.16854 0.893443 1.00746 0.942336 0.87045 1.03391C0.733441 1.12548 0.626658 1.25561 0.563601 1.40786C0.500542 1.56011 0.484039 1.72764 0.516179 1.88927C0.548319 2.05089 0.627656 2.19936 0.744164 2.31591L4.91083 6.48257C5.0671 6.6388 5.27903 6.72656 5.5 6.72656C5.72097 6.72656 5.93289 6.6388 6.08916 6.48257L10.2558 2.31591C10.3723 2.19936 10.4517 2.05089 10.4838 1.88927C10.516 1.72764 10.4995 1.56011 10.4364 1.40786C10.3733 1.25561 10.2666 1.12548 10.1295 1.03391C9.99254 0.942336 9.83146 0.893443 9.66666 0.893407L1.33333 0.893407Z" fill="#475467"/>
</svg>
