<svg width="24" height="24" viewBox="0 0 24 24" fill="none" xmlns="http://www.w3.org/2000/svg">
<g id="logos:facebook" clip-path="url(#clip0_1326_7173)">
<path id="Vector" d="M23.9609 12C23.9609 17.9543 19.61 22.8923 13.9141 23.8085V15.5078H16.6711H16.7046L16.7097 15.4747L17.2417 12.0059L17.2486 11.9609H17.2031H13.9141V9.74906C13.9141 9.28022 14.0289 8.82211 14.3233 8.48169C14.6168 8.14234 15.0937 7.91406 15.8306 7.91406H17.3438H17.3828V7.875V4.92187V4.88891L17.3503 4.88337L17.3438 4.92187L17.3503 4.88336L17.3502 4.88336L17.35 4.88332L17.3493 4.88319L17.3462 4.88268L17.3344 4.8807L17.2883 4.87323C17.2481 4.8668 17.1892 4.85762 17.1144 4.84661C16.9648 4.82459 16.7517 4.79523 16.4975 4.76588C15.9893 4.7072 15.3161 4.64844 14.6575 4.64844C13.2792 4.64844 12.1352 5.06629 11.3358 5.86645C10.5363 6.66666 10.0859 7.8447 10.0859 9.35625V11.9609H7.07812H7.03906V12V15.4687V15.5078H7.07812H10.0859V23.8085C4.39002 22.8923 0.0390625 17.9543 0.0390625 12C0.0390625 5.3941 5.3942 0.0390625 12 0.0390625C18.6058 0.0390625 23.9609 5.3942 23.9609 12Z" fill="#1877F2" stroke="#415EFF" stroke-width="0.078125"/>
<path id="Vector_2" d="M16.6711 15.4688L17.2031 12H13.875V9.74906C13.875 8.79994 14.3399 7.875 15.8306 7.875H17.3438V4.92188C17.3438 4.92188 15.9705 4.6875 14.6575 4.6875C11.9166 4.6875 10.125 6.34875 10.125 9.35625V12H7.07812V15.4688H10.125V23.8542C10.7453 23.9514 11.3722 24.0002 12 24C12.6278 24.0002 13.2547 23.9514 13.875 23.8542V15.4688H16.6711Z" fill="white"/>
</g>
<defs>
<clipPath id="clip0_1326_7173">
<rect width="24" height="24" fill="white"/>
</clipPath>
</defs>
</svg>
