<svg width="20" height="20" viewBox="0 0 20 20" fill="none" xmlns="http://www.w3.org/2000/svg">
<g id="Filter">
<path id="Vector" d="M4.38006 13.9286H7.90509C7.90845 13.9312 7.91397 13.9362 7.92073 13.9451L8.19309 13.7371L7.92073 13.9451C7.94406 13.9756 7.96725 14.0332 7.96725 14.1071C7.96725 14.1811 7.94406 14.2386 7.92073 14.2692L8.20458 14.486L7.92073 14.2692C7.91397 14.278 7.90845 14.2831 7.90509 14.2857H4.38006C4.3767 14.2831 4.37118 14.278 4.36443 14.2692C4.34109 14.2386 4.3179 14.1811 4.3179 14.1071C4.3179 14.0332 4.34109 13.9756 4.36443 13.9451C4.37118 13.9362 4.3767 13.9312 4.38006 13.9286ZM2.19825 9.64286H10.0869C10.0903 9.64549 10.0958 9.65053 10.1025 9.65938C10.1259 9.68993 10.1491 9.74747 10.1491 9.82143C10.1491 9.89538 10.1259 9.95293 10.1025 9.98348C10.0958 9.99233 10.0903 9.99737 10.0869 10H2.19825C2.19488 9.99737 2.18936 9.99233 2.18261 9.98348C2.15928 9.95293 2.13608 9.89538 2.13608 9.82143C2.13608 9.74747 2.15928 9.68993 2.18261 9.65938C2.18936 9.65053 2.19488 9.64549 2.19825 9.64286ZM0.561882 5.35714H11.7233C11.7266 5.35977 11.7322 5.36482 11.7389 5.37366C11.7622 5.40422 11.7854 5.46176 11.7854 5.53571C11.7854 5.60967 11.7622 5.66721 11.7389 5.69776C11.7322 5.70661 11.7266 5.71166 11.7233 5.71429H0.561882C0.55852 5.71166 0.552999 5.70661 0.546244 5.69777C0.522911 5.66721 0.499721 5.60967 0.499721 5.53571C0.499721 5.46176 0.522911 5.40422 0.546244 5.37366C0.552999 5.36482 0.55852 5.35977 0.561882 5.35714Z" fill="#101828" stroke="#101828" stroke-width="0.714286"/>
<path id="Vector_2" d="M19.8828 11.1279L16.283 14.8778C16.2458 14.9165 16.2017 14.9473 16.1532 14.9682C16.1046 14.9892 16.0526 15 16 15C15.9474 15 15.8954 14.9892 15.8468 14.9682C15.7983 14.9473 15.7542 14.9165 15.717 14.8778L12.1172 11.1279C12.0422 11.0497 12 10.9437 12 10.8331C12 10.7226 12.0422 10.6165 12.1172 10.5384C12.1923 10.4602 12.2941 10.4163 12.4002 10.4163C12.5063 10.4163 12.6081 10.4602 12.6832 10.5384L15.6 13.5773V5.41665C15.6 5.30615 15.6422 5.20017 15.7172 5.12203C15.7922 5.0439 15.8939 5 16 5C16.1061 5 16.2078 5.0439 16.2828 5.12203C16.3578 5.20017 16.4 5.30615 16.4 5.41665V13.5773L19.3168 10.5384C19.3919 10.4602 19.4937 10.4163 19.5998 10.4163C19.7059 10.4163 19.8077 10.4602 19.8828 10.5384C19.9578 10.6165 20 10.7226 20 10.8331C20 10.9437 19.9578 11.0497 19.8828 11.1279Z" fill="#101828"/>
</g>
</svg>
