<svg width="24" height="24" viewBox="0 0 24 24" fill="none" xmlns="http://www.w3.org/2000/svg">
<g id="flat-color-icons:google">
<path id="Vector" d="M12 2.20833C14.501 2.20833 16.7766 3.15344 18.5074 4.69793L15.97 7.2354C14.8942 6.3369 13.5123 5.79167 12 5.79167C8.57144 5.79167 5.79167 8.57144 5.79167 12C5.79167 15.4286 8.57144 18.2083 12 18.2083C14.7029 18.2083 16.995 16.4782 17.8479 14.0695L17.9463 13.7917H17.6515H12.2083V10.2083H20.7917V10.2498H21H21.6329C21.7357 10.8182 21.7917 11.4028 21.7917 12C21.7917 17.4074 17.4074 21.7917 12 21.7917C6.59256 21.7917 2.20833 17.4074 2.20833 12C2.20833 6.59256 6.59256 2.20833 12 2.20833Z" fill="#FFC107" stroke="#415EFF" stroke-width="0.416667"/>
<path id="Vector_2" d="M3.15295 7.3455L6.43845 9.755C7.32745 7.554 9.48045 6 12 6C13.5295 6 14.921 6.577 15.9805 7.5195L18.809 4.691C17.023 3.0265 14.634 2 12 2C8.15895 2 4.82795 4.1685 3.15295 7.3455Z" fill="#FF3D00"/>
<path id="Vector_3" d="M12 22C14.583 22 16.93 21.0115 18.7045 19.404L15.6095 16.785C14.5718 17.5742 13.3038 18.001 12 18C9.39903 18 7.19053 16.3415 6.35853 14.027L3.09753 16.5395C4.75253 19.778 8.11353 22 12 22Z" fill="#4CAF50"/>
<path id="Vector_4" d="M21.8055 10.0415H21V10H12V14H17.6515C17.2571 15.1082 16.5467 16.0766 15.608 16.7855L15.6095 16.7845L18.7045 19.4035C18.4855 19.6025 22 17 22 12C22 11.3295 21.931 10.675 21.8055 10.0415Z" fill="#1976D2"/>
</g>
</svg>
