<svg width="31" height="32" viewBox="0 0 31 32" fill="none" xmlns="http://www.w3.org/2000/svg">
<g id="guidance:garden">
<path id="Vector" d="M15.5 9.125V9.75M15.5 9.125C15.5 7.13588 16.2902 5.22822 17.6967 3.8217C19.1032 2.41518 21.0109 1.625 23 1.625H23.625V9.75C23.625 11.9049 22.769 13.9715 21.2452 15.4952C19.7215 17.019 17.6549 17.875 15.5 17.875M15.5 9.125C15.5 7.13588 14.7098 5.22822 13.3033 3.8217C11.8968 2.41518 9.98912 1.625 8 1.625H7.375V9.75C7.375 11.9049 8.23102 13.9715 9.75476 15.4952C11.2785 17.019 13.3451 17.875 15.5 17.875M15.5 17.875V29.75M15.5 17.875V29.125M15.5 30.375H9.875C7.88588 30.375 5.97822 29.5848 4.5717 28.1783C3.16518 26.7718 2.375 24.8641 2.375 22.875H8C9.98912 22.875 11.8968 23.6652 13.3033 25.0717C14.7098 26.4782 15.5 28.3859 15.5 30.375ZM15.5 30.375H21.125C23.1141 30.375 25.0218 29.5848 26.4283 28.1783C27.8348 26.7718 28.625 24.8641 28.625 22.875H23C21.0109 22.875 19.1032 23.6652 17.6967 25.0717C16.2902 26.4782 15.5 28.3859 15.5 30.375Z" stroke="#101828" stroke-width="1.5"/>
</g>
</svg>
