<svg width="20" height="20" viewBox="0 0 20 20" fill="none" xmlns="http://www.w3.org/2000/svg">
<g id="vuesax/linear/house">
<g id="house">
<path id="Vector" d="M1.66666 18.3333H18.3333" stroke="#475467" stroke-width="1.5" stroke-miterlimit="10" stroke-linecap="round" stroke-linejoin="round"/>
<path id="Vector_2" d="M2.45834 18.3333L2.50001 8.3083C2.50001 7.79997 2.74168 7.31668 3.14168 7.00001L8.97501 2.45834C9.57501 1.99167 10.4167 1.99167 11.025 2.45834L16.8583 6.99167C17.2667 7.30834 17.5 7.79164 17.5 8.3083V18.3333" stroke="#475467" stroke-width="1.5" stroke-miterlimit="10" stroke-linejoin="round"/>
<path id="Vector_3" d="M10.8333 14.1667H9.16666C8.47499 14.1667 7.91666 14.725 7.91666 15.4167V18.3334H12.0833V15.4167C12.0833 14.725 11.525 14.1667 10.8333 14.1667Z" stroke="#475467" stroke-width="1.5" stroke-miterlimit="10" stroke-linejoin="round"/>
<path id="Vector_4" d="M7.91666 11.4584H6.24999C5.79166 11.4584 5.41666 11.0834 5.41666 10.625V9.37502C5.41666 8.91669 5.79166 8.54169 6.24999 8.54169H7.91666C8.37499 8.54169 8.74999 8.91669 8.74999 9.37502V10.625C8.74999 11.0834 8.37499 11.4584 7.91666 11.4584Z" stroke="#101828" stroke-width="1.5" stroke-miterlimit="10" stroke-linejoin="round"/>
<path id="Vector_5" d="M13.75 11.4584H12.0833C11.625 11.4584 11.25 11.0834 11.25 10.625V9.37502C11.25 8.91669 11.625 8.54169 12.0833 8.54169H13.75C14.2083 8.54169 14.5833 8.91669 14.5833 9.37502V10.625C14.5833 11.0834 14.2083 11.4584 13.75 11.4584Z" stroke="#101828" stroke-width="1.5" stroke-miterlimit="10" stroke-linejoin="round"/>
<path id="Vector_6" d="M15.8333 5.83331L15.8083 3.33331H12.1417" stroke="#101828" stroke-width="1.5" stroke-miterlimit="10" stroke-linecap="round" stroke-linejoin="round"/>
</g>
</g>
</svg>
