<svg width="21" height="21" viewBox="0 0 21 21" fill="none" xmlns="http://www.w3.org/2000/svg">
<g id="ion:location-sharp">
<path id="Vector" d="M10.5 1.47656C7.04961 1.47656 4.25 3.99648 4.25 7.10156C4.25 12.1016 10.5 18.9766 10.5 18.9766C10.5 18.9766 16.75 12.1016 16.75 7.10156C16.75 3.99648 13.9504 1.47656 10.5 1.47656ZM10.5 10.2266C10.0055 10.2266 9.5222 10.0799 9.11107 9.80524C8.69995 9.53053 8.37952 9.14009 8.1903 8.68327C8.00108 8.22646 7.95157 7.72379 8.04804 7.23884C8.1445 6.75388 8.3826 6.30843 8.73223 5.9588C9.08186 5.60916 9.52732 5.37106 10.0123 5.2746C10.4972 5.17814 10.9999 5.22764 11.4567 5.41686C11.9135 5.60608 12.304 5.92651 12.5787 6.33764C12.8534 6.74876 13 7.23211 13 7.72656C12.9993 8.38938 12.7357 9.02485 12.267 9.49353C11.7983 9.96221 11.1628 10.2258 10.5 10.2266Z" fill="#475467"/>
</g>
</svg>
