<svg width="8" height="8" viewBox="0 0 8 8" fill="none" xmlns="http://www.w3.org/2000/svg">
<g id="vuesax/linear/notification">
<g id="notification">
<path id="Vector" d="M4.00494 1.34875C3.03953 1.34875 2.25494 2.13334 2.25494 3.09875V3.94167C2.25494 4.11959 2.17911 4.39084 2.08869 4.5425L1.75328 5.09959C1.54619 5.44375 1.68911 5.82584 2.06828 5.95417C3.32536 6.37417 4.68161 6.37417 5.93869 5.95417C6.29161 5.8375 6.44619 5.42042 6.25369 5.09959L5.91828 4.5425C5.83078 4.39084 5.75494 4.11959 5.75494 3.94167V3.09875C5.75494 2.13625 4.96744 1.34875 4.00494 1.34875Z" fill="#D0D5DD" stroke="#D0D5DD" stroke-width="1.5" stroke-miterlimit="10" stroke-linecap="round"/>
<path id="Vector_2" d="M4.54596 1.4333C4.45555 1.40705 4.36221 1.38663 4.26596 1.37496C3.98596 1.33996 3.71763 1.36038 3.4668 1.4333C3.55138 1.21746 3.76138 1.0658 4.00638 1.0658C4.25138 1.0658 4.46138 1.21746 4.54596 1.4333Z" fill="#D0D5DD" stroke="#D0D5DD" stroke-width="1.5" stroke-miterlimit="10" stroke-linecap="round" stroke-linejoin="round"/>
<g id="Vector_3">
<path d="M4.88086 6.0592C4.88086 6.54045 4.48711 6.9342 4.00586 6.9342C3.76669 6.9342 3.54503 6.83504 3.38753 6.67754C3.23003 6.52004 3.13086 6.29837 3.13086 6.0592" fill="#D0D5DD"/>
<path d="M4.88086 6.0592C4.88086 6.54045 4.48711 6.9342 4.00586 6.9342C3.76669 6.9342 3.54503 6.83504 3.38753 6.67754C3.23003 6.52004 3.13086 6.29837 3.13086 6.0592" stroke="#D0D5DD" stroke-width="1.5" stroke-miterlimit="10"/>
</g>
</g>
</g>
</svg>
