<svg xmlns="http://www.w3.org/2000/svg" width="11" height="10" viewBox="0 0 11 10" fill="none">
  <path d="M1.33398 9.16675H9.66732" stroke="#f4ad0e" stroke-width="0.8" stroke-miterlimit="10" stroke-linecap="round" stroke-linejoin="round"/>
  <path d="M1.72852 9.16669L1.74935 4.15418C1.74935 3.90002 1.87018 3.65837 2.07018 3.50004L4.98685 1.2292C5.28685 0.995866 5.70768 0.995866 6.01185 1.2292L8.92852 3.49587C9.13268 3.6542 9.24935 3.89585 9.24935 4.15418V9.16669" stroke="#f4ad0e" stroke-width="0.8" stroke-miterlimit="10" stroke-linejoin="round"/>
  <path d="M5.91732 7.08325H5.08398C4.73815 7.08325 4.45898 7.36242 4.45898 7.70825V9.16659H6.54232V7.70825C6.54232 7.36242 6.26315 7.08325 5.91732 7.08325Z" stroke="#f4ad0e" stroke-width="0.8" stroke-miterlimit="10" stroke-linejoin="round"/>
  <path d="M4.45898 5.72908H3.62565C3.39648 5.72908 3.20898 5.54158 3.20898 5.31242V4.68742C3.20898 4.45825 3.39648 4.27075 3.62565 4.27075H4.45898C4.68815 4.27075 4.87565 4.45825 4.87565 4.68742V5.31242C4.87565 5.54158 4.68815 5.72908 4.45898 5.72908Z" stroke="#f4ad0e" stroke-width="0.8" stroke-miterlimit="10" stroke-linejoin="round"/>
  <path d="M7.375 5.72908H6.54167C6.3125 5.72908 6.125 5.54158 6.125 5.31242V4.68742C6.125 4.45825 6.3125 4.27075 6.54167 4.27075H7.375C7.60417 4.27075 7.79167 4.45825 7.79167 4.68742V5.31242C7.79167 5.54158 7.60417 5.72908 7.375 5.72908Z" stroke="#f4ad0e" stroke-width="0.8" stroke-miterlimit="10" stroke-linejoin="round"/>
  <path d="M8.41615 2.91675L8.40365 1.66675H6.57031" stroke="#f4ad0e" stroke-width="0.8" stroke-miterlimit="10" stroke-linecap="round" stroke-linejoin="round"/>
</svg>