<svg width="15" height="16" viewBox="0 0 15 16" fill="none" xmlns="http://www.w3.org/2000/svg">
<path d="M7.59998 7.29375C7.53748 7.2875 7.46248 7.2875 7.39373 7.29375C5.90623 7.24375 4.72498 6.025 4.72498 4.525C4.72498 2.99375 5.96248 1.75 7.49998 1.75C9.03123 1.75 10.275 2.99375 10.275 4.525C10.2687 6.025 9.08748 7.24375 7.59998 7.29375Z" fill="#101828" stroke="#101828" stroke-linecap="round" stroke-linejoin="round"/>
<path d="M4.47501 9.6C2.96251 10.6125 2.96251 12.2625 4.47501 13.2687C6.19376 14.4187 9.01251 14.4187 10.7313 13.2687C12.2438 12.2562 12.2438 10.6063 10.7313 9.6C9.01876 8.45625 6.20001 8.45625 4.47501 9.6Z" fill="#101828" stroke="#101828" stroke-linecap="round" stroke-linejoin="round"/>
</svg>
