<svg width="28" height="34" viewBox="0 0 28 34" fill="none" xmlns="http://www.w3.org/2000/svg">
<g id="Group">
<path id="Vector" d="M20.6666 6.99992C20.6666 8.76803 19.9643 10.4637 18.714 11.714C17.4638 12.9642 15.7681 13.6666 14 13.6666C12.2319 13.6666 10.5362 12.9642 9.28593 11.714C8.03569 10.4637 7.33331 8.76803 7.33331 6.99992C7.33331 5.23181 8.03569 3.53612 9.28593 2.28587C10.5362 1.03563 12.2319 0.333252 14 0.333252C15.7681 0.333252 17.4638 1.03563 18.714 2.28587C19.9643 3.53612 20.6666 5.23181 20.6666 6.99992Z" fill="url(#paint0_linear_775_3103)"/>
<path id="Vector_2" fill-rule="evenodd" clip-rule="evenodd" d="M21.5 33.6667C18.75 33.6667 17.375 33.6667 16.5217 32.8117C15.6667 31.9583 15.6667 30.5833 15.6667 27.8333C15.6667 25.0833 15.6667 23.7083 16.5217 22.855C17.375 22 18.75 22 21.5 22C24.25 22 25.625 22 26.4783 22.855C27.3333 23.7083 27.3333 25.0833 27.3333 27.8333C27.3333 30.5833 27.3333 31.9583 26.4783 32.8117C25.625 33.6667 24.25 33.6667 21.5 33.6667ZM24.78 26.5767C24.9623 26.3943 25.0648 26.147 25.0648 25.8892C25.0648 25.6313 24.9623 25.384 24.78 25.2017C24.5977 25.0193 24.3504 24.9169 24.0925 24.9169C23.8346 24.9169 23.5873 25.0193 23.405 25.2017L20.205 28.4017L19.595 27.7933C19.5047 27.7031 19.3975 27.6314 19.2796 27.5826C19.1616 27.5337 19.0352 27.5086 18.9075 27.5086C18.7798 27.5086 18.6534 27.5337 18.5354 27.5826C18.4175 27.6314 18.3103 27.7031 18.22 27.7933C18.1297 27.8836 18.0581 27.9908 18.0092 28.1088C17.9604 28.2267 17.9352 28.3532 17.9352 28.4808C17.9352 28.6085 17.9604 28.7349 18.0092 28.8529C18.0581 28.9709 18.1297 29.0781 18.22 29.1683L19.5167 30.465C19.6069 30.5554 19.7141 30.627 19.832 30.6759C19.95 30.7249 20.0765 30.75 20.2042 30.75C20.3319 30.75 20.4583 30.7249 20.5763 30.6759C20.6942 30.627 20.8014 30.5554 20.8917 30.465L24.78 26.5767Z" fill="url(#paint1_linear_775_3103)"/>
<path id="Vector_3" opacity="0.5" d="M18.1283 33.5332C16.9183 33.6215 15.55 33.6665 14 33.6665C0.666656 33.6665 0.666656 30.3082 0.666656 26.1665C0.666656 22.0248 6.63666 18.6665 14 18.6665C18.8 18.6665 23.01 20.0932 25.3567 22.2348C24.4967 21.9998 23.29 21.9998 21.5 21.9998C18.75 21.9998 17.375 21.9998 16.5217 22.8548C15.6667 23.7082 15.6667 25.0832 15.6667 27.8332C15.6667 30.5832 15.6667 31.9582 16.5217 32.8115C16.9167 33.2082 17.425 33.4182 18.1283 33.5332Z" fill="url(#paint2_linear_775_3103)"/>
</g>
<defs>
<linearGradient id="paint0_linear_775_3103" x1="14.0732" y1="-1.25405" x2="14.0732" y2="15.2539" gradientUnits="userSpaceOnUse">
<stop stop-color="#6F85FF"/>
<stop offset="0.95498" stop-color="#415EFF"/>
</linearGradient>
<linearGradient id="paint1_linear_775_3103" x1="21.5641" y1="20.6111" x2="21.5641" y2="35.0556" gradientUnits="userSpaceOnUse">
<stop stop-color="#6F85FF"/>
<stop offset="0.95498" stop-color="#415EFF"/>
</linearGradient>
<linearGradient id="paint2_linear_775_3103" x1="13.1473" y1="16.8808" x2="13.1473" y2="35.4522" gradientUnits="userSpaceOnUse">
<stop stop-color="#6F85FF"/>
<stop offset="0.95498" stop-color="#415EFF"/>
</linearGradient>
</defs>
</svg>
