<svg width="16" height="16" viewBox="0 0 16 16" fill="none" xmlns="http://www.w3.org/2000/svg">
<g id="vuesax/linear/video">
<g id="video">
<path id="Vector" d="M8.35334 13.6134H4.14001C2.03334 13.6134 1.33334 12.2134 1.33334 10.8067V5.19339C1.33334 3.08672 2.03334 2.38672 4.14001 2.38672H8.35334C10.46 2.38672 11.16 3.08672 11.16 5.19339V10.8067C11.16 12.9134 10.4533 13.6134 8.35334 13.6134Z" stroke="white" stroke-linecap="round" stroke-linejoin="round"/>
<path id="Vector_2" d="M13.0133 11.4001L11.16 10.1001V5.89342L13.0133 4.59342C13.92 3.96009 14.6667 4.34675 14.6667 5.46009V10.5401C14.6667 11.6534 13.92 12.0401 13.0133 11.4001Z" stroke="white" stroke-linecap="round" stroke-linejoin="round"/>
<path id="Vector_3" d="M7.66666 7.33301C8.21894 7.33301 8.66666 6.88529 8.66666 6.33301C8.66666 5.78072 8.21894 5.33301 7.66666 5.33301C7.11437 5.33301 6.66666 5.78072 6.66666 6.33301C6.66666 6.88529 7.11437 7.33301 7.66666 7.33301Z" stroke="white" stroke-width="1.5" stroke-linecap="round" stroke-linejoin="round"/>
</g>
</g>
</svg>
