<svg width="21" height="20" viewBox="0 0 21 20" fill="none" xmlns="http://www.w3.org/2000/svg">
<g id="vuesax/linear/whatsapp">
<g id="whatsapp">
<path id="Vector" d="M5.91634 17.1666C7.16634 17.9166 8.66634 18.3333 10.1663 18.3333C14.7497 18.3333 18.4997 14.5833 18.4997 9.99996C18.4997 5.41663 14.7497 1.66663 10.1663 1.66663C5.58301 1.66663 1.83301 5.41663 1.83301 9.99996C1.83301 11.5 2.24967 12.9166 2.91634 14.1666L2.27345 16.6393C2.07873 17.3882 2.77193 18.065 3.51599 17.8524L5.91634 17.1666Z" stroke="#1DAD18" stroke-width="1.5" stroke-miterlimit="10" stroke-linecap="round" stroke-linejoin="round"/>
<path id="Vector_2" d="M13.916 12.3737C13.916 12.5087 13.886 12.6475 13.8221 12.7825C13.7583 12.9175 13.6757 13.045 13.5667 13.165C13.3827 13.3675 13.1799 13.5138 12.9508 13.6075C12.7255 13.7013 12.4814 13.75 12.2185 13.75C11.8354 13.75 11.426 13.66 10.9941 13.4762C10.5622 13.2925 10.1303 13.045 9.70219 12.7338C9.2703 12.4188 8.86093 12.07 8.47035 11.6837C8.08352 11.2937 7.73424 10.885 7.42253 10.4575C7.11456 10.03 6.86669 9.6025 6.68642 9.17875C6.50615 8.75125 6.41602 8.3425 6.41602 7.9525C6.41602 7.6975 6.46108 7.45375 6.55122 7.22875C6.64135 7 6.78407 6.79 6.98312 6.6025C7.22348 6.36625 7.48637 6.25 7.76429 6.25C7.86945 6.25 7.9746 6.2725 8.06849 6.3175C8.16614 6.3625 8.25252 6.43 8.32012 6.5275L9.19143 7.75375C9.25903 7.8475 9.30785 7.93375 9.34165 8.01625C9.37545 8.095 9.39423 8.17375 9.39423 8.245C9.39423 8.335 9.36794 8.425 9.31536 8.51125C9.26654 8.5975 9.19518 8.6875 9.10505 8.7775L8.81962 9.07375C8.77831 9.115 8.75953 9.16375 8.75953 9.22375C8.75953 9.25375 8.76329 9.28 8.7708 9.31C8.78206 9.34 8.79333 9.3625 8.80084 9.385C8.86844 9.50875 8.98487 9.67 9.15012 9.865C9.31912 10.06 9.49939 10.2587 9.69468 10.4575C9.89749 10.6562 10.0928 10.84 10.2918 11.0087C10.4871 11.1737 10.6486 11.2862 10.7763 11.3537C10.7951 11.3612 10.8176 11.3725 10.8439 11.3837C10.874 11.395 10.904 11.3987 10.9378 11.3987C11.0016 11.3987 11.0505 11.3763 11.0918 11.335L11.3772 11.0538C11.4711 10.96 11.5612 10.8887 11.6476 10.8437C11.734 10.7912 11.8204 10.765 11.9143 10.765C11.9856 10.765 12.0607 10.78 12.1434 10.8137C12.226 10.8475 12.3124 10.8962 12.4063 10.96L13.6494 11.8412C13.747 11.9087 13.8146 11.9875 13.8559 12.0812C13.8935 12.175 13.916 12.2687 13.916 12.3737Z" stroke="#1DAD18" stroke-width="1.5" stroke-miterlimit="10"/>
</g>
</g>
</svg>
